<?xml version="1.0" encoding="UTF-8"?>
<svg id="Layer_1" xmlns="http://www.w3.org/2000/svg" version="1.1" viewBox="0 0 2000 2000">
  <!-- Generator: Adobe Illustrator 30.1.0, SVG Export Plug-In . SVG Version: 2.1.1 Build 136)  -->
  <defs>
    <style>
      .st0 {
        display: none;
      }

      .st0, .st1, .st2 {
        fill: #3c5a9a;
      }

      .st1 {
        font-family: SnellRoundhand-Bold, 'Snell Roundhand';
        font-size: 228.01px;
        font-weight: 700;
      }

      .st3 {
        fill: none;
        stroke: #3c5a9a;
        stroke-miterlimit: 10;
        stroke-width: 4px;
      }
    </style>
  </defs>
  <g>
    <path class="st0" d="M1429.44,535.92l5.47-2.73c.81-.4,1.69,2.05,1.33,2.66l-3.84,4.02c-.94.98,1.06,4.67,1.88,5.94l9.01,13.99,14.53,23.61,10.97,18.52,10.24,19.6,8.16,14.15,16.1,29.65c1.54,2.84,3.37,7.22,4.8,10.2l5.1,10.65c5.9,12.34,4.56,13.62,9.46,24.46l4.7,10.42,5.57,12.34,1.98,21.09c-1.51-16.1,8.76,38.26,7.31,25.66,1.76,15.37-1.34,35.69,6.15,36.99-8.19,5.96-2.11,14.4-1.53,20.06,2.57,25.04,5.52,51.71.37,77.45l-3.46,17.34-1.2,58.31c-.13,6.26-5.98,12.79-4,20.74,1.43,5.73-2.07,10.49-3.69,15.7-3.92,12.62,3.09,27.65-5.39,27.89l-1.56,22.92c-6.7,6.27-7.73,29-17.56,38.69-.73,3.23-1.78,8.03-2.93,10.26l-9.93,19.36c-9.01,17.57-20.19,32.83-30.94,48.91-12.69,18.99-26.06,35.35-43.22,50.29-9.41,8.19-17.61,18.74-27.69,26.08l-20.35,14.82-14.26,9.89-11.63,7.83-18,11.78c-3.81,2.49-8.54,5.85-12.66,8.05l-31.82,16.99c-7.87,4.2-16.45,7.65-24.4,10.81l-22.6,8.99c-3.93,1.56-7.52,2.05-10.98,4.5l-12.86,2.29c-5.62,2.97-11.61,3.19-18.18,4.74l-22.25,5.24c-5.27,1.24-10.22,3.44-16.25,3.25-11.18-.36-8.08,7.31-38.24,5.31l-7.06,4.63-80.02-.19c-2.28-1.51-6.14-5.66-8.4-5.25-2.51.45-5.62,2.17-9.04,4.63-1.9,1.36-6.33-.93-8.74-3.28l-19.2-1.52c-2.9-1.74-8.89-5.56-12.27-4.69-11.14,2.87-18.38-1.83-27.72-3.62-7.69-1.47-15.66-.31-22.88-3.65-5.78-2.67-13.76-1.68-22.01-1.64-2.36.01-6.8-2.82-9.57-3.76-5.16-1.75-13.06-1.2-18.47-2.67-2.06-.56-5.28-2.97-6.75-2.34l-4.69,2.01c-4.27-2.06-8.81-3.45-13.97-4.8l-17.89-4.68c-5.57-1.46-13.13-2.97-18.03-4.67l-14.68-5.09c-4.12-1.43-12.99-8.28-15.93-.76-1.41,3.6.04,11.32,2.27,13.78,1.89,2.09,7.6,3.94,9.78,2.17,1.51-1.23,6.2-5.28,6.21-3.36.02,2.71.87,5.96,1.11,7.45s5.06,1.42,6.33,2.5c3.33,2.84,8.79,4.71,14.35,3.86,6.3-.96,11.25,2.55,15.96,3.65,6.81,1.59,12.72,2.74,19.13,4.84l13.19,2.37c4.88,3.64,11.34,2.99,15.71,4.84,22.8,9.67,13.85-2.58,31.13,8.01l17.6,1.36c1.5,1.66,3.69,4.99,5.03,4.36l5.07-2.39c2.23-1.05,5.36-2.39,7.32-3.16,1.38-.53,3.77,3.25,5.16,3.92l14,6.7c9.25-2.08,17.16,2.31,25.23,3.29,16.94,2.05,33.79.43,50.43,1.44,10.8.66,21.15.15,31.98,0l30.13-.44c2.82-.04,7.79-2.69,10.82-2.98l34.1-3.25c6.04-.57,10.88-3.8,17.84-3.12,4.79.46,8.55-1.53,12.26-4.3l14.42-1.66c7.42-8.41,20.97-1.34,15.66-5.25l-2.69-1.98c5.68-1.13,11.74-1.9,16.11-3.53l22.77-8.48,5.75-2.56,15.37-5.36c31.12-10.86,38.62-18.42,63.32-33.82l32.59-20.31,11.76-7.57,24.25-15.54c10.06-6.45,18.06-16.13,26.42-24.45,9.31-9.26,19.16-18.07,26.73-28.39,2.73-3.73,4.77-7.38,7.71-10.51,10.99-11.67,18.86-19.36,27.56-33.19l17.78-28.24c6.27-9.97,12.4-21.94,16.5-33.6l4.36-12.38c5.31-15.09,11.31-25.81,14.41-40.28l5.17-24.16c1.45-6.77,4.02-11.9,4.86-18.51l2.25-17.64c2.47-5.98,5.68-13.28,3.89-19.54-2.7-9.48,4.15-16.17,4.19-23.41l.57-117.51c.06-11.79-6.92-15.48-4.95-40.58l-4.8-4.37.09-38.64c0-2.62-2.6-6.77-4.06-9.31l-1.67-19.56-5.08-14.58-5.31-15.49c-7.73-22.53.65-5.22-6.62-23.34l-5.26-13.13c-1.84-4.58-3.85-9.59-5.24-14.11-2.2-7.18-5.96-11.6-8.87-18.94l-5.32-13.42-5.44-10.63c-7.53-14.7-9.57-10.33-14.09-25.61-1.99-6.72-5.57-11.15-9.49-17.06-2.89-4.36-5.91-9.48-9.26-13.87l-8.45-11.06c-.36-.47-10.22-13.36-3.99-11.28-6.11-2.03-11.64-14.4-26.66-25.94-4.51-3.46-5.46-9.86-8.19-12.6l-29.08-29.07c-2-2-7.88-3.63-9.75-5.8-3.46-4.01-7.42-5.03-12.12-7.59-3.9-2.12-8.76-10.83-13.03-11.5-7.69-1.21-12.42-2.52-13.34-10.77l-18.34-.42-1.05-13c-5.05-1.21-9.36-2.19-13.1-4.76l-13.4-9.24c-2.86-1.97-9.06-3.15-12.48-4.72l-14.41-6.6-30-15.18c-14.08-5.46-1.63.81-20.49-7.94-25.72-11.93-4.8-1.38-30.95-10.13l-13.89-4.65-16.17-3.03c-7.04-1.32-12.08-3.77-19.88-3.09-4.2.36-8.1-1.52-10.87-4.42l-24.9-1.2c-2.32-2.35-6.62-4.07-10.79-4.07l-128.78.06c-14.19,10.15-15.99-.44-27.49,8.69l-16.91,1.79c-8.18,3.01-16.05,3.37-24.27,5.46l-19.42,4.95-18.96,4.49c-3.13.74-8.67,3.52-12.09,4.88l-11.29,4.46-27.89,11.65c-9.56,3.99-17.77,8.71-25.05,15.87-2.19,2.15-7.34,3.82-9.74,7.31-1.9,2.77-9.77,2.94-12.77,4.91l-16.64,10.94c-2.88,1.89-6.77,5.49-9.51,8.05-6.61,6.18-13.24,10.98-20.14,16.2-5.55,4.2-10.3,8.8-16.25,12.7-5.68,3.72-13.51,10.58-18.22,15.41-1.32,1.36-.65,7.02-2.36,7.55-16.9,5.2-2.2,1.55-21.3,16.4l-3.2,7.2c-6.43,4.88-10.14,11.01-14.16,17.84l-10.96,18.63c-2.98,5.06-6.08,9.7-9.44,14.39l-11.1,15.46-3.3,5.58c-5.03,8.51-10.26,16.2-14.25,25.19l-4.63,10.43c-3.42,7.7-7.45,14.8-10.13,22.51l-4.26,12.27-5.07,14.16-5.05,14.09c-9.44,26.34-13.04,21.12-13.5,42.08-7.66,9.17-8.74,20.46-10.59,30.16-.75,3.96-3.75,9.25-3.82,13.74-.09,5.93-2.05,11.08-3.06,16.18-1.57,7.92-2.81,13.73-5.72,21.28-1.46,3.78-.12,12.79-2.07,16.22-2.09,3.68-4.77,8.05-3.75,12.62,1.88,8.42-3.53,13.41-3.79,20.07l-1.8,45.99c-.09,2.38-4.06,6.43-3.38,8.33.56,1.58,2.84,4.95,3.08,6.63l1.56,10.88,3.54,3.29c-6.32-5.88-4.3,46.4-1.73,57.61,5.5,23.97-.58,15.81,6.58,27.28l1.87,16.95c3.73,6.79,3.77,12.25,4.81,20.12,1.12,4.43,6.7,12.63,8.49,16.94.18,8.78.89,15.03,4.17,22.23,11.84,26.02,1.13,10.84,10.16,29.15l1.84,15.87,8.29,2.49.76,11.85c3.56,2.95,3.29,7.75,5.14,11.38,3.88,7.59,9.27,14.99,14.07,22.01l6.52,9.54,9.58,15.04,11.51,15.25c5.78,7.65,11.76,14.63,18.12,21.83,8.98,10.18,16.86,21.86,29.62,29.59,7.43,4.5,13.02,13.79,21.55,17.75l14.85.88-4.63,8.07c8.52,7.23,18.6,12.97,27.55,18.37l14.32,8.64c4.48,2.7,9.3,3.92,14.63,3.63l8.88,9.18c1.94,2.01,9.23-1.47,10.76-2.72.73,5.66,4.29,10.13,10.2,11.79,3.77-8-1.2-19.99-7.56-22.87-9.31-4.21-2.55,8.46-8.96,9.51-2.05.33-7.96-1.44-6.84-2.98,1.69-2.32,4.3-3.66,3.96-4.8-.28-.91-1.98-3.27-2.26-4.37-3.11-12.18-10.11-8.76-29.02-27.21-3.61-3.52-13.21-8.41-18.51-8.98-4.26-3.09-9.76-10.03-14.62-13.06-5.63-3.5-9.35-5.91-13.7-11.45l-13.1-1.32c1.65-10.11-3.75-17.75-13-19.91l-4.31-7.31c-8.19-3.38-12.67-8.87-18.08-15.53l-17.77-21.87c-1.2-1.47-1.19-6.48-2.77-7.08-15.57-5.89,1.11-.47-15.43-22.29-2.02-2.66-3.72-8.69-5.74-11.92l-13.99-22.43c1.71,2.75-7.54-19.28-7.78-19.89l-4.76-12.19c-1.62-4.14-3.51-8.59-5.29-12.49-8.69-19.07,2.01-10.9-7.27-24.96l-2-18.02c-2.5-3.86-4.67-7.5-4-13.09.41-3.42-2.3-7.69-2.97-10.99-2.27-11.16-2.11-26.68-2.21-37.2-.02-2.09-3.14-6.71-3.31-8.51l-2.38-25.03-3.06,3.44c-.09-4.65,2.39-8.58,3.17-12.67,1.64-8.61,1.88-22.19-.8-30.23-4.13-12.41-2.47-21.01-.23-33.04,2.93-15.8,2.03-62.92,4.03-63.41l7.23-1.75,1.38-22.6c10.09-15.93-1.15-3.7,7.77-32.65l4.76-15.44,5.26-16.25c.92-2.85,3.34-6.54,4.58-8.59,1.14-6.58,7.43-22.49,9.76-28l12.2-28.94,5.07-11.54,4.4-11.11,8.12-19.49c9.26-22.25,10.18-13.23,10.58-29.95l8.16-9.08,9.39-16.42c1.96-3.43,3.82-6.84,6.33-9.65,5.25-5.88,9.4-11.76,14.67-17.75l31.63-35.99c7.43-8.45,15.65-17.88,24.95-25.51l29.02-23.83c2.6-2.14,7.1-4.67,10.35-7.05l24.68-18.09,12.75-5.09c9.33-3.73,16.95-10.52,25.96-14.95l8.01-3.93,31.09-14.82c13.43-6.4,22.05-4.95,29.32-10.16l14.59-1.65c3.28-3.04,6.28-4.37,11.17-4.24,5.28.13,9.11-2.87,14.37-3.51l20.27-2.45c5.53-.67,10.33-4.64,15.98-3.38s10.39-3.46,14.53-3.99c21.11-2.74,42.45-.16,63.76-1.71,8.74-.64,16.74-.75,25.44,0,12.92,1.11,26.61-.76,39.23,1.72,4.54.89,8.45,5.08,14.57,3.9,5.32-1.02,10.98,1.88,15.81,3.12l19.41,5.01,15.58,2.25c4.91,3.24,10.01,3.54,15.55,5.36l14.22,4.68c3.11,1.02,7.82,3.63,11.31,5.01l12.54,4.96,11.79,4.81c15.63,6.37,7.58,1.61,23.04,9.36l21.04,10.55,47.21,25.97c5.57,3.06,10.25,4.71,13.95,10.92l13.39,1.19,1.81,9.05c26.08,22.22,32.39,24.76,56.98,50.39l2.8,2.92c2.16,2.25,1.17-4.91,6.23-4.86.69,0,2.07,2.24,1.61,2.75l-2.59,2.92c.43,4.53,5.32,12.88,10.03,12.67ZM1131.38,411.67c28.15,8.05,9.3-.13,32.03,7.16,4.61,1.48,8.4,2.98,12.46,5.14l12.79,2.05c4.21,2.31,7.7,3.75,12.25,5.39l12.62,4.54c9.27,3.33,18.64,10.58,27.97,12.9,5.63,1.4,9.07,1.88,12.5,4.12l8.46,5.53,11.27,2.23c3.86,4.53,8.66,6.28,13.04,9.06l28.81,18.29,10.01,6.99c6.83,4.77,14.02,8.53,21.79,9.21.87,2.87,2.37,7.49,4.15,8.73,1.53,1.06,7.07-.52,7.1-2.5-.84-7.54-10.01-14.22-16.5-18.31-7.89-4.98-14.45-12.89-21.73-17.17l-22.49-13.22-10.79-6.48-5.74,3.33c9.53-5.52-36.97-23.54-37.57-23.8l-32.59-14.03c-3.82-1.64-7.8-2.53-10.87-3.8l-13.19-5.47c-3.49-1.45-11.92-.27-15.19-1.89-4.84-2.38-8.89-4.19-14.12-3.94-7.06.33-11.93-1.98-18.51-3.7-8.45-2.21-19.07-.88-28.36-1.49l-7.88-4.55-29.42.04-6.83-4.47c-25.2-.54-51.61-1.54-76,1.05-3.61.38-9.48,3.88-12.87,3.77-46.23-1.46-15.84,6.6-42.26,4.48-5.71-.46-10.3.84-14.33,4.07l-12.91,2.05c-5.17,2.01-9.41,3.47-14.56,5.02l-15.71,4.72c-21.23,6.38-19.26,9.2-34.35,14.64l-13.17,4.74c-13.81,4.97-21.59,12.04-39.24,21.5-21.04,11.27-5.09,7.41-22.67,13.18l6.48,12.29,10.75-8.21c2.6-1.98,6.73-4.91,9.36-6.29l29.76-15.6c3.24-1.7,6.53-2.62,11.26-3.97,6.43-1.84,13.81-6.46,20.41-8.72l11.46-3.92,15.2-5.06,15.54-4.88,16.41-4.99,18.65-5.01c4.75-1.28,8.18-2.56,12.88-4.41,10.56-4.16,23.02,2.97,33.08-6.18l121.52-.22c1.65,0,5.68,4.01,7.25,4.32,5.36,1.07,16.75.07,22.57,1.73ZM924.7,1113.95c-.23,10.07,1.75,21.12-2.34,30.28-2.57,5.76-4.08,15.45-.89,20.15.84,1.23,5.81,2.63,6.59,1.48,1.54-2.27-3-11.48,26.3-27.95,7.16-4.03,15.36.46,17.99,6.97,2.86,7.07,1.13,15.5-5.7,19.07-.75.39-3.26.67-3.61-.02l-1.01-1.96c-1.13-.68-4.99-5.21-3.75-6.67l6.04-7.06c-5.38-2.92-12.42-2.04-16.9,2.83-6.13,6.68-3.74,21.47-1.02,30.34,3.17,10.33,10.21,15.24,18.81,20.01,10.18,5.65,16.02,3.79,25.66-.64,1.26-.58,25.85.86,32.38-18.51,1.18-1.22,4.67-2.18,6.27-1.7,8.59,2.56.81,18.49,33.26,26.04,9.42,2.19,15.7,5.92,26.24.49,9.78-5.04,24.19-7.05,29.69-20.3,3.8-9.15,8.09-10.07,4.91-23.52-.75-3.18-9.63-7.31-11.92-4.82-1.77,1.92-2.49,8.11-3.25,11.49-.6,2.66-7.91.02-8.85-2.35l-4.14-4.75,15.2-15.52c4.9-.77,7.27-1.61,11.77-5.86l14.59,13.7c1.42,1.33,2.43,7.09,3.14,9.24,4.51,1.74,13.16,2.36,17,.63,4.86-6.5-1.87-12.88-2.65-18.01l-3.67-24.03c-.47-3.1,2.39-7.82-.52-12.36-2.05-3.19-2.3-11.78-.64-15.46,6.11-13.51,2.88-19.53,16.63-41.77,3.51,8.53,1.94,16.57-2.05,22.82,1.8,2.2,4.42,4.77,3.65,6.24l-3.92,7.52c-3.66,7.02,1.86,35.2,2.59,40.9l1.66,12.98c.44,3.45,1.75,7.28,2.96,10.84,7.95,23.42,22.88,27.82,42.38,31.9,3.02.63,7.26,5.2,11.67,4.45,7.72-1.31,14.11-10.81,18.14-18.15,2.89-5.25,1.35-9.09-.5-14.32-2.28-6.45-2.68-10.73-9.29-13.81-19.93-9.27-12.14,10.44-24.42,5.06l3.73-12.51c16.87-1.69,5.67-7.61,19.63-2.73,17.51,6.11,30.37,28.96,20.43,43.87,1,4.41,7.53,7.7,13.45,6.95l6.58,4.81c6.63.18,11.25,3.78,17.25,4.21l22.81,1.63c-.77-.05,37.65,10.76,57.36-10.01l9.86-10.39c4.29-4.53,6.44-10.53,8.73-16.05,3.11-7.47,3.33-12.12,1.2-19.4-3.51-12.01-10.46-20.94-23.1-25.98-16.84-6.7-27.11.79-37.62,14.09-1.79,2.26,1.68,8.33,2.5,10.72,4.36,12.71,16.1,21.82,30.22,15.74l2.52-17.83c11.36-.7,9.07,20.67,6.85,22.81l-11.56,11.17c-25.96.8-13.91,1.82-28.16-5.87-18.12-9.78-12.13-23.31-12.9-40.49l11.17-11.48c3.51-3.6,10.45-4.84,14.53-6.84,8.14-4,12.22-3.98,20.59-.68,6.61,2.61,12.43,5.25,18.41,9.76l13.16,9.91c3.12,2.35,12.54,2.53,16.1.95l12.65-5.62c3.37-1.5,8.14-8.37,10.37-11.55.26-6.88,1.07-16.96-1.16-22.12l-5.8-13.42c-29.6.37-42.82,3.25-58.7-23.49-4.62-7.77-2.84-15.06,1.42-22.73,2.38-4.29,3.21-13.65,12-10.05-5.81,10.56-9.08,23.29-3.41,31.27,6.01,8.46,12.45,13.47,20.53,17.72,7.72,4.06,12.25.64,19.21-.95,15.11-3.46,26.88-9.68,33.14-25.6,1.78-4.53.22-8.14-.65-13.25-1.69-9.99-4.25-15.54-10.14-23.72-2.18-3.02-4.32-7.21-7.36-10.13-9.02-8.69-17.98-17.39-25.23-27.29l-11.98-16.37-1.26-21.94c-2.75-.03-7.6.44-9.86,1.44l-9.94,4.4c-24.85,11-45.46-10.37-47.7-21.56-1.29-6.44-.57-14.61,1.04-20.96.94-3.68,8.99-7.73,12.28-9.54l5.06-2.79c.87-.48,2.04,5.08,1.37,5.81l-9.83,10.84-.34,15.93c4.82,5.18,9.61,10.42,14.89,14.4,10.96,8.27,35-7.28,36.96-9.92,1.64-2.22,4.09-7.34,5.39-10.03,9.35-19.24,6.04-5.56,6.15-35.43-2.19-.79-3.46-.55-3.74-1.53l-1.62-5.75c-.86-3.06-1.63-7.44-2.51-10.01-7.84-22.89-22.31-36.51-42.06-49.45l-16.76-10.97c-13.45-8.81-13.81-4.86-33.52-19.21-5.4-3.93-14.4-6.23-10.35-16.05l9.19,8.09,11.84,5.53c5.25,2.45,10.02,6.27,14.67,8.84,12.6,6.98,25.14,13.46,37.48,19.22,4.89-1.37,10.53-2.56,17.11-3.69l1.04-8c5.81-.41,10.37-2.9,12.92-8.22,6.5-13.58,8.83-7.86,5.21-34.48-5.58-13.23-16.02-21.83-25.8-31.06-10.06-9.51-20.05-19.73-28.32-30.54l-14.58-19.06c-3.72-4.86-7.62-13.31-10.59-18.96l-8.36,14.56-12.05,21.86c-2.36,4.28-7.76,14.58-13.26,12.24-8.57-3.64.94-9.5,2.65-12.56,6.18-11.09,12-21.81,17.41-33.39l4.98-10.64c-14.73-23.73,14.25-8.15,11.06-30.85l4.98-8.95-.4-30.8c-3.73-2.68-11.06-7.91-14.73-6.93l-13.22,3.55c-6.53,1.75-16.37,8.94-19.06,15.03l-4.77,10.81c8.91,16.56,7.57,34.77-9.16,48.4-9.62,7.83-20.43,10.99-32.02,5.17-8.33-4.18-18.99-11.11-16.27-21.56,2.9-11.1,11.61-16.93,22.28-14.76,2.79.57,8.51.48,8.81,2.77.37,2.81-.05,7.2-.69,11.46l-10.97-8.71c-3.02,1.79-10.6,7.64-11.95,11.61.16,15.99,18.04,9.7,21.61,15.14l10.35-4.23c3.73-1.52,8.15-6.54,12.69-11.46l-11.39-5.06,10.9-1.91c.53-7.35-1.08-13.49-5.77-18.76-3.85-4.33-13.23-5.63-18.09-6.14-.81-.08-2.35-3.64-2.94-4.2s-2.59-.19-3.1.45c-.51.63-.54,3.1-1.33,3.3-19.65,4.77-5.33-5.09-32.87,11.38l.49-13.19,19.37-18.97-6.32-14.99c-13.16-31.21-21.84-24.61-40.7-33.41-7.02-3.28-13.12-.51-19.19-1.03l-20.24-1.72c-29.31-2.49-19.75-19.38-49.84-39.38-8.24-5.48-15.52-6.76-23.49-.48l-9.6,7.56c-1.54,1.21-5.09,3.11-6.88,3.35-1.43.19-3.71-2.64-5.18-3.4l-13.51-7.01c-30.77,14.34-25.91,24.82-50.67,38.12-27.8,5.78-25.45-4.08-38.24-3.72-5.82.16-11.37-.79-15.81-2.22-1.54.62-8.36,1.89-10.24,3.4-27.7,22.39-23.1,37.73-38.18,44.36-1.82.8-3.56,5.59-2.28,6.75l4.68,4.22c1.94,1.75,5.57,6.41,5.58,8.96s-3.19,6.44-5.14,8.9l-2.67,3.36c-.4.5-1.86-.43-2-1.04l-.85-3.68c-.36-1.56-.16-4.18-1.12-4.22l-4.3-.19c-3.49-.16-8.08-2.32-10.9-3.88-8.34-4.62-14.52,3.79-20.61,7.37-4.2,2.47-6.47,4.66-9.04,8.88-7.54,12.39-1.27,29.1,12.3,34.86,7.41,3.14,13.88,1.05,18.93-4.49,4.05-4.45,7.5-12.55,2.55-18.19-1.4-1.59-5.88-5.18-7.66-4.31-6.07,2.96-9.35,6.69-13.15,4.54-1.11-.63-1.91-3.89-.78-4.5l4.28-2.32c8.94-4.83,18.88-5.48,25.17,3.39,6.79,9.58,5.63,18.78-2.3,27.14-9.1,9.59-22.59,15.1-34.6,5.86-3.21-2.47-9.14-6.07-12.14-7.83-.56-5.93-2-11.02-4.5-16-3.37-6.72,1.36-18.64-2.7-24.51l-8.82-12.78-14.05-20.37c-2.03-2.94-8.3-7.77-11.47-6.28l-12.61,5.9.28,45.72c9.12,3.28-.49.11,8.6,18.34,1.49,2.98.82,10.98,2.92,13.98,3.67,5.22,7.61,12.49,8.88,19.2l7.34,10.39,5.52,11.24-7.44,1.87c-11.35-14.2-14.66-21.37-21.88-37.37-.61-1.36.71-7.02-.72-7.09l-6.45-.29c-1.45-.06-1.37,4.4-1.97,5.74-7.73,17.34-19.92,30.77-31.76,45.05-3.23,3.89-5.8,7.83-9.79,11.9-9.1,9.28-22.92,21.95-25.94,33.76l-3.46,13.53c4.9,7.77,1.24,21,3.79,21.57l7.03,1.57c.95.21,1.43,2.54.58,2.86l-4.1,1.57c1.48,3.85,7.18,7.03,6.49,11.57l11.4,3.55c1.92,1.24,5.51,4.07,7.18,3.3l7.2-3.31c3.84-1.77,7.78-3.52,11.42-5.68l30.84-18.3c5.12-3.04,9.68-4.13,13.67-9.03.91-1.12,3.7-2.96,5.08-3.35s4.16,2.52,4.32,3.66c-5.73,4.68-11.25,10.72-16.61,14.51l-14.68,10.39c-4.37,3.09-14.6,4.5-17.27,10.27-2.49,5.38-5.39,5.26-11.12,5.56l-27.26,26,.41,6.92,11.14-4.71,13.05-11.55,10.96-5.26c6.1-2.93,10.4-6.87,16.05-11.93,1.6,3.47,2.08,9.85-.34,11.03l-9.62,4.69c-6.7,3.26-11.89,12.2-16.35,19.5-8.45,13.81,5,28.3,2.8,32.56-.72,1.4-13.08,2.01-13.78-.32l-2.21-7.37c-2.08,3.2-5.74,8.46-6.91,11.94-3.99,11.95,3.82,22.14,13.66,28.09l-7.02,7.9-11.25-7.5c-3.46-2.31-7.95-6.44-11.22-9.15,2.69-1.83,5.95-5.35,5.53-7.88-.38-2.29-3.19-4.8-6.69-8.01,8.2-.42,4.65-7.85,6.83-12.27,2.48-5.04,6.27-12.6,3.92-17.66-1.35-.99-6.49-1.67-7.24-.15l-2.75,5.59c-3.93,7.98-4.25,15.9-4.02,24.65l.55,21.44c1.97,2.3,3.95,6.35,4.24,9.65l.73,8.29c.15,1.71,5.68,2.1,7.05,3.57,13.35,14.35,31.14,8.82,32.6,6.35,1.9-3.22,2.92-6.33,4.49-11.28l8.73-1.76-.36-16.74c-2.42-2.65-8.2-7.65-10.18-10.48-.8-1.14,1.22-6.46,2.48-5.83l4.32,2.15c6.86,3.41,7.9,6.57,10.09,13.54,2.26,7.19,6.35,15.72.72,22.19-6.39,7.35-12.37,15.17-20.76,20.33h-16.52c-1.93-.01-4.89,3.08-6.72,5.36l-2.63-10.14c-6.4.88-8.94-.59-11.26-5.86l-7.62,3.64c5.37,2.03,7.8,2.62,9.46,3.99s-.68,9.03-2.44,7.79l-5.87-4.14c1.69,14.27-12.6,34.87-19.97,44.04-7.16,8.9-17.57,12.74-24.08,31.27l-5.09,14.48c-3.29,9.38-.13,17.2,2.64,24.9,5.15,14.36,9.2,7.84,23.68,18.52,7.33,5.4,14,.75,19.43-.79,8.39-2.38,15.04-3.3,18.57-14.11,2.58-7.9,7.01-19.04-.74-33.23-1.52-1.33,3.28-2.8,5.64-2.79,5.25.03-.57,6.97,6.84,22.32,1.78,3.68,3.39,6.73,5.28,10.09l-13.04,12.45c-5.83,5.57-11.71,13.57-21.1,13.73l-26.78.45c-1.86,4.85-3.45,8.28-5.7,12.42-.62,5.67-.73,17.58-.62,23.28.02.98,2.89,3.89,3.38,5.21,7.34,19.7,35.64,11.91,37.19,9.61s2.68-8.92,4.72-10.37l14.79-5.16c6.94-2.42,19.22-2.87,26.89-.44,10.68,3.38,16.9,15.08,24.26,21.36l-3.9,3.86c-.7.69,3.08,2.96,4.22,3.9l.31,22.21c-7.71,1.52-10.41,4.41-15.92,8.15-4.71,3.2-12.42,6.55-14.46,11.02,4.09,2.9,7.52,5.21,9.87,7.68,1.64,1.72.89,6.08-1.53,9.98-5.41-5.89-9.73-13.46-13.07-19.85-3.42-1.33-8.34-3.68-11.1-6.08l-11.41-9.93-5.67-.62c-.98-.11,1.1-3.17,1.91-3.72l2.22-1.5,1.23-13.25c7.25-.4,12.28-.04,18.63,1.54l-8.8,4.91,10.89,12.13c1.83,2.04,7.23-1.73,9.91-3.46,1.22-.79,4.94-1.26,6.05-2.1-1.66,1.26,10.25-12.17,6.27-24.21-2.74-8.31-14.49-18.89-24.03-17.09-13.9,2.61-21.08,11.61-29.42,20.71l.4,30.06c3.61,2.89,5.25,6.75,4.94,12.84l10.98,12.59,7.48,1.42c10.35,16.53,16.77,3.92,33.27,12.42,8.46-5.1,24.27-2.46,31.52-4.57l16.11-4.71c.48-.14,19.83-8.16,21.71-10.47-7.33-7.91-5.36-17.62.14-24.85l1.37-10.94c5.9-1.47,7.65-3.56,10.82-8.4,2.82-4.3,15-3.37,19.88-1.77,1.84.6,4.01,7.2,2.22,7.93-8.42,3.44-14.66-2.68-21.16,5.19-2.36,2.86-2.9,8.31-4.35,12.66-1.75,5.25-2.96,9.16-.52,14.31,3.85,8.12,13.93,18.42,18.07,17.83,2.27-.33,6.31-2.84,8.94-4.15l10.81-2.26,10.19-5.12c3.18-1.6,8.69-6.92,10.96-9.56,2.37-5.69,5.12-11.51,10.48-16.09l.35-17.33c.04-1.84,2.78-5.39,4.36-6.67-10.47-21.24,6.35-26.53-.41-58.79-1.25-5.95-9.11-12.52-.56-17.87l6.08,13.42c8.59,18.96,6.13,25.83,5.64,47.6ZM588.05,898.09l5.07-7.88-.21-39.02c-.01-2.38,3.58-7.06,3.73-9.34l2.83-43.62,4.75-14.62c1.77-5.44,3.3-14.75,4.34-20.08.47-2.39,4.18-6.99,3.94-9.5-.67-6.84,1.88-12.22,3.64-18l4.83-15.88c1.64-5.41,3.08-10.49,4.94-15.44l5.35-14.26c2.97-7.92,8.63-18.41,9.39-20.55,1.58-4.46,2.35-9.06,4.25-12.59,4.91-9.12,7.2-19.8,12.65-28.67,6.23-10.14,11.08-19.88,16.37-30.92,2.71-5.66,31.08-49.34,34.56-53.06,3.14-3.35,5.22-5.53,7.92-9.06,7.41-9.67-1.21-17.15,3.3-18.12,1.08-.23,3.58.33,4.2,1.24l2.64,3.9c8.05-7.29,16.09-15.27,25.26-22.52,5.78-4.58,16.46-9.89,16.62-18.74.04-2.25-5.37-3.83-6.73-2.77l-4.27,3.34c-16.45,6.93-44.75,41.5-56.23,57.06l-8.75,11.86c-5.25,7.12-10.95,13.6-15.18,21.17l-22.07,39.52c-11.02,19.72-10.3,13.36-19.35,39.32-1,2.87-3.8,7.4-5.51,11.04-1.87,3.98-2.78,8.83-4.21,13.14l-4.99,15.09c-2.83,8.55-8.85,13.71-8.39,23.6.19,4.08-2.98,8.18-3.72,10.96l-5.07,18.85-4.61,17.56-5.13,19.43c-1.23,4.66-1.09,11.38-1.36,16.9l-4.66,5.31c2.6,30.59-7.36,26.93-4.85,45.51.86,6.4-2.2,12.59-2.96,18.18-2.8,20.38-1.64,40.17-2.19,61.51-.09,3.51,4.84,7.63,9.46,9.05l.41-38.89ZM1373.55,531.49c.21-8.56-1.66-17.41-9.35-17.75-3.23,2.67.49,9.43,2.57,13.21l3.29,5.99c.54.98,5.53-.57,3.49-1.44ZM833.27,571.76l38.95-1.59c-7.37-6.66-12.67-12.62-19.81-17.4l-11.78-7.9c-16.77-11.24-44.59-26.75-63.69-9.02l19.2,2.31,9.86,5.39c1.4.77,24.76,22.53,27.27,28.21ZM1384.07,535.48l-2.18-7.16c-.31-1.02-4.48.2-5.3.78l2.4,14.68,2.39-5.11c.4-.85,2.97-2.26,2.7-3.18ZM868.78,556.57l13.45-14.25,2.69-2.79c.64-.66-1.65-2.75-2.33-2.13l-2.4,2.17c-6.88,6.21-9.1-1.42-20.48,9.35l9.08,7.65ZM891.65,1318.17l-24.91-1.79c-1.25-1.57-3.76-4.67-4.25-3.49-.39.94-1.93,5.47-1.31,6.85,2.62,5.9,16.16,7.02,23.86,7.8s14.68,5.59,22.75,3.86c5.75-1.23,11.04,3.53,15.7,4.07,9.24,1.08,19.85,1.23,28.13,1.53l5.62-7.36c1.75,5.82,2.28,9.21,4.17,11.97,2.41,3.52,10.99.98,10.41,2.76l1.68-5.17c.42-1.28,4.66-1.23,4.13.22l1.22,6.14c.18.91,3.56.04,3.8-.91l1.76-7.12,17.49,13.53c7.21-.93,13.98,2.93,19.69,3.4,33.5,2.76,65.94,1.21,99.56,1.88,6.67.13,11.41-3.57,17.65-3.95l32.37-1.98c3.39-2.29,7.81-4.88,12.71-4.14,7.8,1.18,13.25-2.43,19.47-3.84,6.71-1.52,12.78-2.84,18.99-4.73l16.32-4.97c3.37-1.03,10.49-1.07,13.48-2.35l11.4-4.88c15.3-6.56,12.8-2.79,34.63-14.47l19.64-10.52c6.49-3.47,13.82-6.56,19.79-10.55l26.31-17.54c10.28-6.85,19.77-16.25,28.66-25.3,19.7-20.07,37.63-36.25,51.92-59.23l6.88-11.06c10.79-17.36,19.2-35.63,28.48-54.12,2.16-4.31-2.9-10.4,4.89-13.15,4.85-1.71,4.62-9.58,6.22-14.07l4.55-12.77,5.31-15.96c8.64-25.95-2.1-15.82,7.73-24.95l1.24-24.82c8.21-3.99,2.71-19.48,5.37-39.02.46-3.38,3.98-9.39,3.99-13.26l.18-109.64c0-5.22-2.71-9.64-3.91-14.6-2.1-8.65-.91-20.95-1.84-29.29-8.32-3.43-2.08-21.38-5.6-35.87-4.59-18.88-4.57-26.36-9.67-43.31l-4.93-16.4-4.5-14.06c-2.89-9.02-9.11-17.86-12.43-26.59l-4.93-12.97c-1.56-4.1-3.93-7.52-6.29-11.36l-7.92-12.93-8.35-14.11c-6.46-10.91-12.82-20.9-20.89-31.29-9.06-11.65-15.22-30.3-35.53-47.22-1.62-1.35,1.75-9.36-4.95-7.68l-.02,17.89c15.4,12.81,4.73,9.42,22.47,25.39,2.58,19.15,26.33,19.87,21.25,26.96l-3.73,5.2,11.09,15.89c2.98,4.27,5.58,8.68,8.05,13.21l11.96,21.96c4.6,8.44,8.01,17.88,11.85,27.28l8.62,21.08c2.66,6.5,8.33,23.68,9.55,28.92l4.62,19.89c1.75,7.53,1.62,17.78,2.56,25.72.29,2.45,3.63,7.85,3.6,10.39-.14,11.73.92,23.39,3.05,34.02,4.61,23.01.36,47.71,2.25,72.77l4.62,5.66c-1.17,16.92,1.92,35.21-1.37,52.06l-4.76,24.33c-1.01,5.17-2.92,10.67-3.42,16.42-.48,5.56-2.61,10.75-3.84,15.65l-4.8,19.27c-1.42,5.7-3.15,10.15-5.14,15.54-1.09,2.95-1.35,9.5-2.63,12.05-.86,1.73-4.26,4.73-3.34,5.89l3.37,4.3c-1.31,2.26-2.92,5.54-4.08,8.65l-5.34,14.33-4.8,16.68-4.94,12.66-4.87,12.52c-1.23,3.17-4.64,8.57-7.04,11.45-5.84,7.03-9.06,14.73-13.54,22.17-5.07,8.41-14.08,16.06-20.22,24.17l-9.65,12.76c-3.52,4.65-5.36,6.77-9.64,10.33-20.6,17.14-28.68,30.3-48.22,44.43l-21.33,15.43c-17.93,12.97-23.46,11.41-26.43,12.83l-24.45,11.69-26.98,10.88-12.59,4.88-17.71,2.22c-4.98.62-8.41,3.09-13.22,3.64-23.69,2.72,5.65,4-41.01,4.7-3.66.05-9.6,3.75-13.22,4.16-10.33,1.16-24.2.81-33.88,1.04-2.16.05-6.56,3.62-8.43,4.02-21.76,4.61-29.37-8.77-39.9-1.68-5.24,3.53-7.97-.03-12.97-.53-16.4-1.66-34.12-1.9-50.83-2.1-.24,4.83-5.12,11.83-8.88,9.78-1.55-4.44-2.45-9.64-4.91-11.88-8.07-7.35-10.57,2.17-25.56-6.74l-7.54,3.39c-1.44.65-4.76-3.72-6.52-3.69-37.12.7-10.93-7.38-48.85-4.9-4.78.31-10.1-3.98-14.22-4.28ZM1246.26,579.85c10.56-13.57,29.32-22.81,42.3-29.8,2.07-1.11,4.77-3.79,8.52-6.91l-11.16-.29c-5.81,4.18-11,3.93-18.25,4.75-17.41,1.97-51.47,39.56-40.47,37.36.8-.16,2.34-.33,2.88-.9.37-.39,1.01-1.17,1.96-2.35l14.22-1.87ZM1242.39,554.39c-4.29-4.89-9.23-7.27-14.47-6.91l5.4,14.22,9.07-7.31ZM635,1144.4c-4.84-6.82-7.83-13.76-9.02-22.33-.45-3.25-3.92-9.05-5.08-12.22l-5.23-14.32c-3.92-10.74-5-9.53-9.24-23.31l-4.83-15.69c-1.53-4.96-4.33-9.73-3.8-15.94.9-10.63-.82-20.29-4.76-29.37l-.22-22.78-4.77-4.39-.2-38.69c0-.98-2.35-4.43-2.71-3.74l-1.62,3.11c-1.32,2.53-3.28,5.49-5.27,7.79l.96,58.24c8.32,12.42.25,19.17,8.18,24.72l1.46,17.71c3.42,4.46,4.63,7.82,4.27,13.71-.31,5.02,2.41,9.69,3.72,14.01l4.78,15.68c1.35,4.44,2.82,8.67,4.64,12.67l5.44,11.93,3.33,10.72c3.07,9.91,9.51,17.7,15.15,27.05l5.88,9.75c.98,1.62,1.32,7.27,3.18,7.08l6.31-.66c8.34-.88-7.82-26.88-10.54-30.72ZM765.09,1275.9c-6.07-4.85-11.85-7.14-18.8-9.64-2.2-2.8-6.08-6.83-9.38-9.27l-24.54-18.16-26.93-24.37-10.75.52,6.56-8.52-9.35-2.97c-1.03-6.37-4.47-8.43-10.55-10.79l4.2-3.61c.78-.67-1.19-2.87-2.21-3.42l-12.06-6.43.93,14.46,8.9,3.4c.26,3.5-.14,7.11,1.37,7.35l7.34,1.19c.61.24-1.26,4.74-3.19,8.68l9.68,1.24c-.29,3.49.86,6.99,3.84,8.45,10.83,5.32,18.67,14.54,26.15,22.85,2.98,1.53,7.24,4.36,10.96,6.87l9.37,6.31c13.9,9.37,26.36,18.25,41.04,25.94,6.36,3.33,11.77,10.91,21.11,5.12-.24-12.49-9.95-4.22-23.68-15.19ZM844.8,1307.74c-3.78-.37-6.47-2.02-9.78-3.73-24.38-12.57-7.16-1.04-25.41-10.44-1.7-.87-5.91-.08-6.22,1.67-.25,1.41-1.43,5.85-.07,6.27s5.14,1.1,6.74,1.76l13.41,5.53c5.09,2.1,10.41,3.47,15.29,5.01l13.16,4.16c1,.32,4.16-.42,4.23-1.47.27-4.13-4.16-8.05-11.35-8.75Z"/>
    <g>
      <path class="st2" d="M1429.44,535.92c-4.71.21-9.6-8.14-10.03-12.67l2.59-2.92c.46-.52-.92-2.75-1.61-2.75-5.06-.05-4.07,7.12-6.23,4.86l-2.8-2.92c-24.59-25.63-30.9-28.16-56.98-50.39l-1.81-9.05-13.39-1.19c-3.7-6.21-8.38-7.85-13.95-10.92l-47.21-25.97-21.04-10.55c-15.46-7.75-7.4-2.99-23.04-9.36l-11.79-4.81-12.54-4.96c-3.49-1.38-8.2-3.98-11.31-5.01l-14.22-4.68c-5.54-1.82-10.64-2.13-15.55-5.36l-15.58-2.25-19.41-5.01c-4.83-1.25-10.49-4.15-15.81-3.12-6.12,1.18-10.04-3.01-14.57-3.9-12.62-2.48-26.31-.61-39.23-1.72-8.7-.75-16.7-.63-25.44,0-21.31,1.56-42.65-1.02-63.76,1.71-4.15.54-8.9,5.26-14.53,3.99s-10.44,2.71-15.98,3.38l-20.27,2.45c-5.26.64-9.09,3.64-14.37,3.51-4.89-.12-7.89,1.2-11.17,4.24l-14.59,1.65c-7.28,5.21-15.9,3.76-29.32,10.16l-31.09,14.82-8.01,3.93c-9.01,4.43-16.63,11.23-25.96,14.95l-12.75,5.09-24.68,18.09c-3.25,2.38-7.75,4.91-10.35,7.05l-29.02,23.83c-9.3,7.64-17.52,17.06-24.95,25.51l-31.63,35.99c-5.27,6-9.42,11.87-14.67,17.75-2.51,2.81-4.37,6.23-6.33,9.65l-9.39,16.42-8.16,9.08c-.4,16.72-1.32,7.7-10.58,29.95l-8.12,19.49-4.4,11.11-5.07,11.54-12.2,28.94c-2.32,5.51-8.61,21.42-9.76,28-1.24,2.05-3.65,5.74-4.58,8.59l-5.26,16.25-4.76,15.44c-8.92,28.94,2.32,16.71-7.77,32.65l-1.38,22.6-7.23,1.75c-2,.49-1.1,47.61-4.03,63.41-2.24,12.03-3.89,20.63.23,33.04,2.67,8.04,2.44,21.62.8,30.23-.78,4.08-3.26,8.02-3.17,12.67l3.06-3.44,2.38,25.03c.17,1.79,3.29,6.42,3.31,8.51.11,10.53-.06,26.04,2.21,37.2.67,3.3,3.38,7.57,2.97,10.99-.67,5.59,1.5,9.23,4,13.09l2,18.02c9.27,14.06-1.42,5.89,7.27,24.96,1.78,3.9,3.67,8.35,5.29,12.49l4.76,12.19c.24.61,9.49,22.63,7.78,19.89l13.99,22.43c2.01,3.23,3.72,9.26,5.74,11.92,16.54,21.82-.14,16.4,15.43,22.29,1.58.6,1.57,5.6,2.77,7.08l17.77,21.87c5.41,6.66,9.89,12.15,18.08,15.53l4.31,7.31c9.25,2.15,14.64,9.79,13,19.91l13.1,1.32c4.35,5.55,8.07,7.95,13.7,11.45,4.87,3.02,10.36,9.97,14.62,13.06,5.3.57,14.9,5.46,18.51,8.98,18.91,18.45,25.91,15.03,29.02,27.21.28,1.1,1.99,3.46,2.26,4.37.35,1.14-2.27,2.47-3.96,4.8-1.11,1.54,4.8,3.31,6.84,2.98,6.41-1.05-.35-13.72,8.96-9.51,6.36,2.88,11.33,14.87,7.56,22.87-5.91-1.66-9.47-6.13-10.2-11.79-1.53,1.24-8.82,4.72-10.76,2.72l-8.88-9.18c-5.34.3-10.16-.93-14.63-3.63l-14.32-8.64c-8.94-5.4-19.02-11.13-27.55-18.37l4.63-8.07-14.85-.88c-8.52-3.96-14.11-13.25-21.55-17.75-12.76-7.72-20.64-19.4-29.62-29.59-6.35-7.2-12.34-14.18-18.12-21.83l-11.51-15.25-9.58-15.04-6.52-9.54c-4.8-7.03-10.19-14.42-14.07-22.01-1.85-3.63-1.58-8.43-5.14-11.38l-.76-11.85-8.29-2.49-1.84-15.87c-9.03-18.31,1.68-3.14-10.16-29.15-3.28-7.21-3.98-13.46-4.17-22.23-1.79-4.31-7.37-12.51-8.49-16.94-1.04-7.87-1.08-13.33-4.81-20.12l-1.87-16.95c-7.16-11.47-1.08-3.32-6.58-27.28-2.57-11.21-4.59-63.48,1.73-57.61l-3.54-3.29-1.56-10.88c-.24-1.69-2.52-5.05-3.08-6.63-.68-1.9,3.29-5.94,3.38-8.33l1.8-45.99c.26-6.67,5.67-11.65,3.79-20.07-1.02-4.57,1.66-8.94,3.75-12.62,1.95-3.43.61-12.44,2.07-16.22,2.91-7.55,4.15-13.36,5.72-21.28,1.01-5.1,2.97-10.25,3.06-16.18.07-4.49,3.06-9.78,3.82-13.74,1.85-9.7,2.93-20.99,10.59-30.16.47-20.96,4.07-15.73,13.5-42.08l5.05-14.09,5.07-14.16,4.26-12.27c2.68-7.71,6.71-14.81,10.13-22.51l4.63-10.43c3.99-9,9.22-16.68,14.25-25.19l3.3-5.58,11.1-15.46c3.36-4.68,6.46-9.32,9.44-14.39l10.96-18.63c4.02-6.83,7.73-12.96,14.16-17.84l3.2-7.2c19.1-14.85,4.4-11.2,21.3-16.4,1.71-.53,1.04-6.19,2.36-7.55,4.71-4.83,12.54-11.69,18.22-15.41,5.95-3.9,10.7-8.5,16.25-12.7,6.89-5.22,13.53-10.02,20.14-16.2,2.74-2.56,6.64-6.16,9.51-8.05l16.64-10.94c3-1.97,10.87-2.14,12.77-4.91,2.39-3.49,7.55-5.16,9.74-7.31,7.28-7.16,15.49-11.88,25.05-15.87l27.89-11.65,11.29-4.46c3.43-1.35,8.96-4.13,12.09-4.88l18.96-4.49,19.42-4.95c8.22-2.09,16.09-2.45,24.27-5.46l16.91-1.79c11.5-9.12,13.3,1.47,27.49-8.69l128.78-.06c4.17,0,8.47,1.72,10.79,4.07l24.9,1.2c2.77,2.9,6.67,4.79,10.87,4.42,7.81-.68,12.85,1.77,19.88,3.09l16.17,3.03,13.89,4.65c26.15,8.75,5.23-1.8,30.95,10.13,18.86,8.75,6.41,2.48,20.49,7.94l30,15.18,14.41,6.6c3.42,1.56,9.62,2.74,12.48,4.72l13.4,9.24c3.73,2.57,8.05,3.56,13.1,4.76l1.05,13,18.34.42c.92,8.25,5.65,9.56,13.34,10.77,4.27.67,9.12,9.38,13.03,11.5,4.7,2.55,8.66,3.57,12.12,7.59,1.87,2.17,7.75,3.8,9.75,5.8l29.08,29.07c2.73,2.73,3.68,9.13,8.19,12.6,15.02,11.54,20.55,23.9,26.66,25.94-6.23-2.07,3.63,10.81,3.99,11.28l8.45,11.06c3.35,4.38,6.36,9.51,9.26,13.87,3.93,5.91,7.51,10.34,9.49,17.06,4.51,15.27,6.55,10.9,14.09,25.61l5.44,10.63,5.32,13.42c2.91,7.34,6.68,11.75,8.87,18.94,1.38,4.52,3.4,9.52,5.24,14.11l5.26,13.13c7.26,18.11-1.11.81,6.62,23.34l5.31,15.49,5.08,14.58,1.67,19.56c1.46,2.55,4.07,6.7,4.06,9.31l-.09,38.64,4.8,4.37c-1.96,25.1,5.01,28.79,4.95,40.58l-.57,117.51c-.04,7.24-6.88,13.93-4.19,23.41,1.78,6.26-1.42,13.56-3.89,19.54l-2.25,17.64c-.84,6.62-3.41,11.74-4.86,18.51l-5.17,24.16c-3.1,14.47-9.1,25.19-14.41,40.28l-4.36,12.38c-4.11,11.67-10.23,23.63-16.5,33.6l-17.78,28.24c-8.7,13.83-16.57,21.52-27.56,33.19-2.94,3.12-4.98,6.78-7.71,10.51-7.57,10.33-17.42,19.13-26.73,28.39-8.36,8.32-16.36,18-26.42,24.45l-24.25,15.54-11.76,7.57-32.59,20.31c-24.71,15.4-32.2,22.96-63.32,33.82l-15.37,5.36-5.75,2.56-22.77,8.48c-4.37,1.63-10.43,2.4-16.11,3.53l2.69,1.98c5.31,3.92-8.24-3.16-15.66,5.25l-14.42,1.66c-3.71,2.77-7.47,4.76-12.26,4.3-6.96-.67-11.8,2.55-17.84,3.12l-34.1,3.25c-3.04.29-8,2.94-10.82,2.98l-30.13.44c-10.83.16-21.17.66-31.98,0-16.64-1.01-33.5.62-50.43-1.44-8.07-.98-15.98-5.37-25.23-3.29l-14-6.7c-1.4-.67-3.79-4.45-5.16-3.92-1.97.76-5.09,2.1-7.32,3.16l-5.07,2.39c-1.34.63-3.53-2.71-5.03-4.36l-17.6-1.36c-17.28-10.6-8.33,1.65-31.13-8.01-4.37-1.85-10.83-1.21-15.71-4.84l-13.19-2.37c-6.41-2.1-12.32-3.25-19.13-4.84-4.71-1.1-9.66-4.6-15.96-3.65-5.56.85-11.02-1.02-14.35-3.86-1.27-1.08-6.09-1.04-6.33-2.5s-1.09-4.73-1.11-7.45c-.01-1.93-4.7,2.13-6.21,3.36-2.18,1.77-7.89-.09-9.78-2.17-2.23-2.46-3.68-10.18-2.27-13.78,2.93-7.51,11.81-.67,15.93.76l14.68,5.09c4.91,1.7,12.46,3.22,18.03,4.67l17.89,4.68c5.16,1.35,9.7,2.74,13.97,4.8l4.69-2.01c1.47-.63,4.69,1.78,6.75,2.34,5.41,1.46,13.31.92,18.47,2.67,2.77.94,7.21,3.77,9.57,3.76,8.25-.04,16.23-1.03,22.01,1.64,7.22,3.34,15.2,2.18,22.88,3.65,9.34,1.79,16.58,6.49,27.72,3.62,3.38-.87,9.37,2.95,12.27,4.69l19.2,1.52c2.41,2.36,6.84,4.65,8.74,3.28,3.42-2.46,6.53-4.17,9.04-4.63,2.25-.41,6.12,3.74,8.4,5.25l80.02.19,7.06-4.63c30.16,2,27.06-5.66,38.24-5.31,6.04.19,10.99-2,16.25-3.25l22.25-5.24c6.57-1.55,12.56-1.77,18.18-4.74l12.86-2.29c3.46-2.44,7.05-2.93,10.98-4.5l22.6-8.99c7.96-3.16,16.53-6.61,24.4-10.81l31.82-16.99c4.12-2.2,8.85-5.56,12.66-8.05l18-11.78,11.63-7.83,14.26-9.89,20.35-14.82c10.08-7.34,18.28-17.89,27.69-26.08,17.15-14.94,30.53-31.3,43.22-50.29,10.75-16.08,21.92-31.34,30.94-48.91l9.93-19.36c1.15-2.24,2.2-7.04,2.93-10.26,9.83-9.69,10.85-32.42,17.56-38.69l1.56-22.92c8.48-.24,1.47-15.27,5.39-27.89,1.62-5.21,5.12-9.97,3.69-15.7-1.98-7.96,3.87-14.48,4-20.74l1.2-58.31,3.46-17.34c5.14-25.74,2.19-52.41-.37-77.45-.58-5.66-6.66-14.11,1.53-20.06-7.49-1.3-4.39-21.62-6.15-36.99,1.44,12.6-8.83-41.75-7.31-25.66l-1.98-21.09-5.57-12.34-4.7-10.42c-4.89-10.85-3.56-12.13-9.46-24.46l-5.1-10.65c-1.43-2.98-3.26-7.36-4.8-10.2l-16.1-29.65-8.16-14.15-10.24-19.6-10.97-18.52-14.53-23.61-9.01-13.99c-.82-1.27-2.82-4.96-1.88-5.94l3.84-4.02c.36-.6-.53-3.06-1.33-2.66l-5.47,2.73Z"/>
      <path class="st2" d="M891.65,1318.17c4.12.3,9.44,4.59,14.22,4.28,37.91-2.48,11.73,5.6,48.85,4.9,1.76-.03,5.09,4.33,6.52,3.69l7.54-3.39c14.99,8.91,17.49-.61,25.56,6.74,2.46,2.24,3.36,7.44,4.91,11.88,3.76,2.05,8.63-4.94,8.88-9.78,16.71.21,34.43.44,50.83,2.1,5,.51,7.72,4.07,12.97.53,10.53-7.09,18.13,6.29,39.9,1.68,1.87-.4,6.27-3.97,8.43-4.02,9.68-.23,23.55.12,33.88-1.04,3.62-.41,9.55-4.1,13.22-4.16,46.66-.7,17.32-1.98,41.01-4.7,4.81-.55,8.24-3.02,13.22-3.64l17.71-2.22,12.59-4.88,26.98-10.88,24.45-11.69c2.97-1.42,8.5.13,26.43-12.83l21.33-15.43c19.54-14.13,27.61-27.29,48.22-44.43,4.28-3.56,6.12-5.68,9.64-10.33l9.65-12.76c6.14-8.12,15.15-15.76,20.22-24.17,4.49-7.45,7.71-15.14,13.54-22.17,2.4-2.89,5.81-8.29,7.04-11.45l4.87-12.52,4.94-12.66,4.8-16.68,5.34-14.33c1.16-3.11,2.77-6.39,4.08-8.65l-3.37-4.3c-.91-1.17,2.48-4.17,3.34-5.89,1.28-2.56,1.55-9.1,2.63-12.05,1.99-5.39,3.72-9.84,5.14-15.54l4.8-19.27c1.22-4.91,3.35-10.09,3.84-15.65.5-5.75,2.41-11.26,3.42-16.42l4.76-24.33c3.3-16.85.2-35.14,1.37-52.06l-4.62-5.66c-1.88-25.05,2.36-49.76-2.25-72.77-2.13-10.63-3.19-22.28-3.05-34.02.03-2.54-3.31-7.94-3.6-10.39-.94-7.94-.81-18.19-2.56-25.72l-4.62-19.89c-1.22-5.25-6.89-22.43-9.55-28.92l-8.62-21.08c-3.85-9.4-7.26-18.84-11.85-27.28l-11.96-21.96c-2.47-4.54-5.07-8.94-8.05-13.21l-11.09-15.89,3.73-5.2c5.08-7.09-18.67-7.81-21.25-26.96-17.73-15.97-7.06-12.58-22.47-25.39l.02-17.89c6.71-1.68,3.33,6.33,4.95,7.68,20.31,16.92,26.47,35.57,35.53,47.22,8.08,10.39,14.43,20.38,20.89,31.29l8.35,14.11,7.92,12.93c2.36,3.84,4.73,7.26,6.29,11.36l4.93,12.97c3.32,8.73,9.54,17.56,12.43,26.59l4.5,14.06,4.93,16.4c5.1,16.95,5.07,24.43,9.67,43.31,3.53,14.49-2.72,32.43,5.6,35.87.93,8.34-.25,20.64,1.84,29.29,1.2,4.96,3.92,9.38,3.91,14.6l-.18,109.64c0,3.87-3.53,9.88-3.99,13.26-2.67,19.54,2.83,35.03-5.37,39.02l-1.24,24.82c-9.83,9.13.9-1-7.73,24.95l-5.31,15.96-4.55,12.77c-1.6,4.49-1.37,12.36-6.22,14.07-7.79,2.75-2.73,8.84-4.89,13.15-9.28,18.49-17.69,36.76-28.48,54.12l-6.88,11.06c-14.28,22.98-32.22,39.16-51.92,59.23-8.89,9.06-18.38,18.45-28.66,25.3l-26.31,17.54c-5.97,3.98-13.31,7.07-19.79,10.55l-19.64,10.52c-21.82,11.69-19.32,7.92-34.63,14.47l-11.4,4.88c-2.99,1.28-10.12,1.32-13.48,2.35l-16.32,4.97c-6.22,1.9-12.29,3.21-18.99,4.73-6.22,1.41-11.67,5.02-19.47,3.84-4.91-.74-9.32,1.86-12.71,4.14l-32.37,1.98c-6.24.38-10.98,4.08-17.65,3.95-33.62-.67-66.06.87-99.56-1.88-5.71-.47-12.48-4.33-19.69-3.4l-17.49-13.53-1.76,7.12c-.23.95-3.61,1.82-3.8.91l-1.22-6.14c.53-1.45-3.72-1.5-4.13-.22l-1.68,5.17c.58-1.78-8,.75-10.41-2.76-1.89-2.76-2.42-6.14-4.17-11.97l-5.62,7.36c-8.28-.3-18.89-.45-28.13-1.53-4.65-.55-9.95-5.31-15.7-4.07-8.07,1.73-15.12-3.08-22.75-3.86s-21.25-1.9-23.86-7.8c-.61-1.38.92-5.91,1.31-6.85.49-1.18,3.01,1.92,4.25,3.49l24.91,1.79Z"/>
      <path class="st2" d="M1131.38,411.67c-5.82-1.66-17.21-.66-22.57-1.73-1.57-.31-5.6-4.33-7.25-4.32l-121.52.22c-10.06,9.15-22.52,2.02-33.08,6.18-4.69,1.85-8.12,3.13-12.88,4.41l-18.65,5.01-16.41,4.99-15.54,4.88-15.2,5.06-11.46,3.92c-6.6,2.26-13.98,6.88-20.41,8.72-4.74,1.36-8.03,2.27-11.26,3.97l-29.76,15.6c-2.62,1.37-6.76,4.31-9.36,6.29l-10.75,8.21-6.48-12.29c17.58-5.77,1.63-1.91,22.67-13.18,17.66-9.46,25.44-16.53,39.24-21.5l13.17-4.74c15.09-5.44,13.12-8.26,34.35-14.64l15.71-4.72c5.14-1.55,9.39-3,14.56-5.02l12.91-2.05c4.03-3.24,8.62-4.53,14.33-4.07,26.42,2.12-3.98-5.94,42.26-4.48,3.38.11,9.26-3.39,12.87-3.77,24.39-2.59,50.8-1.59,76-1.05l6.83,4.47,29.42-.04,7.88,4.55c9.29.62,19.92-.72,28.36,1.49,6.57,1.72,11.45,4.03,18.51,3.7,5.23-.24,9.28,1.56,14.12,3.94,3.28,1.61,11.7.44,15.19,1.89l13.19,5.47c3.07,1.27,7.05,2.16,10.87,3.8l32.59,14.03c.6.26,47.1,18.28,37.57,23.8l5.74-3.33,10.79,6.48,22.49,13.22c7.28,4.28,13.85,12.2,21.73,17.17,6.49,4.09,15.66,10.77,16.5,18.31-.03,1.98-5.57,3.57-7.1,2.5-1.78-1.24-3.28-5.86-4.15-8.73-7.78-.68-14.96-4.44-21.79-9.21l-10.01-6.99-28.81-18.29c-4.38-2.78-9.18-4.52-13.04-9.06l-11.27-2.23-8.46-5.53c-3.43-2.24-6.86-2.72-12.5-4.12-9.34-2.31-18.71-9.56-27.97-12.9l-12.62-4.54c-4.55-1.64-8.05-3.09-12.25-5.39l-12.79-2.05c-4.07-2.16-7.86-3.67-12.46-5.14-22.73-7.29-3.89.89-32.03-7.16Z"/>
      <path class="st2" d="M588.05,898.09l-.41,38.89c-4.63-1.43-9.56-5.55-9.46-9.05.56-21.34-.61-41.13,2.19-61.51.77-5.58,3.83-11.78,2.96-18.18-2.51-18.59,7.45-14.93,4.85-45.51l4.66-5.31c.26-5.53.12-12.24,1.36-16.9l5.13-19.43,4.61-17.56,5.07-18.85c.75-2.77,3.92-6.88,3.72-10.96-.47-9.89,5.56-15.05,8.39-23.6l4.99-15.09c1.42-4.31,2.34-9.16,4.21-13.14,1.71-3.64,4.51-8.17,5.51-11.04,9.05-25.96,8.33-19.6,19.35-39.32l22.07-39.52c4.23-7.57,9.92-14.05,15.18-21.17l8.75-11.86c11.48-15.56,39.78-50.13,56.23-57.06l4.27-3.34c1.35-1.06,6.76.52,6.73,2.77-.15,8.85-10.84,14.16-16.62,18.74-9.17,7.25-17.21,15.24-25.26,22.52l-2.64-3.9c-.62-.91-3.12-1.47-4.2-1.24-4.51.97,4.1,8.45-3.3,18.12-2.7,3.52-4.78,5.71-7.92,9.06-3.48,3.72-31.85,47.4-34.56,53.06-5.28,11.05-10.14,20.78-16.37,30.92-5.45,8.87-7.73,19.55-12.65,28.67-1.9,3.53-2.67,8.13-4.25,12.59-.76,2.14-6.42,12.63-9.39,20.55l-5.35,14.26c-1.86,4.96-3.29,10.04-4.94,15.44l-4.83,15.88c-1.76,5.78-4.31,11.16-3.64,18,.25,2.51-3.47,7.11-3.94,9.5-1.04,5.33-2.57,14.64-4.34,20.08l-4.75,14.62-2.83,43.62c-.15,2.29-3.74,6.97-3.73,9.34l.21,39.02-5.07,7.88Z"/>
      <path class="st2" d="M635,1144.4c2.72,3.84,18.88,29.85,10.54,30.72l-6.31.66c-1.86.2-2.21-5.46-3.18-7.08l-5.88-9.75c-5.64-9.35-12.08-17.14-15.15-27.05l-3.33-10.72-5.44-11.93c-1.82-4-3.28-8.22-4.64-12.67l-4.78-15.68c-1.32-4.32-4.03-8.99-3.72-14.01.36-5.89-.85-9.25-4.27-13.71l-1.46-17.71c-7.92-5.55.14-12.31-8.18-24.72l-.96-58.24c1.98-2.29,3.95-5.25,5.27-7.79l1.62-3.11c.36-.69,2.71,2.76,2.71,3.74l.2,38.69,4.77,4.39.22,22.78c3.94,9.08,5.66,18.74,4.76,29.37-.52,6.21,2.28,10.98,3.8,15.94l4.83,15.69c4.24,13.77,5.32,12.57,9.24,23.31l5.23,14.32c1.16,3.18,4.63,8.98,5.08,12.22,1.19,8.57,4.18,15.5,9.02,22.33Z"/>
      <path class="st2" d="M765.09,1275.9c13.73,10.96,23.44,2.69,23.68,15.19-9.34,5.79-14.75-1.79-21.11-5.12-14.68-7.7-27.14-16.58-41.04-25.94l-9.37-6.31c-3.72-2.5-7.98-5.34-10.96-6.87-7.48-8.3-15.32-17.53-26.15-22.85-2.98-1.46-4.13-4.96-3.84-8.45l-9.68-1.24c1.93-3.94,3.79-8.44,3.19-8.68l-7.34-1.19c-1.51-.24-1.11-3.85-1.37-7.35l-8.9-3.4-.93-14.46,12.06,6.43c1.02.54,2.99,2.75,2.21,3.42l-4.2,3.61c6.08,2.36,9.52,4.42,10.55,10.79l9.35,2.97-6.56,8.52,10.75-.52,26.93,24.37,24.54,18.16c3.3,2.44,7.18,6.47,9.38,9.27,6.95,2.5,12.73,4.79,18.8,9.64Z"/>
      <path class="st2" d="M844.8,1307.74c7.2.7,11.63,4.63,11.35,8.75-.07,1.04-3.23,1.78-4.23,1.47l-13.16-4.16c-4.88-1.54-10.2-2.91-15.29-5.01l-13.41-5.53c-1.6-.66-5.39-1.34-6.74-1.76s-.18-4.86.07-6.27c.31-1.74,4.53-2.54,6.22-1.67,18.25,9.4,1.03-2.14,25.41,10.44,3.31,1.71,6,3.36,9.78,3.73Z"/>
      <path class="st2" d="M1373.55,531.49c2.04.87-2.95,2.42-3.49,1.44l-3.29-5.99c-2.08-3.78-5.81-10.54-2.57-13.21,7.69.34,9.56,9.2,9.35,17.75Z"/>
      <path class="st2" d="M1384.07,535.48c.28.92-2.3,2.33-2.7,3.18l-2.39,5.11-2.4-14.68c.82-.58,4.99-1.79,5.3-.78l2.18,7.16Z"/>
      <path class="st2" d="M924.7,1113.95c.49-21.77,2.95-28.65-5.64-47.6l-6.08-13.42c-8.55,5.35-.69,11.92.56,17.87,6.76,32.25-10.06,37.55.41,58.79-1.58,1.28-4.33,4.83-4.36,6.67l-.35,17.33c-5.36,4.58-8.11,10.41-10.48,16.09-2.28,2.64-7.79,7.97-10.96,9.56l-10.19,5.12-10.81,2.26c-2.63,1.3-6.68,3.82-8.94,4.15-4.14.59-14.21-9.71-18.07-17.83-2.44-5.15-1.22-9.06.52-14.31,1.45-4.35,1.99-9.8,4.35-12.66,6.5-7.87,12.74-1.75,21.16-5.19,1.79-.73-.38-7.33-2.22-7.93-4.88-1.59-17.07-2.53-19.88,1.77-3.17,4.84-4.92,6.93-10.82,8.4l-1.37,10.94c-5.5,7.24-7.47,16.95-.14,24.85-1.88,2.31-21.23,10.33-21.71,10.47l-16.11,4.71c-7.25,2.12-23.06-.52-31.52,4.57-16.5-8.5-22.92,4.11-33.27-12.42l-7.48-1.42-10.98-12.59c.31-6.09-1.33-9.95-4.94-12.84l-.4-30.06c8.34-9.1,15.52-18.1,29.42-20.71,9.55-1.79,21.29,8.79,24.03,17.09,3.98,12.05-7.94,25.48-6.27,24.21-1.11.84-4.83,1.31-6.05,2.1-2.68,1.73-8.08,5.51-9.91,3.46l-10.89-12.13,8.8-4.91c-6.34-1.58-11.37-1.94-18.63-1.54l-1.23,13.25-2.22,1.5c-.81.55-2.89,3.61-1.91,3.72l5.67.62,11.41,9.93c2.75,2.4,7.67,4.75,11.1,6.08,3.34,6.39,7.66,13.96,13.07,19.85,2.42-3.9,3.18-8.25,1.53-9.98-2.36-2.47-5.78-4.78-9.87-7.68,2.04-4.47,9.75-7.82,14.46-11.02,5.51-3.74,8.21-6.63,15.92-8.15l-.31-22.21c-1.14-.94-4.92-3.21-4.22-3.9l3.9-3.86c-7.36-6.28-13.58-17.99-24.26-21.36-7.67-2.42-19.94-1.98-26.89.44l-14.79,5.16c-2.04,1.45-3.14,8.04-4.72,10.37s-29.85,10.08-37.19-9.61c-.49-1.33-3.37-4.24-3.38-5.21-.11-5.7,0-17.6.62-23.28,2.25-4.14,3.84-7.57,5.7-12.42l26.78-.45c9.39-.16,15.26-8.16,21.1-13.73l13.04-12.45c-1.88-3.36-3.5-6.41-5.28-10.09-7.41-15.35-1.59-22.29-6.84-22.32-2.36-.01-7.16,1.46-5.64,2.79,7.76,14.19,3.33,25.33.74,33.23-3.53,10.81-10.19,11.73-18.57,14.11-5.43,1.54-12.1,6.19-19.43.79-14.48-10.68-18.52-4.16-23.68-18.52-2.76-7.7-5.93-15.53-2.64-24.9l5.09-14.48c6.51-18.53,16.92-22.37,24.08-31.27,7.37-9.16,21.67-29.77,19.97-44.04l5.87,4.14c1.76,1.24,4.1-6.41,2.44-7.79s-4.1-1.97-9.46-3.99l7.62-3.64c2.32,5.27,4.86,6.73,11.26,5.86l2.63,10.14c1.83-2.29,4.78-5.38,6.72-5.38h16.52c8.38-5.15,14.37-12.97,20.76-20.32,5.63-6.47,1.53-15-.72-22.19-2.19-6.97-3.23-10.13-10.09-13.54l-4.32-2.15c-1.26-.63-3.27,4.69-2.48,5.83,1.99,2.83,7.76,7.83,10.18,10.48l.36,16.74-8.73,1.76c-1.56,4.95-2.58,8.06-4.49,11.28-1.46,2.47-19.25,8-32.6-6.35-1.37-1.47-6.9-1.86-7.05-3.57l-.73-8.29c-.29-3.29-2.27-7.35-4.24-9.65l-.55-21.44c-.22-8.75.1-16.67,4.02-24.65l2.75-5.59c.75-1.52,5.89-.84,7.24.15,2.35,5.05-1.44,12.62-3.92,17.66-2.18,4.43,1.37,11.86-6.83,12.27,3.5,3.21,6.31,5.72,6.69,8.01.42,2.53-2.84,6.04-5.53,7.88,3.27,2.71,7.76,6.85,11.22,9.15l11.25,7.5,7.02-7.9c-9.84-5.94-17.65-16.14-13.66-28.09,1.16-3.48,4.83-8.74,6.91-11.94l2.21,7.37c.7,2.34,13.06,1.72,13.78.32,2.2-4.25-11.25-18.75-2.8-32.56,4.47-7.3,9.65-16.24,16.35-19.5l9.62-4.69c2.42-1.18,1.95-7.56.34-11.03-5.66,5.06-9.95,9-16.05,11.93l-10.96,5.26-13.05,11.55-11.14,4.71-.41-6.92,27.26-26c5.74-.3,8.63-.18,11.12-5.56,2.67-5.77,12.9-7.18,17.27-10.27l14.68-10.39c5.36-3.79,10.88-9.83,16.61-14.51-.17-1.15-2.94-4.06-4.32-3.66s-4.17,2.23-5.08,3.35c-3.99,4.9-8.55,6-13.67,9.03l-30.84,18.3c-3.64,2.16-7.57,3.91-11.42,5.68l-7.2,3.31c-1.66.77-5.26-2.06-7.18-3.3l-11.4-3.55c.69-4.54-5.01-7.73-6.49-11.57l4.1-1.57c.85-.32.37-2.65-.58-2.86l-7.03-1.57c-2.56-.57,1.1-13.8-3.79-21.57l3.46-13.53c3.02-11.81,16.84-24.48,25.94-33.76,3.99-4.07,6.56-8,9.79-11.9,11.84-14.28,24.03-27.71,31.76-45.05.6-1.34.52-5.81,1.97-5.74l6.45.29c1.43.06.11,5.73.72,7.09,7.22,16,10.53,23.17,21.88,37.37l7.44-1.87-5.52-11.24-7.34-10.39c-1.27-6.7-5.21-13.97-8.88-19.2-2.11-3-1.43-10.99-2.92-13.98-9.1-18.24.52-15.06-8.6-18.34l-.28-45.72,12.61-5.9c3.18-1.49,9.44,3.34,11.47,6.28l14.05,20.37,8.82,12.78c4.05,5.87-.68,17.78,2.7,24.51,2.5,4.98,3.94,10.07,4.5,16,3,1.76,8.93,5.36,12.14,7.83,12.02,9.24,25.5,3.73,34.6-5.86,7.93-8.35,9.09-17.56,2.3-27.14-6.29-8.87-16.23-8.22-25.17-3.39l-4.28,2.32c-1.13.61-.33,3.87.78,4.5,3.8,2.15,7.08-1.58,13.15-4.54,1.78-.87,6.27,2.72,7.66,4.31,4.95,5.64,1.5,13.74-2.55,18.19-5.04,5.54-11.52,7.63-18.93,4.49-13.57-5.76-19.84-22.47-12.3-34.86,2.57-4.22,4.84-6.41,9.04-8.88,6.09-3.58,12.28-11.99,20.61-7.37,2.82,1.56,7.41,3.73,10.9,3.88l4.3.19c.97.04.76,2.66,1.12,4.22l.85,3.68c.14.62,1.6,1.54,2,1.04l2.67-3.36c1.95-2.45,5.16-6.35,5.14-8.9s-3.64-7.22-5.58-8.96l-4.68-4.22c-1.28-1.16.46-5.94,2.28-6.75,15.08-6.63,10.48-21.97,38.18-44.36,1.88-1.52,8.7-2.78,10.24-3.4,4.44,1.43,9.99,2.38,15.81,2.22,12.79-.36,10.44,9.5,38.24,3.72,24.76-13.29,19.9-23.77,50.67-38.12l13.51,7.01c1.47.76,3.75,3.59,5.18,3.4,1.79-.24,5.34-2.14,6.88-3.35l9.6-7.56c7.97-6.28,15.25-4.99,23.49.48,30.09,20,20.53,36.89,49.84,39.38l20.24,1.72c6.07.52,12.16-2.25,19.19,1.03,18.87,8.81,27.55,2.2,40.7,33.41l6.32,14.99-19.37,18.97-.49,13.19c27.54-16.47,13.22-6.61,32.87-11.38.79-.19.82-2.66,1.33-3.3.51-.63,2.51-1.01,3.1-.45s2.13,4.12,2.94,4.2c4.86.5,14.24,1.81,18.09,6.14,4.68,5.27,6.3,11.42,5.77,18.76l-10.9,1.91,11.39,5.06c-4.54,4.93-8.96,9.94-12.69,11.46l-10.35,4.23c-3.57-5.44-21.45.85-21.61-15.14,1.35-3.98,8.93-9.82,11.95-11.61l10.97,8.71c.64-4.27,1.06-8.65.69-11.46-.3-2.29-6.02-2.2-8.81-2.77-10.67-2.17-19.38,3.66-22.28,14.76-2.73,10.45,7.94,17.38,16.27,21.56,11.59,5.82,22.41,2.67,32.02-5.17,16.73-13.63,18.07-31.83,9.16-48.4l4.77-10.81c2.69-6.09,12.53-13.28,19.06-15.03l13.22-3.55c3.67-.99,11,4.25,14.73,6.93l.4,30.8-4.98,8.95c3.19,22.7-25.8,7.13-11.06,30.85l-4.98,10.64c-5.42,11.58-11.23,22.29-17.41,33.39-1.7,3.06-11.22,8.92-2.65,12.56,5.5,2.34,10.9-7.96,13.26-12.24l12.05-21.86,8.36-14.56c2.97,5.65,6.87,14.1,10.59,18.96l14.58,19.06c8.27,10.81,18.26,21.03,28.32,30.54,9.78,9.24,20.22,17.83,25.8,31.06,3.62,26.62,1.29,20.9-5.21,34.48-2.55,5.32-7.1,7.82-12.92,8.22l-1.04,8c-6.58,1.13-12.22,2.32-17.11,3.69-12.34-5.75-24.88-12.23-37.48-19.22-4.65-2.58-9.42-6.39-14.67-8.84l-11.84-5.53-9.19-8.09c-4.05,9.82,4.95,12.12,10.35,16.05,19.71,14.34,20.07,10.4,33.52,19.21l16.76,10.97c19.76,12.93,34.23,26.56,42.06,49.45.88,2.57,1.65,6.95,2.51,10.01l1.62,5.75c.27.97,1.55.74,3.74,1.53-.11,29.88,3.2,16.19-6.15,35.43-1.31,2.69-3.75,7.81-5.39,10.03-1.96,2.64-26,18.2-36.96,9.92-5.28-3.98-10.07-9.22-14.89-14.4l.34-15.93,9.83-10.84c.67-.74-.5-6.29-1.37-5.81l-5.06,2.79c-3.29,1.81-11.34,5.86-12.28,9.54-1.62,6.35-2.33,14.52-1.04,20.96,2.24,11.19,22.85,32.55,47.7,21.56l9.94-4.4c2.26-1,7.11-1.47,9.86-1.44l1.26,21.94,11.98,16.37c7.25,9.9,16.21,18.6,25.23,27.29,3.04,2.93,5.18,7.11,7.36,10.13,5.89,8.17,8.45,13.72,10.14,23.72.86,5.11,2.43,8.72.65,13.25-6.26,15.92-18.03,22.14-33.14,25.6-6.95,1.59-11.49,5.01-19.21.95-8.08-4.25-14.52-9.25-20.53-17.72-5.67-7.98-2.4-20.71,3.41-31.27-8.8-3.59-9.62,5.76-12,10.05-4.26,7.67-6.04,14.96-1.42,22.73,15.89,26.74,29.1,23.85,58.7,23.49l5.8,13.42c2.23,5.16,1.41,15.24,1.16,22.12-2.23,3.18-7,10.05-10.37,11.55l-12.65,5.62c-3.56,1.58-12.98,1.4-16.1-.95l-13.16-9.91c-5.98-4.51-11.8-7.15-18.41-9.76-8.37-3.3-12.45-3.31-20.59.68-4.08,2-11.02,3.24-14.53,6.84l-11.17,11.48c.77,17.18-5.22,30.71,12.9,40.49,14.25,7.69,2.2,6.67,28.16,5.87l11.56-11.17c2.22-2.14,4.51-23.51-6.85-22.81l-2.52,17.83c-14.11,6.08-25.86-3.03-30.22-15.74-.82-2.39-4.29-8.46-2.5-10.72,10.51-13.29,20.79-20.79,37.62-14.09,12.64,5.03,19.59,13.97,23.1,25.98,2.13,7.28,1.9,11.93-1.2,19.4-2.29,5.51-4.44,11.52-8.73,16.05l-9.86,10.39c-19.71,20.78-58.13,9.96-57.36,10.01l-22.81-1.63c-6-.43-10.62-4.03-17.25-4.21l-6.58-4.81c-5.92.75-12.45-2.55-13.45-6.95,9.94-14.91-2.92-37.76-20.43-43.87-13.96-4.87-2.76,1.04-19.63,2.73l-3.73,12.51c12.28,5.38,4.49-14.33,24.42-5.06,6.61,3.08,7.02,7.36,9.29,13.81,1.85,5.23,3.38,9.07.5,14.32-4.03,7.33-10.42,16.84-18.14,18.15-4.41.75-8.65-3.82-11.67-4.45-19.5-4.07-34.43-8.47-42.38-31.9-1.21-3.56-2.51-7.39-2.96-10.84l-1.66-12.98c-.73-5.7-6.25-33.88-2.59-40.9l3.92-7.52c.77-1.47-1.85-4.04-3.65-6.24,4-6.25,5.57-14.28,2.05-22.82-13.75,22.25-10.52,28.26-16.63,41.77-1.66,3.68-1.41,12.27.64,15.46,2.91,4.54.05,9.26.52,12.36l3.67,24.03c.78,5.13,7.51,11.51,2.65,18.01-3.83,1.73-12.48,1.11-17-.63-.7-2.15-1.72-7.91-3.14-9.24l-14.59-13.7c-4.5,4.25-6.87,5.09-11.77,5.86l-15.2,15.52,4.14,4.75c.94,2.36,8.25,5.01,8.85,2.35.76-3.37,1.48-9.56,3.25-11.49,2.29-2.49,11.17,1.64,11.92,4.82,3.18,13.45-1.11,14.37-4.91,23.52-5.5,13.26-19.91,15.26-29.69,20.3-10.54,5.43-16.82,1.7-26.24-.49-32.45-7.55-24.67-23.48-33.26-26.04-1.6-.48-5.1.48-6.27,1.7-6.53,19.37-31.12,17.93-32.38,18.51-9.64,4.43-15.47,6.29-25.66.64-8.6-4.77-15.64-9.67-18.81-20.01-2.72-8.87-5.11-23.66,1.02-30.34,4.48-4.88,11.53-5.76,16.9-2.83l-6.04,7.06c-1.24,1.46,2.62,5.99,3.75,6.67l1.01,1.96c.35.69,2.86.42,3.61.02,6.83-3.57,8.56-12,5.7-19.07-2.63-6.51-10.83-11-17.99-6.97-29.3,16.47-24.76,25.68-26.3,27.95-.78,1.14-5.75-.25-6.59-1.48-3.19-4.69-1.68-14.39.89-20.15,4.09-9.16,2.11-20.2,2.34-30.28ZM1067.32,553.41l20.43-9.33c6.24-2.85,10.44-6.68,13.66-13.02,6.66-13.1,3.12-28.16-7.23-34.11-7.04-4.05-13.12-5.5-20.17-.01-5.19,4.05-12.21,10.94-13.2,16.48-.41,2.28,4.65,9.54,8.67,9.85,1.63.13,5.41-2.04,5.64-2.72-2.51-3.23-4.29-5.24-4.78-7.19-.41-1.62,1.61-5.85,2.75-7.1,5.19-5.66,14.51-4.36,18.8.18,10.54,11.15-5.19,26.3-13.52,34.58-4.77,2.85-14.11,3.3-11.05,12.38ZM1024.96,503.9c5.13-2.02,13.16,4.93,11.57,10.43-.94,3.24-6.14,7.44-9.75,10.6,6.94,8.39,19.3-7.46,19.86-11.66.28-2.08-2.18-6.17-3.44-8.18l-4.26-6.81c-6.94-.12-16.2-.58-22.98.67-4.55.84-11.97,9.57-12.87,14.19-1.59,8.2-.97,20.01-.44,27.54l12.32,10.05,14.05,2.71c4.57,1.53,8.27,7.34,12.99.21l-14.95-8.85c-4.79-2.83-12.12-5.57-14.19-11.1-4.28-11.46.69-25.31,12.1-29.8ZM1016.52,562.76l-28.12-16.98-1.28-19.52c-5.16,4.41-8.26,9.09-10.23,14.74,7.66,12.13,16.69,21.9,29.02,29.95,2.97,1.94,11.53-4.5,10.61-8.19ZM1092.34,576.52l4.49-2.51c13.07-7.29,19.76-18.11,24.97-31.74,1.02-2.67,2.39-6.76,1.89-9.06-.43-1.97-7.79-1.59-8.12.36l-1.91,11.32-6.2,9.95c-25.94,14.01-16.63,22.51-15.13,21.68ZM907.86,676.24c-2.07,3.33-5.39,7.77-7.72,10.21l-15.55,16.24-16.89.43c-2.27.06-3.19,7.61-1.25,8.65l6.79,3.61c4.51,2.4,8.73,1.93,13.12-.29,14.8-7.48,24.07-18.52,32.45-32.14,17.88-29.07,11.86-25.11,18.35-39.25,6.04-13.15,12.48-25.65,20.99-37.3l10.6-14.51-8.2-.58c-6.93,7.96-14.78,15.76-22.73,23.09-4.08,3.76-9.05,9.34-16.74,5-4.2-2.37.85-13.05,1.86-17.99,1.96-9.53,6.67-13.9,14.47-17.67,5.86-2.83,12.97-10.01,21.31-7.26,2.36.77,7.73-5.08,7.22-7.4-4.51-20.5-11.39-29.83-35.59-37.28-4.15,1.85-9.36,4.2-13.27,6.25-7.83,4.11-8.7,16.67-6.26,23.37,1.77.33,7.07.23,7.34-1.25l.98-5.31c.85-4.59,3.88-11.82,8.4-12.55,9.1-1.48,21.66,5.11,21.67,11.33.03,11.39-23.46,23.16-38.46,45.26-9.73,14.32-25.11,46.82-42.87,51.44l-10.86,8.79-32.54-.04-5.33-5.09c-1.24-1.18-6.71,1.88-6.49,3.24,12.05,13.65,38.41,15.53,52.41,6.69,6.18-3.91,11.77-7.5,17.77-11.88l10.61-7.74,19.4-.12,7.8,8.82-10.45,8.69,4.18,4.06-6.52,10.48ZM1235.46,725.04c-9.74,7.45-18.56-.17-24.98-6.23-15.89-15.01-27.49-38.27-34.94-57.99-3.45-9.14-5.67-18.27,5.11-25.11,4.04,3.2,8.77,7.38,13.24,12l20.04,20.74c11.77.77,22.2.65,34.73-2.09l-21.06-3.36-8.19-4.94c-15.67-9.45-19.62-28.93-30.69-39.6l-1.69-9.39-16.65-22.02c-6.23-8.24-15.44-14.5-21.43-23.11l11.4-11.83c9-1.51,26.74-1.26,27.55,10.42.87,12.48-5.36,6.26-5.07,17.36.03,1.07,3.62,1.6,5.43,1.29,4.92-.83,8.49-7.85,9.4-13s-1.73-9.83-5.99-14.9c-3.63-4.31-9.6-6.17-14.83-7.82-1.49-.47-4.52-2.47-5.86-3.03-1.34-.56-3.77,3.39-5.44,3.5-10.38.73-30.17,15.52-37.54,24.14l-3.92,4.58c-.95,1.11,1.02,6.09,2.49,6.15l19.83.83,10.73,5.71c2.96,1.58,7.26,7.23,9.57,10.84,2.5,3.9,1.51,13.5.92,18.95l-6.96,8.16-14.45-14.8c-5.06-5.19-15.38-7.47-21.48-12.4-3.47-2.8-10.12-3.56-10.47.64,6.69,6.26,16.09,10.44,20.81,16.6,9.4,12.28,16.46,22.6,22.14,37.43l4.79,12.48,4.67,10.67,4.95,11.27c1.69,3.85,5.51,8.6,8.18,11.61,5.84,13.32,14.04,23.83,25.93,33.6,10.11,8.31,34.86,9.48,39.67-8.7-2-2.55-7.44-.57-9.94,1.34ZM990.58,672.57c9.84-7.45,15.54-28.9,15.64-29.95l2.26-24.36,4.45-14.19c1.07-3.41,5.59-7.51,9.06-11.46-.98-1.35-7.12-1.92-8.32-.07-12.28,18.97-15.4,15.33-17.33,30.91-.18,1.46-3.78,4.4-3.17,5.58l2.51,4.87-3.42,9.5c-3.75,10.41-10.98,19.05-18.55,28.91,3.97,1.57,13.36,2.92,16.87.26ZM1127.57,672.05c1.5-1.2,1.41-7.38-.22-7.53-14.39-1.32-22.37-9.31-29.21-23.16-7.48-15.17,2.26-3.98-6.66-23.02l-5.2-11.09c-2.11-4.51-6.26-8.79-11.57-5.87,9.98,11.78,2.07.93,8.71,25.94l5.36,20.17c.6,2.25,3.37,6.38,4.34,8.31,3.51,6.98,6.99,14.83,17.54,13,3.4,4.52,11.94,7.21,16.9,3.25ZM1051.06,679.4c.24-16.68.59-37.95-.57-52.37-.25-3.08-5.4-8.64-6.99-12.38l-5.33,16.74c-3.57,11.19-1.19,27.52-.61,39.66l4.88,11.23c.91,2.09,8.58.8,8.63-2.88ZM868.71,693.46c9.6-6.64,18.54-13.34,26.37-20.13.55-5.88,1.18-7.21,4.28-13.73l-12.26-.22c-3.4,13.96-13.84,13.66-26.77,26.01l8.38,8.06ZM947.56,708.65l18.22-4.49c5.71-1.41,14.49-.86,20-1.78l10.06-6.11c3.68-2.24,11.02-6.96,13.54-10.24l10.58-13.77c.79-1.03,1.81-3.96,2-5.08s-2.61-2.65-3.13-2.23c-5.38,5.48-12.66,15.02-18.94,17.03l-15.31,4.89c-33.18,10.61-27.87,2.46-47.9,14.58-4.08,2.47-8.47,3.71-11.62,8.19-4.03,5.72-10.21,10.91-4.67,18.31,12.01-9.95,10.94-14.98,27.16-19.31ZM1164.9,705.66c-2.35-4.67-5.23-7.41-9.68-9.06l-14.13-5.24c-3.98-1.47-8.39-2.88-13.15-2.71-4.37.15-8.72-3.29-11.93-3.83-27.25-4.58-32.34-19.79-39.06-20.13-.93-.05-1.84,2.79-1.31,3.56l1.98,2.91c7.67,11.27,18.39,19.36,31.86,23.51,23.91,7.37,19.47-.63,25.56,7.43l11.75,1.88,9.47,6.03c3.8,5.27,9.86,13.22,15.13,18.89,6.42-10.72-2.51-15.36-6.49-23.25ZM1225.82,702.93l.47-12.98-8.81-2.69-23.03-23.64c-4.67,7.25-2.1,12.61,2.56,17.63,17.88,19.29,6.87,9.22,28.81,21.69ZM722.86,735.17c-1.7,3.3-4.06,6.99-4.26,10.79-.24,4.46,11.93,20.5,25.32,14.6.66-1.03.54-4.88-.14-6.41-1.93-4.34-12.21-.91-13.41-3.74-4.63-10.9,10.89-24.6,15.58-26.63l12.1-5.23,31.68-2.19c8.42-.58,35.53-20.51,42.76-30.7-2.58-1.79-7.22-2.85-8.46-1.64l-4.07,3.97c-5.74.64-10.5,1.85-15.49,4.27l-11.23,2.23c-6.32,4.63-10.51,1.31-17.59.3l-22.67-3.24c-6.35-.91-9.95-4.6-15.69.06-3.4,2.76-5.59,4.87-9.2,10.32l15.52,1.94c4.35,21.36-5.32,1.38-20.76,31.3ZM1062.42,699.48c-8.05-4.16-9.22-.61-12.73,2.14-10.86,8.53-23.61-16.77-23.36,4.19.02,1.8,5.56,1.7,7.34,2.64,5.5,2.9,11.73,8.93,17.26,3.12l11.5-12.09ZM1366.11,743.56c-4.68-7.95-16.45-12.78-22.28-18.08-1.29-1.17.03-6.72,1.69-7.17,9.87-2.67,14.94,4,17.85-2.59l-11.79-12.64c-1.67-1.79-7.61,2.32-9.37,4.38l-23.12.86c-11.56,6.08-22.18,4.21-33.83.27-4.22-1.43-9.19-1.1-12.45-4.62l-10.77-1.59c-1.14-1.67-3.67-5.43-5.04-4.61l-5.44,3.29c7.25,11.75,38.67,29.33,48.16,30.03l30.86,2.3,13.59,4.79c7.05,2.49,15.57,11.18,18.33,18.2,2.82,7.15-7.97,10.21-12.29,10.23-1.55,0-2.07,4.53-2.2,6.81-.09,1.53,4.97,2.27,6.77,1.21l3.15-1.84c5.16-.91,9.77-2.95,12.99-6.41,3.13-3.37,2.95-9.64.87-13.17l-5.68-9.64ZM1038.05,746.19c3.68.64,10.08.54,12.7-.17-.13-11.67,9.48-15.55,17.52-19.75,19.34-10.1,13.52,4.19,27.01-11.49l-9.89-7.11-16.02,6.55c-2.7,1.11-8.65,3.4-10.79,5.11l-14.82,11.78c-3.71-11.54-34.63-23.55-46.78-17.45,6.59,17.36,23.82-2.56,41.06,32.53ZM802.04,869.21l-5.67-3.92-7.88-3.41c-.13-9.59-2.03-21.34.8-30.42l4.86-13.8c6.63-18.82,16.58-21.67,29.98-36.93l6.61,3.01c-3,3.19-6.38,6.73-8.04,10.08l-4.57,9.25-4.15,15.47c.74,3.63,11.85,1.4,12.02-3.4.43-11.91,9.14-18.19,13.8-26.63,8.52-15.42,17.98-34.55,22.75-49.67,1.18-3.74,5.38-7.22,1.91-11.83l-6.98,6.51c-1.24,14.01-10.11,23.38-20.83,31.02l-18.4,13.13c-10.56,7.54-18.89,12.37-22.38,21.79l-7.87,8.62c-1.06,22.57-14.67,17.8-8.64,47.97,1.74,3.84,3.09,6.81,4.67,11.17,1.77,4.88,7.63,6.27,12.97,6.94,9.15,1.16,19.47-1.25,20.41-11.83.52-5.79-.8-11.28-4.2-14.78s-9.39-4.4-15.2-2.48l.24,20.28c5.19-1.66,4.52-7.09,5.13-10.27.48-2.51,8.41-1.41,8.73,1.11,1.09,8.64-8.4,14.16-10.06,13.01ZM1275.5,867.43c1.59-5.52,8.43-8.71,13.86-10.5-2.63-3.31-9.92-4.51-12.83-1.39l-9.86,10.54c-1.01,1.08.89,12.93,10.63,18.75l5.62,3.35c1.32.79,4.69-2.61,6.56-2.97,13.02-2.49,22.48-15.16,20.49-30.21-.77-5.81-1.62-10.91-3.87-16.1l-4.87-11.24c-3.03-6.98-16.22-26.99-24.64-31.42-8.31-4.37-38.98-23.47-43.18-30.12l-14.87-23.56c-6.54-.98,7.92,27.58,6.99,25.73l11.24,22.23c3.13,6.19,8.48,12.3,12.82,18.08l10.36,13.81,1.54,10.27c.28,1.87,5.84,2.6,7.46,1.56,6.5-4.17-7-27.22-10.19-32.95l-2.51-4.52c-.46-.82,5.21-1.84,5.93-1.23l20.54,17.17c5.13,4.29,9.05,14.29,11.26,20.5l4.45,12.53c2.48,6.98,1.23,18.31.48,25.78l-10.59,5.96c-5.12,2.88-14.76-3.25-12.79-10.06ZM972,793.18c2.91.81,7.14-1.09,9.32-2.94,1.96-1.66,2.95-9.42,2.34-11.86l-1.79-7.13c-1.01-4.01-11.71,8.05-20.24,4.69-6.06-2.4-12.09-15.57-14.81-25.08-1.64,1.72-5.06,6-6.63,8.77l-5.85,10.34c8.08,2.64,25.78,7.72,24.94,19.66l12.73,3.55ZM996.41,765.49c-2.61-4.92-3.39-6.58-4.5-8.05s-6.29-.9-7.82.13c-1.54,1.03-1.24,6.56-.71,8.8l13.04-.88ZM888.45,784.78c6.5-6.67,13.09-9.97,22.1-8.46,3.6.6,11.12-4.76,8.5-7.37-10.49-10.44-20.25,9.22-40.95.15l-15,2.5c-4.53.75-2.72,12.87.75,16.22,8.46,8.17,16.54.25,24.6-3.05ZM1045.36,830.84c2.78-7.79-.51-20.31,1.47-27.52,10.63-9.71.44-36.24-9.76-35.52l-.79,43.58-.36,19.68c-.11,6.24.6,12.63,2.98,17.96l6.48-18.18ZM1135.77,782.89l14.06-9.15c-5.05-6.55-9.31-1.46-12.98.73l-10.07,6c-3.78,2.25-10.43-.66-14.16-3.36l-12.15,5.75c-2.32,2.16,2.08,9.16,4.74,11,13.14,9.07,25.72-7.81,30.56-10.97ZM1215.32,775.01c-5.88,8.89-13.09,6.8-20.34,2.82l-10.1-5.56c-3.71-2.04-12.73-1.61-16.2.66-1.34.87-.93,6.81.65,7.02,21.17,2.89,32.99,19.06,41.66,17.98,5.99-.75,11.7-6.62,11.67-11.03-.02-3.55-2.89-7.19-7.33-11.89ZM955.39,845.08c4-3.19,7.51-6.68,8.07-9.82.82-4.63,1.2-11.34-4.03-12.7l-1.43-14.44-7.35-9.68c-1.67-2.2-7.6-6.34-10.25-7.16l-22-1.61c-1.83-1.91-3.28-3.54-4.62-3.06-1.17.42-4.49,2.62-5.57,2.81l-12.61,2.23c-.32,3.88-1.06,12.28-.04,15.98,3.55,4.49,8.37,10.14,12.93,13.91,5.11,4.22,17.32,4.84,22.94,1.86,4.45-2.35,13.46-6.08,15.51-.95,2.45,7.92,4.47,14.01,8.45,22.61ZM1172.48,827.99c6.91-4.79,26.77-23.94,18.73-31.55-3.6-1.12-8.31-4.35-10.96-4.91-7.99-1.7-20.89-1.46-28.58.12-10.07,2.07-23.97,15.51-26.07,21.59l-5.14,14.83c-1.88,5.42-1.12,13.54-.88,21.63,14.42-4.11,14.76-23.82,22.47-24.56,1.16-.11,21.29,9.18,30.43,2.85ZM971.91,884.67l5.44-13.81c.4-1,1.24-4.4,1.51-5.35.24-.87,1.63-.66,3.45-.83l2.07,9.7,3.08-7.41c-.72-3.72-.43-5.17-.26-9.46l1.58-39.71c.06-1.45,3.44-4.28,2.92-5.38l-1.87-3.99c-1.8-3.82-2.47-5.32-5.44-10.46l-2.4,20c-.23,1.95-3.68,6.18-2.89,7.95l2.56,5.76-4.4,9.2-17.28,33.3c-7.99,15.4-10.68,30.85-.23,46.44,6.14,2.12,11.53,5.74,16.23,10.84,9.57-19.32-17.76-12.01-4.07-46.8ZM1374.91,904.53c8.25-4.3,13.33-8.44,13.19-17.86l-.3-19.33c-.08-5.4-1.35-11.26-3.93-15.53l-8.63-14.26c-4.22-6.97-8.75-10.78-15.6-15.25-4.5-2.94-9.02-6.44-13.71-8.68l-10.69-5.1c-3.47-1.65-7.77-3.29-11.89-2.32,1.87,6.25,8.81,7.33,13.12,10.59l10.89,8.25,2.08,8.11c4.46,3.73,9.03,8.3,9.21,12.35.27,5.97-1.08,10.43-4.37,15.34-1.37,2.04-.7,8.4,1.48,8.32,12.49-.48,4.6-9.38,20.55-3.48,1.58,5.58,2.62,14.95.36,20.08-7.85,17.8-7.45,7.72-13.01,15.93-1.38,2.04,2.14,7.58,4.71,6.24l6.54-3.41ZM903.48,848.33c1.83-5.46,2.71-6.87,2.03-7.38s-3.22-2.02-3.91-2.72l-15.08-15.24c-1.57-1.58-1.6-8.41-3.65-8.08s-7.65,2.52-6.85,4.44l2.86,6.88c2.27,5.45,5.13,6.92,9.31,10.18l15.3,11.92ZM1089.67,937.5c10.96-.47,13.98-6.64,19.36-12.43l9.87-10.63,1.01-16.16c1.45-1,4.33-2.72,3.61-3.37-.54-.49-2.44-2.17-2.7-2.85l-5.04-13.02-5.5-13.82-1.86-21.84c1.09,12.78-6.93-34.29-4.39-27.64-.34-.88-3.65.2-3.7,1.15l-.9,15.99c-2.41,2.35-4.58,4.11-4.73,5.78-.5,5.43,6.18,6.53,5.17,10.34-1.24,4.68-6.59,6.62-4.43,8.3l3.49,2.7,1.75,15.85c1.65,1.92,4.92,5.91,4.56,8.09-.3,1.87-2.67,4.58-4.49,6.33,14.76,20.75-13.25,35.03-11.08,47.23ZM1201.68,818.8c-7.38,3.48-11.4,9.56-16.44,14.85l-13.16,13.84c4.65,9.95,38.66-15.28,29.6-28.69ZM839.49,927.96c8.5-4.57,12.4,1.02,15.15,4.66l9.1,12.01c3.36,4.43.37,10.04.35,13.81s3.17,9.59.11,13.81l-18.52,25.57c-14.01,19.34-24.54,67.14,2.53,70.99,1.71.24,5.86-.62,7.28-1.33,1.42-.71.77-5.58-.21-6.83-.73-.94-2.92-1.06-5.09-1.39l-8.59-1.29.69-36.14c4.45-5.22,6.35-11.75,10.27-16.95l21.9-29.1c5.73-7.61.44-20.4,1.15-29.37,1.53-19.53-5.15-12.23-15.98-30.68l-10.49-17.89c-4.36-7.43-2.06-17.99-3.98-26.52-.62-2.74-4.58-6.48-3.78-10.75,1.16-6.23-1.84-11.45-3.64-16.51l-2.42-19.97c-11.33,8.94-9.16,37.49-6.8,46.18l4.82,17.8c1.81,6.68,5.19,14.66.67,20.38-.27.34-5.58,17.42-8.12,20.91-14.76,20.3-37.93,32.64-41.77,50.31-2.1,9.65-.86,22.55-.86,32.8l12.62,11.66c5.49.86,13.54.9,18.82.61,3.31-3.32,8.41-8.67,11.26-12.08.78-.93,5.28-18.18-2.94-24.62-2.89-2.26-7.89-2.37-11.15-.89,5.69,5.06,6.24,10.1,4.57,17.31-3.14.56-10.88.54-12.81-.02-1.4-5.75-2.47-7.71-4.62-11.9-3.43-11.64-1.65-19.85,5.56-29.4,12.13-16.06,11.26-5.07,19.13-18.26,3.31-5.55,10.6-14.1,15.81-16.9ZM1225.35,943.46c2.31-4.8,3.95-6.17,7.51-7.72l6.22-2.71c2.32-1.01,19.28,19.62,31.17,28.37,7.08,5.21,13.14,10.59,19.78,16.65.47,14.73,2.47,30.68-13.79,36.48-.78.28-.63-2.48-.92-2.87-3.83-1.79-7.29-5.45-8.59-8.89,1.86-1.77,4.64-4.3,4.3-5.87l-1.18-5.49-13.77,6.23c-.3,4.84-.35,14.07.07,19.56,8.39,9.75,20.93,15.96,34.36,11.63,4.46-1.44,11.47-8.06,14.36-12.31-.08-8.98.72-20.1-.98-28.32-3.93-19-41.41-40.13-46.89-54.73l-4.74-12.62-4.45-10.74c1.42-3.07,3.4-7.83,3.01-10.89-.82-6.34,3.19-9.66,4.01-14.08l3.32-17.84-2.32-17.11c-.93-6.87.29-11.71-8.95-15.07-3.85,24.88,2.8,17-4.62,41.36-1.09,3.59-.98,10.37-2.63,13.06l-4.2,6.83c-4.07,6.62-7.12,15.74-11.03,21.13l-8.66,11.93c-4.93,6.78-22.92,25.2-23,24.79l1.13,6c5-3.83,8.55-4.58,14.17-2.38-7.2,7.42-6.84,12.42-2.67,19.54,2.21,3.78,4.86,11.9,7.72,15.23,10.14,11.82,32.03,32.88,29.24,48.06l2.81-5.65.39,21.02-11.7,12.35c-1.91-1.72-4.98-4.77-5.4-3.44l-1.52,4.74c-2.16,6.72,22.79,1.85,23.68-11.33,1.74-25.55,1.24-36.14-15.45-56.77-18.91-23.38-19.33-16.33-18-46,.16-3.63,6.58-8.63,8.24-12.11ZM939.53,933.5c-3.62-3.01-8.99-1.61-12.67,2.14l-11.62-10.47c-.72-4.94-2.4-8.34-5.32-10.41,10.4-8.59-7.94-17.86,2.97-29.54,1.3-1.4,2.69-7.58,1.03-7.25l-7.58,1.47c-.96-11.34-10.74-17.13-19.35-22.83l-19.21-12.71c-9.79,16.97,12.59,14.71,22.44,51.19.84,3.13-.06,9.21,1.5,11.28s3.69,5.47,3.85,7.4-3.71,4.77-5.26,5.67c10.67,7.89,18.99,24.08,14.11,35.77-1.52,1.24-5.45,2.53-5.29,4.2.13,1.35.94,5.29.96,6.72l.5,35.99c.06,4.61,10.75,9.91,13.83,6.6,2.75-41.86-8.65-43.46,25.11-75.22ZM1004.28,1160.26c1.88-7.79,6.7-14.79-1.48-22.22l-1.11-20.46c-11.95-13.13,2.36-22.2,7.32-30.25,2.57,3.48,5.15,6.01,8.02,6.22,3.98.28,6.12-4.04,4.12-7.05-2.16-3.25-4.38-7.02-4.34-9.71.03-2.17,3.36-6.05,2.9-8.15-.72-3.28,2.92-8.61,6.05-9.35,10.77-2.55,20.74,9.45,20.74,15.43,0,10.1-5.69,6.69-5.45,17.44.07,3.04,11.56-2.71,17.2,4.27,1.67,2.06,2.2,6.3,3.35,9.38.95,2.54,4.7,7.71,4.61,10.61-.3,9.86-.27,19.47-1.94,28.15-1.03,5.34-3.75,7.57-.87,12.79,4.36,7.9,8.78,15.55,13.68,23.25l11.98-.65c1.52-.08,1.89-6.8.38-7.25l-7.22-2.15-6.83-14.38-.07-51.87-6.3-10.14-7.43-3.4c-1.11-5.98-1.85-15.49-.31-20.79,2.04-5.68,26.75,4.73,32.66,6.98,5.55,2.12,22.02,3.21,25.46-4.73.85-1.95-.06-7.57-1.56-8.54-26.5-1.23-20.81,3.24-44.12-6.28-6.94-2.84-18.23-8.89-21.07-15.32l-5.1-11.56c-6.38-14.47,8.44-30.22,22.44-37.96,6.38-3.53,24.76-4.93,28.21,2.62l3.24-8.57,15.73-1.61,10.51-17.28c4.12-6.77-.7-39.07,5.52-25.93,6.01,12.7,4.77,4.21,13.87,15.96l10.13,20.7c3.52,7.18-3.12,36.36,11.27,36.58-.65-15.89,1.3-32.07-1.66-45.52-1.62-7.35-6.45-10.66-.86-19.16,5.84-8.88,10.67-20.54,15.99-31.08l1.93-10.44c8.56-19.88,6.49-18.53,26.48-32.31,8.7-6,8.7-18.72,3.84-27.61-2.28,9.56-8.27,12.21-14.71,16.87-22.19,16.05-35.42,33.04-42.49,58.98l-4.73,17.37-10.85-4.36c-3.47-1.4-11.73-.53-15.26-1.28-2.37-2.93-4.21-5.22-6.07-5.15-2.26.09-6.25,3.55-5.39,5.22l3.98,7.65c-2.37,2.94-4,6.98-3.96,13.1l-6.75,11.69c-2.12,3.67-12.16,1.49-14.78-1.52-1.83,1.06-4.74,3.17-6.14,2.46l-6.85-3.51c-1.55-.8-4.99,3.41-6.72,3.75-2.93.58-9.78.22-12.46,1.26l-12.61,5.89c-14.43,6.74-16.64,2.19-17.1,4.37l-.69,3.23-11.67-5.54c-17.31-8.21-14.46-13.28-26.88-13.53l-27.88-.56-10.04-7.54c-4.25-24.68,10.9-18.9,2.11-32.04l-12.71,15.59c-1.12,9.31-1.02,18.85,1.21,26.66,2.16,7.57,9.87,7.23,14.79,9.27,25.79,10.7,18.58-8.07,48.11,20.85,18.75,18.36,3.15,17.44,14.09,37.83-4.17,5.9-13.28,10.73-20.56,14.43-17.7,9.02-10.97-1.72-25.22,7.03-1.46-.9-5.64-4.3-7.58-3.47l-7.02,3.05c-5.03,2.18-10.44,5.73-12.15,9.68,24.68,13.78,9.91,1.49,27.01,9.57,14.48-4.23,11.76-9.88,24.21-7.89l6.45,1.03c1.09.18.88,6.05.13,6.87l-13.67,15.03c-3.6,3.96-5.53,11.07-6.97,15.54-.49,1.52-4.22,4.55-3.47,5.93s3.39,4.23,3.81,5.83l3.98,15.33c2.68,10.31,3.69,31.67-5.37,36.91-1.4.81-7.6.09-7.51,1.62l.4,6.91c.09,1.52,4.81,1.58,6.5,1.42,11.91-1.12,17.31-11.07,19.59-20.49ZM1048.07,896.65l11.55,11.99,1.37-9.69c.24-1.69,6.08-.83,7.76-2.13,2.75-2.12,2.04-9.7.47-14.25l-5.99,6.12c-1.44-2.35-5.18-6.7-7.48-6.13-1.97.49-4.55,3.05-7.36,5.37-1.63.66-3.03-7.32-1.3-8.8l11.24-9.54,18.43-1.52c-3.68-5.5-8.32-9.78-12.3-9.69-6.37.15-10.57,1.64-15.68,4.11l-6.94,3.35c-16.32,7.88-2.28-1.87-24.07-8.71-2.19-.69-7.81-4.44-9.79-3.31l-6.79,3.88c-1.13.64-5.05,2.5-4.25,3.51l2.92,3.66c3.27,4.1,8.22,2.89,12.87,4.53l15.58,5.5,11.85,4.35,1.18,13.19c-5.17.5-13.28,1.87-16.95-.23l-9.18-5.25c-5.29-3.03-11.53-5.74-17.02-2.2l-10.02,6.46c21.87,4.25,11.98-3.01,31.9,7.99,14.39,7.94,19.01.49,21.39,4.9l1.99,3.7,4.61-11.16ZM1052.62,920.81c-7.15-5.9-14.82-2.17-21.21-4.23-6.55-2.11-11.96-6.14-19.2-2.5l8.33,9.22,32.08-2.49ZM695.9,997.48c-2.34,2.54-4.15,5.35-5.34,7.85l-3.79,7.97,6.95,2.27c1.46.48,1.48-6.42,2.44-7.64,4.47-5.67,12.62-15.07,19.21-19.92,5.23-3.85,11.74-5.99,16.42-11.36l10.38-1.53c1.57-2.83,5-5.94,6.8-4.46,1.66,1.36,3.85,4.04,5.1,5.9,1.06,1.57-4.92,4.89-4.95,6.89l-.52,36.19,10.12,19.05-3.9.95c-.8.19-1.23,3.62-.42,3.78.54.1,2.45.45,3.3.49l10,.52c-.17,8.71,5.56,7.95,11.79,10.16,5.95,2.12,18.18,9.03,23.04,1.39,3.91-6.15-6.96-6.14-10.27-7.28-7.06-2.42-14.86-6.97-21.66-11.3-3.24-5.35-7.09-12.11-9.93-18.64-3.36-7.71-3.25-22.82-.17-31.52l4.56-12.85c1.29-3.62,3.61-9.69,5.06-12.57l10.09-13.88c9.56-13.16,19.42-16.44,23.11-27.43.33-.97-2.81-2.5-3.61-1.86-3.04,2.43-9.64,6.77-13.36,9.37-9.46,6.6-17.75,16.33-25.75,24.19-3.6-3.98-8.8-7.43-11.03-6.01-1.2,5.33-1.81,9.42-4.63,12.71-2.81,3.29-7.42,3.67-12.73.87l23.29-21.23c3.39-3.09,5.03-8.05,1.3-12.08-5.05,4.77-10.2,11.21-15.59,14.54l-14.62,9.02-9.9,5.71-11.55,1.15c.86,18.95-29.34,11.19-43.27,50.55-1.76,4.98-1.14,15.49-.02,20.24,3.37,4.97,17.4,24.02,25.2,13.53l-15.55-9.81c-4.91-37.65,8.83-35.65,15.96-43.37,4.58-4.96,18.94-20.92,28.39-16.15-.95,3.19-2.74,6.94-4.3,8.64l-15.64,16.96ZM839.73,959.93l9.88-5.57c3.37-1.9,7.3-5.32,6.93-8.98-.29-2.82-5.11-7.18-7.91-7.97l-18.47,18.69c-3.05,3.09-7.63,5.03-11.93,6.74l-5.56,11.85c12.81,4.53,3.22-1.3,27.07-14.76ZM1311.79,1058.62c3.85-.76,6.64-2.41,9.36-4.77,14.31-12.39,13.37-16.44,18.84-31.67,1.97-5.48,4.84-9.34,2.9-17.22.18-3.24-.14-3.41-2.66.44-2.61-29.38.72-14.14-10.11-37.5-2.24-4.83-6-9.03-8.85-13.49-8.9-13.95-25.15-21.35-26.27-15.45-1.84,9.65,21.85,21.11,27.76,35.3,2.03,4.88,2.22,10.19,5.35,14.24l1.63,15.87,3.15,5.02c.52.83-3.03.77-3.72,1.1l-.38,15.72c0-.16-5.44,13.99-17.11,19.58l-9.92,4.76c-15.09,7.24-22.25.76-21.67,4.99l1.05,7.63c31.67,1.97,15.03-1.47,30.62-4.54ZM1402.7,988.47c3.81,2.01,8.54,8.34,12.24,11.63,9.14,8.13,14.7,18.6,10.73,32.3-1.38,4.77-9.61,9.77-15.2,13.74,2.64,4.84,9.46,3.46,12.96-.25l6.59-3.51,5.12-11.18c1.82-3.97,2.23-14.22.19-18.03l-4.85-9.05c-8.33-15.54-23.57-23.85-38.37-31.35-13.41-6.8-38.18-21.69-50.49-30.46-4.3-3.07-7.18-8.46-12.62-3.75,7.57,8.65,13.94,16.79,22.76,22.01,2.68,1.58,6.27,1.94,6.74,3.83.41,1.64-1.28,7.18-2.95,6.94-5.47-.79-10.45-5.31-14.69-9.52-2.63,3.44-1.36,9.1,2.12,12.32,19.82,18.35,29.68,15.6,32.56,17.46,9.04,5.87,23.35,20.74,28.92,33.95,4.91-5.19,2.6-13.51-2.35-18.19l-24.86-23.51,1.97-7.81,23.46,12.42ZM1262.9,980.37c1.91,1.17,7.74.41,7.64-1.57-.57-11.14-11.68-7.26-13.91-15.32-.85-3.08-2.65-7.26-4.94-8.85-1.82-1.26-4.97-.42-8.14.94l-9.82-9.71c-7.31-.21-8.66,8.92-6.95,14.36,13.26,2.16,21.22,11.07,25.3,13.56l10.82,6.6ZM865.76,1112.22c16.81.08,5.79-23.96,10.92-36.22,8.23-19.69,16.91-25.88,18.64-45.94,1.23-14.26-7.12,4.24-4.47-37.84.07-1.15,3.3-3.79,2.58-4.67l-2.89-3.47c-.64-.77-2.35-3.1-2.76-2.41s-1.63,2.92-2.14,3.59l-15.19,20.13c-15.88,21.04-22.91,16.33-17.69,44.89,6.47-3.45,8-8.39,8.75-14.83l8.22-7.98,2.02,20.97c1.14.81,3.88,2.4,3.34,3.15s-2.51,3.22-2.72,4.12c-5.19,21.85-8.39,7.63-6.61,56.51ZM959.46,998.52l-19.89-6.91c-6.54-2.74-11.28-5.32-19.04-9.99-1.01,2.76-.31,8.27,2.14,10.19,2.8,2.2,7.99,3.53,11.27,3.94,7.96,1.01,2.32,8.53,25.51,2.76ZM1107.29,1026.59c22.14-5.76,12.21,2.69,29.06-5.23,4.1-1.93,10.65-4.68,12.85-8.54-5.31-6.6-12.35-1-17.55,1.43l-16.89,1.55.66-4.9,20.64-9.42c6.49-2.96,15.58-5.3,12.51-15.82l-22.83,11.41c-17.14,8.56-9.72-2.91-19.11,8.06l-2.86-4.57c-1.17-1.43-4.24,4.04-3.92,6.14.26,1.75,5.06,2.45,7.08,3.14l8.05,8.54c-4.98,1.64-9.49.76-13.61-1.48l-14.64,10.67c1.51.62,5,1.89,7.1,2.34,1.81.39,5.79-3.11,7.53-4.12,1.2-.7,4.61,1.14,5.93.79ZM1210.81,1066.67c-1.71-5.51-6.24-12.07-2.83-19.39l6.6-14.17c2.73,3.17,6.59,9.88,7.84,14.41.53,1.92,7.39,2.47,8.23.62,2.63-5.77.63-14.95-4.33-20.23l-23.49-25.02c-1.81-1.93-2.15-8.23-4.17-9.97-2.2-1.89-7.91-2.57-11.11-1.24l.3,60.34c4.78,6.96,15.78,27.42,18.42,34.22,3.59,9.24-4.53,29.93,6.48,26.56,7.59-2.32,4.08-26.64,2.99-30.15l-4.94-15.98ZM954.62,1011.02l-14.25-1.46-2.46-3.99c-.55-.89-3.85.09-3.96,1.13s-.4,5.88.57,6.26c2.95,1.14,9.1,5.15,12.37,5.64,14.26,2.15,32.22,1.26,47.18.44-3.05-9.99-24.6.83-39.46-8.03ZM1003.28,1037.21l-17.16-3.4c-9.23.62-20.47,1.21-29.26-.39-2.98-.54-8.83-5.96-11.53-4.45-1.71.95-2.58,6.52-.94,7.55l6.25,3.93c10.88,6.85,15.33,4.03,23.62,1.26,9-3,18.34-2.22,29.02-4.5ZM1080.89,1043.5c39.91,1.16,33.53,4.68,63.87-11.42-5.26-6.78-10.14.49-14.85,1.59l-32.57,1.66c-1.12.06-3.7,3-4.68,2.48-.73-.39-3.03-1.78-3.84-1.96-2.68-.61-8.66,4.39-7.92,7.65ZM722.89,1088.65c1.58-.9,5.08-1.21,5.91-2.37.83-1.16,1.57-4.82,2.63-5.72,2.21-1.86,6.99-4.96,7.75-7.54l3.79-12.85c-10.55-6.31-19.76,21.36-30.03,26.24l-12.98,6.17c-.88.42-4.18,1.32-5.09,1.58-.98.28-1.07,10.95,28.01-5.51ZM1388.83,1095.17c-15.88-12.51-14.58-4.28-22.72-20.12-1.43-1.61-15.16-15.46-16.79-11.41-.51,1.26-1.3,6.14-.47,7.22l11.32,14.92c.32.42,20.64,19.17,28.66,9.38ZM821.7,1126.03c4.13-3.22,6.52-6.63,6.63-10.1.13-4.08-5.18-8.18-5.37-11.15l-1.48-23.18-13.17,9.09,3.05,4.69c.45.69-3.09,2.86-3.13,3.69l-.78,13.2-14.42-.64.14-17.18c10-5.87-1.16-7.23,10.06-13.69l-15.05-14.06.05,15.09c-3.73,1.91-8.73,5.65-9.57,8.68l-2.75,10.01c-.4,1.44,3.05,5.3,1.84,6.2l-4.04,3.02c4.13,2.89,10.33,19.54,11.13,27.24,15.34-11.05,9.64-22.78,22.37-19.56,3.65,18.63-6.11,37.55-19.8,52.85,8.61,3.69,13.55-4.83,18.25-9.83,22.56-24.04,3.5-24.59,16.06-34.38ZM1319.07,1104.39l-7.91-3.27c-2.46-1.02-.21-10.88-3.14-12.78-1.19-.77-5.36-.52-6.31-1.57l-6.53-7.2c-1.62-1.79-9.09-1.27-9.93.95-1.95,5.06,3.82,10.99,8.61,13.92l.91,41.27c7.63,2.57,8.86-5.91,11.28-10.72l5.7-11.31c1.35-2.68,5.77-7.19,7.32-9.28ZM1283.44,1145.45c-7.3-20.07.95-11.53-7.5-20.43l-.95-29.73-11.32-13.08c-8.21,6,.98,9.37,1.14,12.98l1.73,37.86c.2,4.37,3.45,9.14,3.46,14.07.01,6.91,5.08,11.94,10.17,16.2,5.94,4.97,11.98,10.97,19.22,11.58-10.75-14.68-10.79-15.29-15.95-29.45ZM896.43,1144.6c5.58-9.68,3.99-17.98.05-27.8-1.82-4.55-1.4-11.65-5.25-15.59l-2.76-13.6c-6.8,4.18-2.47,39.97,1.58,37.16-.71.49-3.4,2.72-3.1,3.53l2.13,5.72c.49,1.31-2.56,4.4-2.68,5.91-.87,11.12-6.64,21.92-16.46,29.45,14.81,5.34,22.45-17.79,26.48-24.79ZM971.06,1131.2l6.99-6.63-4.97-4.19c-.07-4.02.19-12.12.69-15.45,3.1-3.24,4.67-6.14,4.56-9.66-.08-2.63-7.22-4.19-9.06-2.15-3.85,4.25-5.84,10.22-7.21,15.23l-12.77.11c-2.29.31-.55,9.8,1.49,8.69l5.53-5.24c1.22-1.16,6.72.29,6.61,2.1-.32,5.35,1.43,15.13,8.14,17.18ZM1207.12,1169.37c-4.93-6.02-8.3-10.61-11.73-16.23-4.28-5.25-2.97-31.28-1.65-37.26,1.64-7.38,6.06-14.76,2.56-22.94l-8.64.62c.29,8.59-.52,12.72-4.13,18.76l-1.58,11.77c-6.24,4.44-1.34,10.09-.76,14.53,1.42,10.91,2.67,18.61,12.23,25.6,3.73,2.72,8.57,9.4,13.69,5.15ZM1095.08,1129.19c.11-2.35,3.1-6.43,4.16-8.7,3.96-8.4-3.77-17.7-11.94-22.29-7.73,11.37,9.62,19.46-.05,30.14-1.31,1.45-2.04,7.15-.46,7.39l6.05.92c1.6.24,2.12-5.18,2.23-7.47ZM745.13,1124.96l-2.9-4.13c-.46-.65-2.13.38-2.38,1.13s-.85,3.51-.8,4.58l.85,18.43c4.71-1.1,9.39-4.31,9.44-7.38.06-4.32-1.94-9.38-4.22-12.63ZM1354,1125.18c-.11-1.8-4.61-3.57-6.43-3.2-5.32,1.09-12.05,12.17-7.13,19.52,3.16,4.71,9.4,7.23,13.63,2.48l-5.42-5.1c-4.41-4.15,5.81-6.21,5.35-13.7ZM1031.9,1161.04l.25-29.14c.01-1.47-1.96-4.1-2.98-4.6-4.6-2.25.03,10.77-5.99,17.06l-.49,15.57,9.21,1.11Z"/>
      <path class="st2" d="M833.27,571.76c-2.51-5.69-25.87-27.44-27.27-28.21l-9.86-5.39-19.2-2.31c19.1-17.73,46.92-2.23,63.69,9.02l11.78,7.9c7.14,4.78,12.44,10.74,19.81,17.4l-38.95,1.59Z"/>
      <path class="st2" d="M1246.26,579.85l-14.22,1.87c-.96,1.18-1.6,1.96-1.96,2.35-.54.56-2.07.74-2.88.9-11,2.19,23.06-35.39,40.47-37.36,7.25-.82,12.44-.57,18.25-4.75l11.16.29c-3.76,3.11-6.46,5.79-8.52,6.91-12.98,6.99-31.74,16.23-42.3,29.8Z"/>
      <path class="st3" d="M868.78,556.57l-9.08-7.65c11.38-10.77,13.6-3.14,20.48-9.35l2.4-2.17c.68-.62,2.97,1.46,2.33,2.13l-2.69,2.79-13.45,14.25Z"/>
      <path class="st3" d="M1242.39,554.39l-9.07,7.31-5.4-14.22c5.24-.37,10.19,2.02,14.47,6.91Z"/>
      <path class="st3" d="M1004.28,1160.26c-2.28,9.42-7.67,19.37-19.59,20.49-1.69.16-6.41.1-6.5-1.42l-.4-6.91c-.09-1.53,6.11-.81,7.51-1.62,9.06-5.24,8.04-26.6,5.37-36.91l-3.98-15.33c-.41-1.59-3.05-4.45-3.81-5.83s2.98-4.4,3.47-5.93c1.44-4.46,3.36-11.57,6.97-15.54l13.67-15.03c.75-.82.96-6.69-.13-6.87l-6.45-1.03c-12.45-2-9.73,3.66-24.21,7.89-17.1-8.08-2.34,4.21-27.01-9.57,1.71-3.95,7.12-7.49,12.15-9.68l7.02-3.05c1.93-.84,6.12,2.57,7.58,3.47,14.26-8.75,7.52,1.99,25.22-7.03,7.28-3.71,16.39-8.53,20.56-14.43-10.95-20.39,4.66-19.46-14.09-37.83-29.52-28.92-22.31-10.15-48.11-20.85-4.92-2.04-12.63-1.7-14.79-9.27-2.23-7.82-2.32-17.35-1.21-26.66l12.71-15.59c8.78,13.13-6.36,7.35-2.11,32.04l10.04,7.54,27.88.56c12.42.25,9.57,5.31,26.88,13.53l11.67,5.54.69-3.23c.46-2.18,2.67,2.37,17.1-4.37l12.61-5.89c2.69-1.04,9.54-.69,12.46-1.26,1.73-.34,5.16-4.54,6.72-3.75l6.85,3.51c1.4.72,4.31-1.4,6.14-2.46,2.62,3,12.67,5.19,14.78,1.52l6.75-11.69c-.04-6.11,1.59-10.16,3.96-13.1l-3.98-7.65c-.87-1.67,3.12-5.13,5.39-5.22,1.86-.07,3.7,2.22,6.07,5.15,3.53.74,11.79-.12,15.26,1.28l10.85,4.36,4.73-17.37c7.06-25.94,20.3-42.93,42.49-58.98,6.44-4.66,12.43-7.31,14.71-16.87,4.85,8.89,4.86,21.6-3.84,27.61-19.99,13.79-17.92,12.44-26.48,32.31l-1.93,10.44c-5.32,10.54-10.15,22.19-15.99,31.08-5.59,8.5-.76,11.81.86,19.16,2.96,13.45,1.01,29.63,1.66,45.52-14.4-.22-7.76-29.4-11.27-36.58l-10.13-20.7c-9.09-11.75-7.85-3.26-13.87-15.96-6.22-13.14-1.4,19.16-5.52,25.93l-10.51,17.28-15.73,1.61-3.24,8.57c-3.44-7.55-21.82-6.15-28.21-2.62-14,7.74-28.82,23.49-22.44,37.96l5.1,11.56c2.84,6.44,14.13,12.49,21.07,15.32,23.31,9.52,17.62,5.05,44.12,6.28,1.5.96,2.41,6.58,1.56,8.54-3.44,7.94-19.91,6.85-25.46,4.73-5.91-2.26-30.62-12.66-32.66-6.98-1.55,5.3-.8,14.81.31,20.79l7.43,3.4,6.3,10.14.07,51.87,6.83,14.38,7.22,2.15c1.51.45,1.13,7.17-.38,7.25l-11.98.65c-4.9-7.7-9.32-15.34-13.68-23.25-2.88-5.22-.16-7.44.87-12.79,1.67-8.68,1.65-18.29,1.94-28.15.09-2.91-3.66-8.07-4.61-10.61-1.15-3.08-1.69-7.32-3.35-9.38-5.64-6.98-17.13-1.23-17.2-4.27-.24-10.75,5.45-7.34,5.45-17.44,0-5.98-9.97-17.98-20.74-15.43-3.12.74-6.77,6.07-6.05,9.35.46,2.1-2.86,5.98-2.9,8.15-.04,2.69,2.18,6.46,4.34,9.71,2,3.01-.15,7.33-4.12,7.05-2.87-.2-5.44-2.73-8.02-6.22-4.95,8.05-19.27,17.12-7.32,30.25l1.11,20.46c8.18,7.43,3.36,14.43,1.48,22.22Z"/>
      <path class="st3" d="M1225.35,943.46c-1.67,3.47-8.08,8.47-8.24,12.11-1.33,29.67-.9,22.63,18,46,16.69,20.63,17.18,31.22,15.45,56.77-.9,13.18-25.84,18.05-23.68,11.33l1.52-4.74c.43-1.33,3.49,1.72,5.4,3.44l11.7-12.35-.39-21.02-2.81,5.65c2.79-15.18-19.1-36.24-29.24-48.06-2.85-3.33-5.51-11.44-7.72-15.23-4.16-7.12-4.53-12.12,2.67-19.54-5.62-2.2-9.17-1.45-14.17,2.38l-1.13-6c.08.41,18.07-18.01,23-24.79l8.66-11.93c3.91-5.39,6.97-14.5,11.03-21.13l4.2-6.83c1.65-2.69,1.54-9.47,2.63-13.06,7.42-24.35.78-16.48,4.62-41.36,9.24,3.36,8.02,8.2,8.95,15.07l2.32,17.11-3.32,17.84c-.82,4.41-4.82,7.74-4.01,14.08.39,3.06-1.59,7.83-3.01,10.89l4.45,10.74,4.74,12.62c5.48,14.6,42.96,35.73,46.89,54.73,1.7,8.22.9,19.34.98,28.32-2.89,4.25-9.89,10.87-14.36,12.31-13.43,4.34-25.97-1.88-34.36-11.63-.41-5.49-.37-14.72-.07-19.56l13.77-6.23,1.18,5.49c.34,1.57-2.44,4.1-4.3,5.87,1.3,3.44,4.76,7.1,8.59,8.89.28.39.13,3.15.92,2.87,16.25-5.8,14.25-21.75,13.79-36.48-6.64-6.06-12.7-11.44-19.78-16.65-11.89-8.75-28.84-29.38-31.17-28.37l-6.22,2.71c-3.56,1.55-5.2,2.92-7.51,7.72Z"/>
      <path class="st3" d="M907.86,676.24l6.52-10.48-4.18-4.06,10.45-8.69-7.8-8.82-19.4.12-10.61,7.74c-6,4.38-11.59,7.97-17.77,11.88-14,8.84-40.35,6.96-52.41-6.69-.22-1.36,5.25-4.43,6.49-3.24l5.33,5.09,32.54.04,10.86-8.79c17.76-4.62,33.15-37.11,42.87-51.44,15-22.09,38.48-33.87,38.46-45.26-.01-6.22-12.57-12.81-21.67-11.33-4.52.73-7.56,7.96-8.4,12.55l-.98,5.31c-.27,1.48-5.57,1.57-7.34,1.25-2.44-6.7-1.56-19.26,6.26-23.37,3.91-2.05,9.12-4.41,13.27-6.25,24.2,7.46,31.07,16.78,35.59,37.28.51,2.32-4.87,8.17-7.22,7.4-8.34-2.74-15.45,4.44-21.31,7.26-7.8,3.76-12.51,8.13-14.47,17.67-1.01,4.93-6.06,15.61-1.86,17.99,7.69,4.34,12.67-1.24,16.74-5,7.94-7.33,15.8-15.13,22.73-23.09l8.2.58-10.6,14.51c-8.51,11.65-14.95,24.15-20.99,37.3-6.49,14.14-.47,10.17-18.35,39.25-8.38,13.63-17.65,24.67-32.45,32.14-4.4,2.22-8.61,2.69-13.12.29l-6.79-3.61c-1.94-1.03-1.01-8.59,1.25-8.65l16.89-.43,15.55-16.24c2.33-2.44,5.65-6.88,7.72-10.21Z"/>
      <path class="st3" d="M1235.46,725.04c2.5-1.91,7.93-3.89,9.94-1.34-4.81,18.18-29.56,17-39.67,8.7-11.89-9.77-20.09-20.28-25.93-33.6-2.68-3.01-6.49-7.76-8.18-11.61l-4.95-11.27-4.67-10.67-4.79-12.48c-5.69-14.83-12.74-25.15-22.14-37.43-4.72-6.16-14.13-10.34-20.81-16.6.35-4.2,7-3.44,10.47-.64,6.1,4.93,16.42,7.21,21.48,12.4l14.45,14.8,6.96-8.16c.6-5.45,1.58-15.05-.92-18.95-2.31-3.61-6.6-9.26-9.57-10.84l-10.73-5.71-19.83-.83c-1.47-.06-3.44-5.04-2.49-6.15l3.92-4.58c7.37-8.62,27.16-23.41,37.54-24.14,1.67-.12,4.1-4.07,5.44-3.5,1.34.56,4.36,2.56,5.86,3.03,5.23,1.64,11.2,3.51,14.83,7.82,4.27,5.06,6.93,9.61,5.99,14.9s-4.48,12.17-9.4,13c-1.81.31-5.4-.22-5.43-1.29-.29-11.1,5.94-4.88,5.07-17.36-.81-11.68-18.55-11.93-27.55-10.42l-11.4,11.83c5.98,8.62,15.2,14.87,21.43,23.11l16.65,22.02,1.69,9.39c11.06,10.67,15.02,30.15,30.69,39.6l8.19,4.94,21.06,3.36c-12.54,2.74-22.96,2.87-34.73,2.09l-20.04-20.74c-4.46-4.62-9.2-8.8-13.24-12-10.78,6.84-8.56,15.97-5.11,25.11,7.45,19.71,19.05,42.97,34.94,57.99,6.41,6.06,15.24,13.68,24.98,6.23Z"/>
      <path class="st3" d="M839.49,927.96c-5.21,2.8-12.5,11.35-15.81,16.9-7.87,13.18-7,2.2-19.13,18.26-7.21,9.54-8.99,17.76-5.56,29.4,2.15,4.18,3.21,6.14,4.62,11.9,1.92.56,9.67.59,12.81.02,1.67-7.2,1.12-12.25-4.57-17.31,3.26-1.49,8.26-1.37,11.15.89,8.22,6.44,3.72,23.69,2.94,24.62-2.85,3.41-7.95,8.76-11.26,12.08-5.29.3-13.33.26-18.82-.61l-12.62-11.66c0-10.25-1.25-23.14.86-32.8,3.84-17.66,27.01-30.01,41.77-50.31,2.54-3.5,7.85-20.57,8.12-20.91,4.52-5.71,1.14-13.69-.67-20.38l-4.82-17.8c-2.35-8.7-4.52-37.24,6.8-46.18l2.42,19.97c1.8,5.07,4.79,10.29,3.64,16.51-.79,4.28,3.17,8.01,3.78,10.75,1.92,8.53-.37,19.09,3.98,26.52l10.49,17.89c10.83,18.45,17.51,11.15,15.98,30.68-.7,8.98,4.58,21.76-1.15,29.37l-21.9,29.1c-3.92,5.21-5.82,11.73-10.27,16.95l-.69,36.14,8.59,1.29c2.17.33,4.36.45,5.09,1.39.98,1.25,1.63,6.12.21,6.83-1.42.71-5.57,1.57-7.28,1.33-27.06-3.85-16.53-51.65-2.53-70.99l18.52-25.57c3.06-4.22-.13-10.18-.11-13.81s3.01-9.37-.35-13.81l-9.1-12.01c-2.75-3.64-6.65-9.23-15.15-4.66Z"/>
      <path class="st3" d="M695.9,997.48l15.64-16.96c1.56-1.69,3.35-5.45,4.3-8.64-9.45-4.77-23.81,11.19-28.39,16.15-7.13,7.72-20.87,5.71-15.96,43.37l15.55,9.81c-7.8,10.49-21.83-8.56-25.2-13.53-1.12-4.75-1.74-15.26.02-20.24,13.93-39.37,44.13-31.61,43.27-50.55l11.55-1.15,9.9-5.71,14.62-9.02c5.39-3.32,10.54-9.77,15.59-14.54,3.73,4.04,2.09,8.99-1.3,12.08l-23.29,21.23c5.31,2.8,9.92,2.43,12.73-.87,2.82-3.29,3.43-7.39,4.63-12.71,2.23-1.42,7.43,2.03,11.03,6.01,8-7.86,16.29-17.59,25.75-24.19,3.72-2.6,10.32-6.94,13.36-9.37.8-.64,3.94.88,3.61,1.86-3.69,10.99-13.55,14.27-23.11,27.43l-10.09,13.88c-1.45,2.88-3.77,8.95-5.06,12.57l-4.56,12.85c-3.09,8.7-3.2,23.81.17,31.52,2.85,6.53,6.69,13.29,9.93,18.64,6.8,4.32,14.6,8.88,21.66,11.3,3.32,1.14,14.19,1.12,10.27,7.28-4.86,7.64-17.09.73-23.04-1.39-6.23-2.21-11.95-1.45-11.79-10.16l-10-.52c-.84-.04-2.76-.39-3.3-.49-.81-.16-.39-3.58.42-3.78l3.9-.95-10.12-19.05.52-36.19c.03-2,6-5.32,4.95-6.89-1.25-1.85-3.45-4.53-5.1-5.9-1.8-1.48-5.23,1.63-6.8,4.46l-10.38,1.53c-4.68,5.37-11.19,7.51-16.42,11.36-6.59,4.85-14.74,14.24-19.21,19.92-.97,1.23-.98,8.12-2.44,7.64l-6.95-2.27,3.79-7.97c1.19-2.5,2.99-5.31,5.34-7.85Z"/>
      <path class="st3" d="M939.53,933.5c-33.77,31.75-22.37,33.35-25.11,75.22-3.08,3.31-13.77-2-13.83-6.6l-.5-35.99c-.02-1.43-.83-5.37-.96-6.72-.16-1.67,3.77-2.96,5.29-4.2,4.87-11.69-3.45-27.88-14.11-35.77,1.55-.91,5.42-3.74,5.26-5.67s-2.31-5.36-3.85-7.4-.66-8.15-1.5-11.28c-9.85-36.48-32.23-34.22-22.44-51.19l19.21,12.71c8.62,5.7,18.39,11.49,19.35,22.83l7.58-1.47c1.67-.32.28,5.86-1.03,7.25-10.9,11.68,7.43,20.95-2.97,29.54,2.92,2.08,4.6,5.47,5.32,10.41l11.62,10.47c3.68-3.76,9.04-5.16,12.67-2.14Z"/>
      <path class="st3" d="M1366.11,743.56l5.68,9.64c2.08,3.53,2.26,9.8-.87,13.17-3.22,3.47-7.83,5.5-12.99,6.41l-3.15,1.84c-1.79,1.05-6.85.31-6.77-1.21.13-2.29.65-6.81,2.2-6.81,4.32-.03,15.1-3.08,12.29-10.23-2.76-7.01-11.27-15.71-18.33-18.2l-13.59-4.79-30.86-2.3c-9.5-.71-40.92-18.28-48.16-30.03l5.44-3.29c1.36-.82,3.9,2.93,5.04,4.61l10.77,1.59c3.26,3.53,8.23,3.2,12.45,4.62,11.65,3.95,22.27,5.81,33.83-.27l23.12-.86c1.76-2.06,7.7-6.17,9.37-4.38l11.79,12.64c-2.91,6.6-7.97-.08-17.85,2.59-1.66.45-2.98,6-1.69,7.17,5.83,5.3,17.59,10.13,22.28,18.08Z"/>
      <path class="st3" d="M1275.5,867.43c-1.96,6.81,7.68,12.94,12.79,10.06l10.59-5.96c.75-7.47,2-18.8-.48-25.78l-4.45-12.53c-2.2-6.21-6.13-16.22-11.26-20.5l-20.54-17.17c-.72-.6-6.39.41-5.93,1.23l2.51,4.52c3.19,5.73,16.69,28.79,10.19,32.95-1.62,1.04-7.18.31-7.46-1.56l-1.54-10.27-10.36-13.81c-4.34-5.78-9.69-11.89-12.82-18.08l-11.24-22.23c.93,1.85-13.53-26.71-6.99-25.73l14.87,23.56c4.2,6.65,34.86,25.75,43.18,30.12,8.42,4.42,21.61,24.44,24.64,31.42l4.87,11.24c2.25,5.2,3.1,10.29,3.87,16.1,1.99,15.04-7.47,27.72-20.49,30.21-1.87.36-5.24,3.76-6.56,2.97l-5.62-3.35c-9.74-5.81-11.65-17.66-10.63-18.75l9.86-10.54c2.91-3.12,10.2-1.91,12.83,1.39-5.43,1.78-12.27,4.98-13.86,10.5Z"/>
      <path class="st3" d="M722.86,735.17c15.44-29.92,25.12-9.94,20.76-31.3l-15.52-1.94c3.61-5.45,5.8-7.56,9.2-10.32,5.74-4.66,9.35-.97,15.69-.06l22.67,3.24c7.08,1.01,11.28,4.33,17.59-.3l11.23-2.23c4.99-2.43,9.75-3.63,15.49-4.27l4.07-3.97c1.24-1.21,5.88-.15,8.46,1.64-7.23,10.19-34.34,30.12-42.76,30.7l-31.68,2.19-12.1,5.23c-4.69,2.03-20.21,15.74-15.58,26.63,1.2,2.83,11.48-.6,13.41,3.74.68,1.53.8,5.38.14,6.41-13.4,5.89-25.56-10.15-25.32-14.6.2-3.8,2.56-7.49,4.26-10.79Z"/>
      <path class="st3" d="M1210.81,1066.67l4.94,15.98c1.09,3.51,4.6,27.83-2.99,30.15-11.01,3.37-2.88-17.32-6.48-26.56-2.64-6.79-13.64-27.26-18.42-34.22l-.3-60.34c3.2-1.33,8.9-.66,11.11,1.24,2.02,1.74,2.37,8.05,4.17,9.97l23.49,25.02c4.95,5.28,6.95,14.46,4.33,20.23-.84,1.85-7.7,1.3-8.23-.62-1.25-4.52-5.11-11.24-7.84-14.41l-6.6,14.17c-3.41,7.32,1.13,13.87,2.83,19.39Z"/>
      <path class="st3" d="M865.76,1112.22c-1.77-48.88,1.42-34.66,6.61-56.51.21-.9,2.18-3.37,2.72-4.12s-2.2-2.33-3.34-3.15l-2.02-20.97-8.22,7.98c-.76,6.44-2.28,11.38-8.75,14.83-5.23-28.56,1.81-23.85,17.69-44.89l15.19-20.13c.51-.68,1.73-2.9,2.14-3.59s2.12,1.64,2.76,2.41l2.89,3.47c.73.87-2.5,3.52-2.58,4.67-2.64,42.08,5.71,23.58,4.47,37.84-1.73,20.06-10.41,26.25-18.64,45.94-5.13,12.26,5.89,36.3-10.92,36.22Z"/>
      <path class="st3" d="M802.04,869.21c1.67,1.15,11.15-4.37,10.06-13.01-.32-2.52-8.25-3.62-8.73-1.11-.61,3.17.06,8.61-5.13,10.27l-.24-20.28c5.82-1.93,11.7-1.12,15.2,2.48s4.72,8.99,4.2,14.78c-.94,10.58-11.26,12.99-20.41,11.83-5.34-.68-11.2-2.06-12.97-6.94-1.58-4.35-2.92-7.33-4.67-11.17-6.03-30.18,7.58-25.4,8.64-47.97l7.87-8.62c3.49-9.42,11.82-14.25,22.38-21.79l18.4-13.13c10.72-7.65,19.59-17.01,20.83-31.02l6.98-6.51c3.47,4.61-.74,8.09-1.91,11.83-4.77,15.11-14.23,34.25-22.75,49.67-4.66,8.44-13.38,14.72-13.8,26.63-.17,4.8-11.27,7.03-12.02,3.4l4.15-15.47,4.57-9.25c1.66-3.36,5.04-6.89,8.04-10.08l-6.61-3.01c-13.4,15.26-23.35,18.12-29.98,36.93l-4.86,13.8c-2.83,9.08-.93,20.83-.8,30.42l7.88,3.41,5.67,3.92Z"/>
      <path class="st3" d="M1402.7,988.47l-23.46-12.42-1.97,7.81,24.86,23.51c4.95,4.68,7.26,13,2.35,18.19-5.57-13.21-19.88-28.08-28.92-33.95-2.88-1.87-12.74.89-32.56-17.46-3.48-3.22-4.76-8.88-2.12-12.32,4.24,4.21,9.22,8.73,14.69,9.52,1.67.24,3.36-5.3,2.95-6.94-.47-1.89-4.06-2.25-6.74-3.83-8.82-5.22-15.19-13.36-22.76-22.01,5.44-4.71,8.32.69,12.62,3.75,12.3,8.77,37.08,23.66,50.49,30.46,14.8,7.5,30.05,15.81,38.37,31.35l4.85,9.05c2.04,3.81,1.63,14.06-.19,18.03l-5.12,11.18-6.59,3.51c-3.49,3.71-10.31,5.08-12.96.25,5.59-3.97,13.82-8.97,15.2-13.74,3.97-13.7-1.6-24.17-10.73-32.3-3.69-3.29-8.43-9.62-12.24-11.63Z"/>
      <path class="st3" d="M821.7,1126.03c-12.56,9.79,6.5,10.34-16.06,34.38-4.7,5.01-9.64,13.52-18.25,9.83,13.69-15.3,23.46-34.23,19.8-52.85-12.73-3.23-7.03,8.51-22.37,19.56-.81-7.7-7.01-24.35-11.13-27.24l4.04-3.02c1.21-.91-2.23-4.76-1.84-6.2l2.75-10.01c.83-3.03,5.84-6.78,9.57-8.68l-.05-15.09,15.05,14.06c-11.22,6.46-.05,7.82-10.06,13.69l-.14,17.18,14.42.64.78-13.2c.05-.83,3.59-3,3.13-3.69l-3.05-4.69,13.17-9.09,1.48,23.18c.19,2.97,5.49,7.07,5.37,11.15-.11,3.47-2.49,6.88-6.63,10.1Z"/>
      <path class="st3" d="M1172.48,827.99c-9.14,6.33-29.27-2.96-30.43-2.85-7.71.74-8.05,20.45-22.47,24.56-.25-8.08-1-16.21.88-21.63l5.14-14.83c2.11-6.08,16.01-19.52,26.07-21.59,7.68-1.58,20.59-1.82,28.58-.12,2.65.56,7.36,3.8,10.96,4.91,8.04,7.61-11.81,26.77-18.73,31.55ZM1182.33,803.39c-.31-1.63-5.24-3.88-6.2-2.85l-4.23,4.55c-2.46,2.64-7.64,6.1-11.25,5.51-2.68-.44-7.27-3.38-9.66-4.77-1.35-.78-7.15-.03-6.62,1.36.94,2.43,4.78,10.99,6.44,12.3,5.21,4.12,33.87-3.58,31.52-16.09Z"/>
      <path class="st3" d="M1048.07,896.65l-4.61,11.16-1.99-3.7c-2.37-4.41-7,3.04-21.39-4.9-19.92-11-10.02-3.74-31.9-7.99l10.02-6.46c5.49-3.54,11.73-.83,17.02,2.2l9.18,5.25c3.66,2.1,11.78.73,16.95.23l-1.18-13.19-11.85-4.35-15.58-5.5c-4.65-1.64-9.6-.43-12.87-4.53l-2.92-3.66c-.81-1.01,3.12-2.86,4.25-3.51l6.79-3.88c1.98-1.13,7.6,2.63,9.79,3.31,21.79,6.84,7.74,16.58,24.07,8.71l6.94-3.35c5.11-2.47,9.32-3.96,15.68-4.11,3.98-.09,8.61,4.18,12.3,9.69l-18.43,1.52-11.24,9.54c-1.74,1.48-.33,9.46,1.3,8.8,2.81-2.32,5.38-4.87,7.36-5.37,2.3-.57,6.04,3.77,7.48,6.13l5.99-6.12c1.57,4.55,2.28,12.13-.47,14.25-1.68,1.3-7.52.43-7.76,2.13l-1.37,9.69-11.55-11.99Z"/>
      <path class="st3" d="M955.39,845.08c-3.98-8.6-6-14.69-8.45-22.61-2.05-5.14-11.06-1.41-15.51.95-5.63,2.97-17.83,2.36-22.94-1.86-4.57-3.77-9.38-9.43-12.93-13.91-1.02-3.7-.28-12.1.04-15.98l12.61-2.23c1.08-.19,4.4-2.4,5.57-2.81,1.34-.48,2.79,1.15,4.62,3.06l22,1.61c2.65.82,8.58,4.96,10.25,7.16l7.35,9.68,1.43,14.44c5.23,1.37,4.84,8.07,4.03,12.7-.55,3.14-4.06,6.63-8.07,9.82ZM932.69,800.82l-11.8,9.11-15.82-9.79c-4.94,1.84-5.91,3.54-1.62,4.72,5.92,11.4,18.11,13.94,27.75,6.78,1.39-1.03,3.78-4.07,3.95-5.56s-1.53-5.3-2.45-5.27Z"/>
      <path class="st3" d="M1311.79,1058.62c-15.58,3.07,1.05,6.51-30.62,4.54l-1.05-7.63c-.58-4.23,6.58,2.25,21.67-4.99l9.92-4.76c11.66-5.6,17.11-19.75,17.11-19.58l.38-15.72c.69-.33,4.24-.27,3.72-1.1l-3.15-5.02-1.63-15.87c-3.13-4.05-3.32-9.36-5.35-14.24-5.92-14.19-29.6-25.65-27.76-35.3,1.12-5.9,17.37,1.5,26.27,15.45,2.84,4.46,6.61,8.66,8.85,13.49,10.82,23.36,7.49,8.13,10.11,37.5,2.51-3.84,2.84-3.67,2.66-.44,1.93,7.88-.94,11.74-2.9,17.22-5.47,15.23-4.53,19.28-18.84,31.67-2.73,2.36-5.51,4.01-9.36,4.77Z"/>
      <path class="st3" d="M1374.91,904.53l-6.54,3.41c-2.57,1.34-6.09-4.2-4.71-6.24,5.57-8.22,5.17,1.87,13.01-15.93,2.26-5.13,1.22-14.5-.36-20.08-15.95-5.9-8.06,3-20.55,3.48-2.17.08-2.84-6.27-1.48-8.32,3.29-4.91,4.64-9.37,4.37-15.34-.19-4.05-4.75-8.63-9.21-12.35l-2.08-8.11-10.89-8.25c-4.31-3.27-11.25-4.35-13.12-10.59,4.13-.97,8.42.66,11.89,2.32l10.69,5.1c4.69,2.24,9.21,5.74,13.71,8.68,6.85,4.47,11.38,8.28,15.6,15.25l8.63,14.26c2.59,4.27,3.85,10.13,3.93,15.53l.3,19.33c.14,9.42-4.94,13.56-13.19,17.86Z"/>
      <path class="st3" d="M971.91,884.67c-13.7,34.78,13.64,27.47,4.07,46.8-4.7-5.1-10.09-8.73-16.23-10.84-10.46-15.6-7.77-31.05.23-46.44l17.28-33.3,4.4-9.2-2.56-5.76c-.79-1.77,2.65-6,2.89-7.95l2.4-20c2.98,5.14,3.65,6.63,5.44,10.46l1.87,3.99c.52,1.1-2.87,3.93-2.92,5.38l-1.58,39.71c-.17,4.28-.46,5.74.26,9.46l-3.08,7.41-2.07-9.7c-1.83.18-3.21-.04-3.45.83-.26.95-1.11,4.35-1.51,5.35l-5.44,13.81Z"/>
      <path class="st3" d="M1089.67,937.5c-2.16-12.2,25.84-26.48,11.08-47.23,1.82-1.76,4.18-4.46,4.49-6.33.35-2.18-2.91-6.17-4.56-8.09l-1.75-15.85-3.49-2.7c-2.16-1.68,3.19-3.62,4.43-8.3,1.01-3.81-5.67-4.91-5.17-10.34.15-1.66,2.32-3.43,4.73-5.78l.9-15.99c.05-.94,3.37-2.03,3.7-1.15-2.53-6.65,5.48,40.43,4.39,27.64l1.86,21.84,5.5,13.82,5.04,13.02c.26.68,2.16,2.36,2.7,2.85.72.66-2.16,2.37-3.61,3.37l-1.01,16.16-9.87,10.63c-5.38,5.79-8.4,11.96-19.36,12.43Z"/>
      <path class="st3" d="M947.56,708.65c-16.22,4.33-15.15,9.36-27.16,19.31-5.54-7.4.64-12.59,4.67-18.31,3.15-4.48,7.54-5.72,11.62-8.19,20.03-12.12,14.72-3.97,47.9-14.58l15.31-4.89c6.28-2.01,13.56-11.55,18.94-17.03.52-.42,3.32,1.11,3.13,2.23s-1.21,4.05-2,5.08l-10.58,13.77c-2.52,3.28-9.86,8-13.54,10.24l-10.06,6.11c-5.51.92-14.28.37-20,1.78l-18.22,4.49Z"/>
      <path class="st3" d="M1038.05,746.19c-17.25-35.09-34.48-15.17-41.06-32.53,12.15-6.09,43.07,5.92,46.78,17.45l14.82-11.78c2.14-1.7,8.09-4,10.79-5.11l16.02-6.55,9.89,7.11c-13.5,15.68-7.67,1.39-27.01,11.49-8.04,4.2-17.65,8.08-17.52,19.75-2.62.71-9.03.81-12.7.17Z"/>
      <path class="st3" d="M1164.9,705.66c3.97,7.89,12.91,12.53,6.49,23.25-5.26-5.68-11.33-13.62-15.13-18.89l-9.47-6.03-11.75-1.88c-6.09-8.05-1.65-.06-25.56-7.43-13.47-4.15-24.2-12.24-31.86-23.51l-1.98-2.91c-.53-.77.38-3.61,1.31-3.56,6.72.34,11.82,15.55,39.06,20.13,3.21.54,7.56,3.98,11.93,3.83,4.77-.17,9.18,1.24,13.15,2.71l14.13,5.24c4.45,1.65,7.33,4.39,9.68,9.06Z"/>
      <path class="st3" d="M1024.96,503.9c-11.4,4.49-16.38,18.34-12.1,29.8,2.07,5.54,9.4,8.27,14.19,11.1l14.95,8.85c-4.72,7.13-8.42,1.32-12.99-.21l-14.05-2.71-12.32-10.05c-.53-7.53-1.15-19.34.44-27.54.89-4.62,8.31-13.35,12.87-14.19,6.78-1.26,16.04-.79,22.98-.67l4.26,6.81c1.26,2.01,3.72,6.1,3.44,8.18-.56,4.19-12.92,20.05-19.86,11.66,3.61-3.16,8.81-7.36,9.75-10.6,1.59-5.5-6.44-12.45-11.57-10.43Z"/>
      <path class="st3" d="M990.58,672.57c-3.51,2.66-12.9,1.31-16.87-.26,7.57-9.86,14.8-18.5,18.55-28.91l3.42-9.5-2.51-4.87c-.61-1.19,2.99-4.12,3.17-5.58,1.93-15.58,5.04-11.94,17.33-30.91,1.2-1.85,7.34-1.28,8.32.07-3.47,3.94-7.99,8.04-9.06,11.46l-4.45,14.19-2.26,24.36c-.1,1.05-5.8,22.51-15.64,29.95Z"/>
      <path class="st3" d="M1283.44,1145.45c5.15,14.16,5.19,14.77,15.95,29.45-7.24-.61-13.27-6.61-19.22-11.58-5.09-4.26-10.15-9.28-10.17-16.2-.01-4.93-3.26-9.71-3.46-14.07l-1.73-37.86c-.16-3.6-9.35-6.98-1.14-12.98l11.32,13.08.95,29.73c8.45,8.9.2.36,7.5,20.43Z"/>
      <path class="st3" d="M1067.32,553.41c-3.06-9.08,6.28-9.53,11.05-12.38,8.33-8.28,24.07-23.43,13.52-34.58-4.29-4.54-13.61-5.85-18.8-.18-1.14,1.24-3.16,5.48-2.75,7.1.49,1.94,2.27,3.95,4.78,7.19-.23.69-4.01,2.85-5.64,2.72-4.02-.31-9.08-7.58-8.67-9.85.99-5.54,8.01-12.43,13.2-16.48,7.04-5.49,13.12-4.03,20.17.01,10.35,5.94,13.89,21.01,7.23,34.11-3.22,6.34-7.42,10.17-13.66,13.02l-20.43,9.33Z"/>
      <path class="st3" d="M1127.57,672.05c-4.96,3.96-13.51,1.28-16.9-3.25-10.55,1.83-14.03-6.02-17.54-13-.97-1.93-3.74-6.07-4.34-8.31l-5.36-20.17c-6.64-25.01,1.27-14.17-8.71-25.94,5.31-2.92,9.46,1.36,11.57,5.87l5.2,11.09c8.92,19.04-.83,7.85,6.66,23.02,6.84,13.85,14.82,21.85,29.21,23.16,1.63.15,1.72,6.33.22,7.53Z"/>
      <path class="st3" d="M1319.07,1104.39c-1.55,2.1-5.97,6.6-7.32,9.28l-5.7,11.31c-2.42,4.81-3.66,13.29-11.28,10.72l-.91-41.27c-4.79-2.93-10.56-8.86-8.61-13.92.84-2.21,8.3-2.73,9.93-.95l6.53,7.2c.95,1.05,5.12.8,6.31,1.57,2.93,1.9.69,11.77,3.14,12.78l7.91,3.27Z"/>
      <path class="st3" d="M1207.12,1169.37c-5.12,4.25-9.96-2.43-13.69-5.15-9.56-6.99-10.81-14.69-12.23-25.6-.58-4.44-5.48-10.09.76-14.53l1.58-11.77c3.61-6.04,4.42-10.17,4.13-18.76l8.64-.62c3.5,8.18-.93,15.57-2.56,22.94-1.33,5.98-2.63,32.01,1.65,37.26,3.44,5.61,6.81,10.2,11.73,16.23Z"/>
      <path class="st3" d="M1051.06,679.4c-.05,3.68-7.72,4.98-8.63,2.88l-4.88-11.23c-.57-12.14-2.95-28.47.61-39.66l5.33-16.74c1.59,3.74,6.74,9.3,6.99,12.38,1.16,14.42.82,35.69.57,52.37Z"/>
      <path class="st3" d="M1045.36,830.84l-6.48,18.18c-2.38-5.33-3.09-11.72-2.98-17.96l.36-19.68.79-43.58c10.21-.72,20.4,25.81,9.76,35.52-1.98,7.21,1.31,19.73-1.47,27.52Z"/>
      <path class="st3" d="M888.45,784.78c-8.06,3.3-16.14,11.22-24.6,3.05-3.47-3.35-5.28-15.47-.75-16.22l15-2.5c20.7,9.07,30.47-10.6,40.95-.15,2.62,2.61-4.9,7.97-8.5,7.37-9.01-1.51-15.6,1.79-22.1,8.46Z"/>
      <path class="st3" d="M972,793.18l-12.73-3.55c.84-11.94-16.87-17.02-24.94-19.66l5.85-10.34c1.57-2.78,5-7.05,6.63-8.77,2.73,9.51,8.75,22.69,14.81,25.08,8.52,3.37,19.23-8.7,20.24-4.69l1.79,7.13c.61,2.44-.38,10.2-2.34,11.86-2.18,1.85-6.41,3.75-9.32,2.94Z"/>
      <path class="st3" d="M896.43,1144.6c-4.03,7-11.67,30.13-26.48,24.79,9.82-7.53,15.59-18.34,16.46-29.45.12-1.51,3.17-4.6,2.68-5.91l-2.13-5.72c-.3-.81,2.39-3.04,3.1-3.53-4.06,2.81-8.38-32.97-1.58-37.16l2.76,13.6c3.85,3.94,3.42,11.04,5.25,15.59,3.94,9.83,5.53,18.12-.05,27.8Z"/>
      <path class="st3" d="M1215.32,775.01c4.44,4.69,7.31,8.33,7.33,11.89.03,4.41-5.69,10.28-11.67,11.03-8.68,1.09-20.49-15.09-41.66-17.98-1.58-.22-1.99-6.15-.65-7.02,3.48-2.27,12.49-2.7,16.2-.66l10.1,5.56c7.25,3.99,14.47,6.08,20.34-2.82Z"/>
      <path class="st3" d="M1262.9,980.37l-10.82-6.6c-4.08-2.49-12.04-11.4-25.3-13.56-1.71-5.44-.36-14.56,6.95-14.36l9.82,9.71c3.18-1.36,6.32-2.2,8.14-.94,2.29,1.59,4.08,5.77,4.94,8.85,2.23,8.05,13.34,4.17,13.91,15.32.1,1.98-5.72,2.74-7.64,1.57Z"/>
      <path class="st3" d="M1135.77,782.89c-4.85,3.16-17.43,20.04-30.56,10.97-2.66-1.84-7.06-8.83-4.74-11l12.15-5.75c3.73,2.7,10.38,5.61,14.16,3.36l10.07-6c3.67-2.19,7.93-7.28,12.98-.73l-14.06,9.15Z"/>
      <path class="st3" d="M1016.52,562.76c.93,3.69-7.63,10.13-10.61,8.19-12.33-8.05-21.36-17.82-29.02-29.95,1.96-5.65,5.07-10.33,10.23-14.74l1.28,19.52,28.12,16.98Z"/>
      <path class="st3" d="M839.73,959.93c-23.85,13.45-14.26,19.29-27.07,14.76l5.56-11.85c4.3-1.7,8.88-3.65,11.93-6.74l18.47-18.69c2.8.79,7.62,5.15,7.91,7.97.38,3.66-3.56,7.08-6.93,8.98l-9.88,5.57Z"/>
      <path class="st3" d="M868.71,693.46l-8.38-8.06c12.93-12.35,23.37-12.05,26.77-26.01l12.26.22c-3.09,6.51-3.73,7.84-4.28,13.73-7.83,6.79-16.76,13.49-26.37,20.13Z"/>
      <path class="st3" d="M1107.29,1026.59c-1.33.35-4.73-1.49-5.93-.79-1.73,1.01-5.72,4.51-7.53,4.12-2.11-.46-5.59-1.73-7.1-2.34l14.64-10.67c4.12,2.23,8.63,3.12,13.61,1.48l-8.05-8.54c-2.02-.69-6.82-1.39-7.08-3.14-.32-2.1,2.75-7.57,3.92-6.14l2.86,4.57c9.39-10.97,1.97.5,19.11-8.06l22.83-11.41c3.07,10.52-6.02,12.86-12.51,15.82l-20.64,9.42-.66,4.9,16.89-1.55c5.2-2.43,12.24-8.03,17.55-1.43-2.2,3.87-8.75,6.62-12.85,8.54-16.86,7.91-6.92-.53-29.06,5.23Z"/>
      <path class="st3" d="M722.89,1088.65c-29.08,16.45-28.99,5.78-28.01,5.51.91-.26,4.21-1.16,5.09-1.58l12.98-6.17c10.27-4.88,19.48-32.55,30.03-26.24l-3.79,12.85c-.76,2.58-5.54,5.68-7.75,7.54-1.06.89-1.81,4.56-2.63,5.72-.83,1.16-4.33,1.47-5.91,2.37Z"/>
      <path class="st3" d="M1080.89,1043.5c-.73-3.26,5.24-8.26,7.92-7.65.81.18,3.11,1.58,3.84,1.96.98.51,3.56-2.43,4.68-2.48l32.57-1.66c4.71-1.1,9.59-8.37,14.85-1.59-30.34,16.09-23.96,12.58-63.87,11.42Z"/>
      <path class="st3" d="M971.06,1131.2c-6.71-2.05-8.47-11.83-8.14-17.18.11-1.82-5.39-3.26-6.61-2.1l-5.53,5.24c-2.04,1.11-3.78-8.38-1.49-8.69l12.77-.11c1.37-5.01,3.36-10.98,7.21-15.23,1.85-2.04,8.98-.48,9.06,2.15.11,3.51-1.46,6.42-4.56,9.66-.5,3.33-.76,11.43-.69,15.45l4.97,4.19-6.99,6.63Z"/>
      <path class="st3" d="M1225.82,702.93c-21.94-12.47-10.93-2.4-28.81-21.69-4.66-5.02-7.23-10.38-2.56-17.63l23.03,23.64,8.81,2.69-.47,12.98Z"/>
      <path class="st3" d="M1388.83,1095.17c-8.01,9.79-28.34-8.96-28.66-9.38l-11.32-14.92c-.83-1.09-.04-5.96.47-7.22,1.63-4.05,15.36,9.79,16.79,11.41,8.14,15.84,6.84,7.61,22.72,20.12Z"/>
      <path class="st3" d="M1092.34,576.52c-1.5.84-10.81-7.67,15.13-21.68l6.2-9.95,1.91-11.32c.33-1.95,7.69-2.33,8.12-.36.5,2.3-.87,6.39-1.89,9.06-5.22,13.64-11.9,24.45-24.97,31.74l-4.49,2.51Z"/>
      <path class="st3" d="M1003.28,1037.21c-10.68,2.29-20.02,1.5-29.02,4.5-8.3,2.77-12.74,5.59-23.62-1.26l-6.25-3.93c-1.63-1.03-.76-6.59.94-7.55,2.7-1.51,8.55,3.91,11.53,4.45,8.79,1.6,20.03,1.01,29.26.39l17.16,3.4Z"/>
      <path class="st3" d="M1201.68,818.8c9.06,13.41-24.95,38.64-29.6,28.69l13.16-13.84c5.03-5.29,9.05-11.37,16.44-14.85Z"/>
      <path class="st3" d="M954.62,1011.02c14.86,8.86,36.4-1.96,39.46,8.03-14.97.82-32.92,1.71-47.18-.44-3.27-.49-9.42-4.5-12.37-5.64-.98-.38-.69-5.22-.57-6.26s3.41-2.03,3.96-1.13l2.46,3.99,14.25,1.46Z"/>
      <path class="st3" d="M1095.08,1129.19c-.11,2.29-.63,7.71-2.23,7.47l-6.05-.92c-1.58-.24-.85-5.94.46-7.39,9.67-10.69-7.68-18.77.05-30.14,8.16,4.59,15.9,13.88,11.94,22.29-1.07,2.26-4.05,6.35-4.16,8.7Z"/>
      <path class="st3" d="M1062.42,699.48l-11.5,12.09c-5.53,5.81-11.76-.22-17.26-3.12-1.78-.94-7.32-.84-7.34-2.64-.25-20.95,12.5,4.34,23.36-4.19,3.51-2.76,4.68-6.3,12.73-2.14Z"/>
      <path class="st3" d="M903.48,848.33l-15.3-11.92c-4.18-3.26-7.05-4.73-9.31-10.18l-2.86-6.88c-.8-1.92,4.8-4.11,6.85-4.44s2.09,6.5,3.65,8.08l15.08,15.24c.7.7,3.23,2.21,3.91,2.72s-.19,1.92-2.03,7.38Z"/>
      <path class="st3" d="M1031.9,1161.04l-9.21-1.11.49-15.57c6.02-6.3,1.38-19.31,5.99-17.06,1.02.5,2.99,3.13,2.98,4.6l-.25,29.14Z"/>
      <path class="st3" d="M959.46,998.52c-23.19,5.77-17.55-1.75-25.51-2.76-3.28-.42-8.48-1.74-11.27-3.94-2.45-1.93-3.15-7.43-2.14-10.19,7.76,4.67,12.5,7.25,19.04,9.99l19.89,6.91Z"/>
      <path class="st3" d="M1354,1125.18c.46,7.49-9.76,9.54-5.35,13.7l5.42,5.1c-4.23,4.75-10.47,2.23-13.63-2.48-4.93-7.35,1.81-18.43,7.13-19.52,1.81-.37,6.32,1.4,6.43,3.2Z"/>
      <path class="st3" d="M1052.62,920.81l-32.08,2.49-8.33-9.22c7.24-3.64,12.65.39,19.2,2.5,6.4,2.06,14.07-1.67,21.21,4.23Z"/>
      <path class="st3" d="M745.13,1124.96c2.28,3.25,4.28,8.31,4.22,12.63-.04,3.08-4.73,6.28-9.44,7.38l-.85-18.43c-.05-1.07.55-3.83.8-4.58s1.92-1.78,2.38-1.13l2.9,4.13Z"/>
      <path class="st3" d="M996.41,765.49l-13.04.88c-.52-2.24-.82-7.77.71-8.8,1.54-1.03,6.71-1.61,7.82-.13s1.89,3.14,4.5,8.05Z"/>
      <path class="st3" d="M1182.33,803.39c2.35,12.51-26.31,20.21-31.52,16.09-1.66-1.31-5.5-9.86-6.44-12.3-.53-1.38,5.27-2.14,6.62-1.36,2.39,1.39,6.97,4.32,9.66,4.77,3.61.6,8.79-2.87,11.25-5.51l4.23-4.55c.96-1.04,5.89,1.21,6.2,2.85Z"/>
      <path class="st3" d="M932.69,800.82c.92-.03,2.62,3.78,2.45,5.27s-2.56,4.53-3.95,5.56c-9.64,7.16-21.83,4.61-27.75-6.78-4.29-1.18-3.32-2.89,1.62-4.72l15.82,9.79,11.8-9.11Z"/>
    </g>
  </g>
  <text class="st1" transform="translate(432.29 1652.69)"><tspan x="0" y="0">Legado &amp; Co</tspan></text>
</svg>