<?xml version="1.0" encoding="UTF-8"?>
<svg id="Layer_1" xmlns="http://www.w3.org/2000/svg" version="1.1" viewBox="0 0 2000 2000">
  <!-- Generator: Adobe Illustrator 30.1.0, SVG Export Plug-In . SVG Version: 2.1.1 Build 136)  -->
  <defs>
    <style>
      .st0 {
        display: none;
      }

      .st0, .st1, .st2 {
        fill: #3c5a9a;
      }

      .st3 {
        fill: none;
        stroke: #3c5a9a;
        stroke-miterlimit: 10;
        stroke-width: 4px;
      }

      .st1 {
        font-family: SnellRoundhand-Bold, 'Snell Roundhand';
        font-size: 178.93px;
        font-weight: 700;
      }
    </style>
  </defs>
  <g>
    <path class="st0" d="M706.41,808.36l3.51-1.75c.52-.26,1.09,1.32.86,1.7l-2.46,2.57c-.6.63.68,2.99,1.21,3.81l5.78,8.97,9.31,15.14,7.03,11.87,6.57,12.57,5.23,9.08,10.32,19.01c.99,1.82,2.16,4.63,3.08,6.54l3.27,6.83c3.78,7.91,2.93,8.73,6.06,15.68l3.01,6.68,3.57,7.91,1.27,13.52c-.97-10.32,5.61,24.53,4.69,16.45,1.13,9.85-.86,22.89,3.94,23.72-5.25,3.82-1.35,9.23-.98,12.86,1.64,16.05,3.54,33.16.24,49.66l-2.22,11.12-.77,37.38c-.08,4.01-3.83,8.2-2.56,13.3.91,3.68-1.33,6.73-2.37,10.07-2.52,8.09,1.98,17.73-3.46,17.88l-1,14.7c-4.3,4.02-4.95,18.59-11.26,24.81-.47,2.07-1.14,5.15-1.88,6.58l-6.37,12.41c-5.78,11.27-12.94,21.05-19.83,31.36-8.13,12.17-16.71,22.66-27.71,32.24-6.03,5.25-11.29,12.01-17.75,16.72l-13.05,9.5-9.14,6.34-7.45,5.02-11.54,7.55c-2.44,1.6-5.47,3.75-8.11,5.16l-20.4,10.9c-5.05,2.7-10.54,4.9-15.65,6.93l-14.49,5.76c-2.52,1-4.82,1.32-7.04,2.88l-8.25,1.47c-3.6,1.91-7.44,2.05-11.66,3.04l-14.26,3.36c-3.38.8-6.55,2.2-10.42,2.08-7.17-.23-5.18,4.69-24.52,3.4l-4.53,2.97-51.3-.12c-1.46-.97-3.94-3.63-5.38-3.36-1.61.29-3.61,1.39-5.8,2.97-1.22.87-4.06-.59-5.6-2.11l-12.31-.98c-1.86-1.12-5.7-3.57-7.87-3.01-7.14,1.84-11.78-1.17-17.77-2.32-4.93-.94-10.04-.2-14.67-2.34-3.71-1.71-8.82-1.07-14.11-1.05-1.51,0-4.36-1.81-6.14-2.41-3.31-1.12-8.37-.77-11.84-1.71-1.32-.36-3.38-1.9-4.33-1.5l-3.01,1.29c-2.74-1.32-5.65-2.21-8.95-3.08l-11.47-3c-3.57-.93-8.42-1.91-11.56-3l-9.41-3.26c-2.64-.92-8.33-5.31-10.21-.49-.9,2.31.03,7.25,1.46,8.83,1.21,1.34,4.87,2.53,6.27,1.39.97-.79,3.98-3.39,3.98-2.15.01,1.74.56,3.82.71,4.77s3.24.91,4.06,1.6c2.14,1.82,5.64,3.02,9.2,2.48,4.04-.61,7.22,1.63,10.23,2.34,4.37,1.02,8.16,1.76,12.27,3.11l8.46,1.52c3.13,2.33,7.27,1.92,10.07,3.11,14.62,6.2,8.88-1.66,19.96,5.14l11.29.87c.96,1.06,2.37,3.2,3.23,2.8l3.25-1.53c1.43-.67,3.43-1.53,4.7-2.02.88-.34,2.41,2.08,3.31,2.51l8.98,4.3c5.93-1.33,11,1.48,16.17,2.11,10.86,1.32,21.67.27,32.34.92,6.93.42,13.56.1,20.5,0l19.32-.28c1.81-.03,4.99-1.73,6.94-1.91l21.86-2.08c3.87-.37,6.98-2.44,11.44-2,3.07.3,5.48-.98,7.86-2.76l9.24-1.06c4.76-5.39,13.44-.86,10.04-3.37l-1.73-1.27c3.64-.72,7.53-1.22,10.33-2.26l14.6-5.44,3.68-1.64,9.85-3.44c19.96-6.96,24.76-11.81,40.6-21.68l20.89-13.02,7.54-4.85,15.54-9.96c6.45-4.13,11.58-10.34,16.94-15.68,5.97-5.94,12.29-11.58,17.14-18.2,1.75-2.39,3.06-4.73,4.95-6.74,7.05-7.48,12.09-12.41,17.67-21.28l11.4-18.11c4.02-6.39,7.95-14.06,10.58-21.54l2.79-7.94c3.41-9.67,7.25-16.55,9.24-25.82l3.32-15.49c.93-4.34,2.58-7.63,3.12-11.87l1.44-11.31c1.58-3.84,3.64-8.51,2.5-12.53-1.73-6.08,2.66-10.37,2.68-15.01l.37-75.34c.04-7.56-4.44-9.92-3.18-26.02l-3.08-2.8.06-24.77c0-1.68-1.67-4.34-2.6-5.97l-1.07-12.54-3.25-9.35-3.4-9.93c-4.95-14.45.42-3.35-4.24-14.96l-3.37-8.42c-1.18-2.94-2.47-6.15-3.36-9.05-1.41-4.61-3.82-7.44-5.69-12.14l-3.41-8.6-3.49-6.81c-4.83-9.43-6.14-6.62-9.03-16.42-1.27-4.31-3.57-7.15-6.09-10.94-1.85-2.79-3.79-6.08-5.93-8.89l-5.42-7.09c-.23-.3-6.55-8.56-2.56-7.23-3.92-1.3-7.46-9.23-17.09-16.63-2.89-2.22-3.5-6.32-5.25-8.08l-18.64-18.64c-1.28-1.28-5.05-2.33-6.25-3.72-2.22-2.57-4.76-3.23-7.77-4.86-2.5-1.36-5.62-6.94-8.35-7.37-4.93-.78-7.96-1.61-8.55-6.9l-11.76-.27-.67-8.34c-3.24-.77-6-1.4-8.4-3.05l-8.59-5.92c-1.83-1.26-5.81-2.02-8-3.02l-9.24-4.23-19.23-9.73c-9.03-3.5-1.04.52-13.14-5.09-16.49-7.65-3.08-.89-19.84-6.49l-8.9-2.98-10.36-1.95c-4.51-.85-7.74-2.41-12.75-1.98-2.7.23-5.19-.98-6.97-2.84l-15.96-.77c-1.49-1.51-4.25-2.61-6.92-2.61l-82.57.04c-9.1,6.51-10.25-.28-17.63,5.57l-10.84,1.15c-5.25,1.93-10.29,2.16-15.56,3.5l-12.45,3.17-12.16,2.88c-2.01.48-5.56,2.26-7.75,3.13l-7.24,2.86-17.88,7.47c-6.13,2.56-11.39,5.59-16.06,10.18-1.4,1.38-4.71,2.45-6.24,4.69-1.22,1.78-6.27,1.88-8.19,3.15l-10.67,7.02c-1.84,1.21-4.34,3.52-6.1,5.16-4.24,3.96-8.49,7.04-12.91,10.38-3.56,2.69-6.6,5.64-10.42,8.14s-8.66,6.78-11.68,9.88c-.85.87-.42,4.5-1.52,4.84-10.84,3.34-1.41,1-13.65,10.51l-2.05,4.61c-4.12,3.13-6.5,7.06-9.08,11.44l-7.03,11.94c-1.91,3.25-3.9,6.22-6.05,9.22l-7.12,9.91-2.12,3.58c-3.22,5.45-6.58,10.38-9.14,16.15l-2.97,6.69c-2.19,4.94-4.78,9.49-6.49,14.43l-2.73,7.87-3.25,9.08-3.24,9.03c-6.05,16.89-8.36,13.54-8.66,26.98-4.91,5.88-5.6,13.12-6.79,19.34-.48,2.54-2.4,5.93-2.45,8.81-.06,3.8-1.31,7.1-1.96,10.37-1.01,5.08-1.8,8.8-3.67,13.64-.94,2.43-.08,8.2-1.33,10.4-1.34,2.36-3.06,5.16-2.41,8.09,1.2,5.4-2.27,8.6-2.43,12.87l-1.15,29.49c-.06,1.53-2.6,4.12-2.17,5.34.36,1.01,1.82,3.17,1.98,4.25l1,6.98,2.27,2.11c-4.05-3.77-2.76,29.75-1.11,36.93,3.53,15.37-.37,10.14,4.22,17.49l1.2,10.87c2.39,4.35,2.42,7.85,3.09,12.9.72,2.84,4.3,8.1,5.45,10.86.12,5.63.57,9.63,2.67,14.25,7.59,16.68.72,6.95,6.51,18.69l1.18,10.17,5.32,1.6.48,7.6c2.28,1.89,2.11,4.97,3.3,7.29,2.49,4.87,5.94,9.61,9.02,14.11l4.18,6.12,6.14,9.65,7.38,9.77c3.7,4.91,7.54,9.38,11.61,14,5.76,6.53,10.81,14.02,18.99,18.97,4.77,2.89,8.35,8.84,13.81,11.38l9.52.57-2.97,5.18c5.46,4.64,11.93,8.32,17.66,11.78l9.18,5.54c2.87,1.73,5.96,2.52,9.38,2.33l5.69,5.88c1.25,1.29,5.92-.94,6.9-1.74.47,3.63,2.75,6.5,6.54,7.56,2.42-5.13-.77-12.82-4.85-14.66-5.97-2.7-1.63,5.42-5.74,6.09-1.31.21-5.1-.92-4.39-1.91,1.08-1.49,2.76-2.35,2.54-3.07-.18-.58-1.27-2.1-1.45-2.8-1.99-7.81-6.48-5.61-18.6-17.45-2.31-2.26-8.47-5.39-11.87-5.76-2.73-1.98-6.25-6.43-9.38-8.37-3.61-2.24-5.99-3.79-8.79-7.34l-8.4-.84c1.06-6.48-2.4-11.38-8.33-12.76l-2.76-4.68c-5.25-2.16-8.12-5.69-11.59-9.96l-11.39-14.02c-.77-.94-.76-4.15-1.78-4.54-9.98-3.78.71-.3-9.89-14.29-1.29-1.71-2.39-5.57-3.68-7.64l-8.97-14.38c1.1,1.76-4.84-12.36-4.99-12.75l-3.05-7.82c-1.04-2.65-2.25-5.51-3.39-8.01-5.57-12.22,1.29-6.99-4.66-16l-1.28-11.56c-1.6-2.47-2.99-4.81-2.56-8.39.26-2.19-1.47-4.93-1.91-7.05-1.46-7.16-1.35-17.1-1.42-23.85-.01-1.34-2.02-4.31-2.13-5.45l-1.52-16.05-1.96,2.21c-.06-2.98,1.53-5.5,2.03-8.12,1.05-5.52,1.2-14.23-.51-19.38-2.64-7.96-1.58-13.47-.15-21.19,1.88-10.13,1.3-40.34,2.59-40.65l4.63-1.12.89-14.49c6.47-10.22-.74-2.38,4.98-20.93l3.05-9.9,3.38-10.42c.59-1.83,2.14-4.19,2.93-5.51.73-4.22,4.77-14.42,6.26-17.95l7.82-18.55,3.25-7.4,2.82-7.13,5.2-12.5c5.94-14.27,6.53-8.48,6.78-19.2l5.23-5.82,6.02-10.53c1.26-2.2,2.45-4.38,4.06-6.19,3.37-3.77,6.02-7.54,9.4-11.38l20.28-23.07c4.76-5.42,10.03-11.46,16-16.36l18.61-15.28c1.67-1.37,4.55-2.99,6.64-4.52l15.82-11.6,8.18-3.27c5.98-2.39,10.86-6.75,16.64-9.59l5.13-2.52,19.93-9.5c8.61-4.11,14.14-3.17,18.8-6.52l9.36-1.05c2.1-1.95,4.03-2.8,7.16-2.72,3.38.09,5.84-1.84,9.22-2.25l12.99-1.57c3.55-.43,6.62-2.98,10.24-2.17s6.66-2.22,9.32-2.56c13.53-1.75,27.22-.1,40.88-1.1,5.6-.41,10.73-.48,16.31,0,8.28.71,17.06-.49,25.15,1.1,2.91.57,5.42,3.26,9.34,2.5,3.41-.66,7.04,1.2,10.14,2l12.44,3.21,9.99,1.44c3.15,2.08,6.42,2.27,9.97,3.44l9.12,3c2,.66,5.02,2.32,7.25,3.21l8.04,3.18,7.56,3.08c10.02,4.09,4.86,1.03,14.77,6l13.49,6.76,30.27,16.65c3.57,1.96,6.57,3.02,8.95,7l8.58.76,1.16,5.8c16.72,14.25,20.77,15.87,36.53,32.31l1.8,1.87c1.39,1.44.75-3.15,4-3.12.44,0,1.33,1.43,1.03,1.76l-1.66,1.87c.28,2.91,3.41,8.26,6.43,8.12ZM515.31,728.69c18.05,5.16,5.96-.08,20.54,4.59,2.95.95,5.38,1.91,7.99,3.3l8.2,1.31c2.7,1.48,4.94,2.41,7.86,3.46l8.09,2.91c5.94,2.14,11.95,6.79,17.94,8.27,3.61.9,5.81,1.2,8.01,2.64l5.43,3.54,7.23,1.43c2.47,2.91,5.55,4.02,8.36,5.81l18.47,11.72,6.42,4.48c4.38,3.06,8.99,5.47,13.97,5.91.56,1.84,1.52,4.8,2.66,5.6.98.68,4.53-.33,4.55-1.6-.54-4.83-6.42-9.12-10.58-11.74-5.06-3.19-9.26-8.26-13.93-11.01l-14.42-8.47-6.92-4.16-3.68,2.13c6.11-3.54-23.71-15.09-24.09-15.26l-20.89-9c-2.45-1.05-5-1.62-6.97-2.44l-8.46-3.51c-2.24-.93-7.64-.18-9.74-1.21-3.1-1.53-5.7-2.68-9.05-2.53-4.52.21-7.65-1.27-11.86-2.38-5.42-1.42-12.23-.56-18.19-.96l-5.05-2.92-18.86.03-4.38-2.86c-16.16-.35-33.09-.99-48.73.67-2.31.25-6.08,2.49-8.25,2.42-29.64-.94-10.15,4.23-27.09,2.87-3.66-.29-6.6.54-9.19,2.61l-8.27,1.31c-3.32,1.29-6.04,2.23-9.33,3.22l-10.07,3.03c-13.61,4.09-12.35,5.9-22.02,9.39l-8.44,3.04c-8.85,3.19-13.84,7.72-25.16,13.79-13.49,7.23-3.26,4.75-14.53,8.45l4.16,7.88,6.89-5.26c1.66-1.27,4.32-3.15,6-4.03l19.08-10c2.08-1.09,4.18-1.68,7.22-2.55,4.12-1.18,8.86-4.14,13.09-5.59l7.35-2.51,9.74-3.24,9.96-3.13,10.52-3.2,11.96-3.21c3.05-.82,5.25-1.64,8.26-2.83,6.77-2.67,14.76,1.91,21.21-3.96l77.91-.14c1.06,0,3.64,2.57,4.65,2.77,3.44.69,10.74.04,14.47,1.11ZM382.8,1178.96c-.15,6.46,1.12,13.54-1.5,19.41-1.65,3.69-2.61,9.91-.57,12.92.54.79,3.72,1.68,4.22.95.99-1.45-1.92-7.36,16.86-17.92,4.59-2.58,9.85.29,11.53,4.47,1.83,4.53.72,9.94-3.66,12.23-.48.25-2.09.43-2.32-.02l-.64-1.26c-.72-.44-3.2-3.34-2.4-4.28l3.87-4.53c-3.45-1.88-7.97-1.31-10.84,1.82-3.93,4.28-2.4,13.77-.66,19.45,2.03,6.63,6.55,9.77,12.06,12.83,6.53,3.62,10.27,2.43,16.45-.41.81-.37,16.57.55,20.76-11.87.75-.78,2.99-1.4,4.02-1.09,5.51,1.64.52,11.86,21.33,16.7,6.04,1.41,10.07,3.8,16.82.31,6.27-3.23,15.51-4.52,19.04-13.02,2.43-5.87,5.19-6.46,3.15-15.08-.48-2.04-6.17-4.68-7.64-3.09-1.14,1.23-1.6,5.2-2.08,7.36-.38,1.71-5.07.01-5.67-1.5l-2.65-3.04,9.75-9.95c3.14-.49,4.66-1.03,7.55-3.76l9.35,8.79c.91.85,1.56,4.55,2.01,5.92,2.89,1.12,8.44,1.51,10.9.4,3.12-4.17-1.2-8.26-1.7-11.55l-2.35-15.41c-.3-1.99,1.53-5.02-.34-7.92-1.31-2.04-1.48-7.55-.41-9.91,3.92-8.66,1.85-12.52,10.66-26.78,2.25,5.47,1.25,10.62-1.32,14.63,1.16,1.41,2.83,3.06,2.34,4l-2.52,4.82c-2.35,4.5,1.19,22.57,1.66,26.22l1.07,8.32c.28,2.21,1.12,4.67,1.89,6.95,5.09,15.02,14.67,17.84,27.17,20.45,1.94.4,4.65,3.33,7.48,2.85,4.95-.84,9.04-6.93,11.63-11.63,1.85-3.37.87-5.83-.32-9.18-1.46-4.14-1.72-6.88-5.96-8.85-12.78-5.94-7.78,6.7-15.66,3.24l2.39-8.02c10.81-1.08,3.63-4.88,12.58-1.75,11.23,3.92,19.47,18.57,13.1,28.13.64,2.82,4.83,4.94,8.62,4.46l4.22,3.08c4.25.12,7.21,2.43,11.06,2.7l14.62,1.04c-.49-.04,24.14,6.9,36.78-6.42l6.32-6.66c2.75-2.9,4.13-6.75,5.6-10.29,1.99-4.79,2.14-7.77.77-12.44-2.25-7.7-6.71-13.43-14.81-16.65-10.79-4.3-17.38.51-24.12,9.03-1.15,1.45,1.08,5.34,1.6,6.88,2.79,8.15,10.32,13.99,19.37,10.09l1.62-11.43c7.29-.45,5.81,13.25,4.39,14.63l-7.41,7.16c-16.64.51-8.92,1.17-18.05-3.76-11.62-6.27-7.78-14.94-8.27-25.96l7.16-7.36c2.25-2.31,6.7-3.1,9.31-4.39,5.22-2.56,7.84-2.55,13.2-.44,4.24,1.67,7.97,3.37,11.81,6.26l8.44,6.36c2,1.51,8.04,1.62,10.32.61l8.11-3.6c2.16-.96,5.22-5.37,6.65-7.41.16-4.41.69-10.87-.74-14.18l-3.72-8.61c-18.98.24-27.45,2.08-37.64-15.06-2.96-4.98-1.82-9.66.91-14.57,1.53-2.75,2.06-8.75,7.7-6.44-3.73,6.77-5.82,14.93-2.19,20.05,3.86,5.43,7.98,8.64,13.16,11.36,4.95,2.6,7.86.41,12.32-.61,9.68-2.22,17.23-6.21,21.24-16.41,1.14-2.9.14-5.22-.41-8.49-1.08-6.41-2.73-9.96-6.5-15.2-1.4-1.94-2.77-4.62-4.72-6.5-5.78-5.57-11.53-11.15-16.17-17.5l-7.68-10.5-.81-14.06c-1.76-.02-4.87.28-6.32.92l-6.37,2.82c-15.93,7.05-29.15-6.65-30.58-13.82-.83-4.13-.37-9.37.67-13.44.6-2.36,5.76-4.96,7.87-6.12l3.25-1.79c.56-.31,1.31,3.26.88,3.73l-6.3,6.95-.22,10.21c3.09,3.32,6.16,6.68,9.55,9.23,7.03,5.31,22.44-4.67,23.7-6.36,1.05-1.42,2.62-4.71,3.46-6.43,5.99-12.34,3.87-3.56,3.94-22.72-1.41-.51-2.22-.36-2.4-.98l-1.04-3.69c-.55-1.96-1.04-4.77-1.61-6.42-5.02-14.68-14.3-23.41-26.97-31.7l-10.74-7.03c-8.62-5.65-8.86-3.12-21.49-12.31-3.46-2.52-9.23-3.99-6.64-10.29l5.89,5.18,7.59,3.55c3.36,1.57,6.43,4.02,9.41,5.67,8.08,4.48,16.12,8.63,24.03,12.32,3.13-.88,6.75-1.64,10.97-2.37l.67-5.13c3.73-.26,6.65-1.86,8.28-5.27,4.17-8.71,5.66-5.04,3.34-22.11-3.58-8.48-10.27-13.99-16.54-19.92-6.45-6.09-12.85-12.65-18.16-19.58l-9.35-12.22c-2.38-3.12-4.88-8.53-6.79-12.15l-5.36,9.33-7.73,14.01c-1.51,2.74-4.97,9.35-8.5,7.85-5.49-2.33.6-6.09,1.7-8.05,3.97-7.11,7.69-13.98,11.17-21.41l3.19-6.82c-9.45-15.21,9.14-5.22,7.09-19.78l3.19-5.74-.26-19.74c-2.39-1.72-7.09-5.07-9.44-4.44l-8.47,2.28c-4.19,1.12-10.49,5.73-12.22,9.64l-3.06,6.93c5.71,10.62,4.85,22.29-5.87,31.03-6.17,5.02-13.1,7.04-20.53,3.31-5.34-2.68-12.18-7.13-10.43-13.82,1.86-7.12,7.44-10.86,14.29-9.47,1.79.36,5.46.31,5.65,1.78.24,1.8-.03,4.61-.44,7.35l-7.04-5.58c-1.94,1.15-6.8,4.9-7.66,7.45.1,10.25,11.57,6.22,13.85,9.71l6.63-2.71c2.39-.98,5.23-4.19,8.14-7.35l-7.31-3.25,6.99-1.23c.34-4.71-.69-8.65-3.7-12.03-2.47-2.78-8.48-3.61-11.6-3.93-.52-.05-1.51-2.33-1.89-2.69s-1.66-.12-1.99.29-.35,1.99-.85,2.11c-12.6,3.06-3.42-3.27-21.07,7.29l.31-8.46,12.42-12.16-4.05-9.61c-8.44-20.01-14-15.78-26.1-21.42-4.5-2.1-8.41-.33-12.3-.66l-12.97-1.1c-18.79-1.6-12.66-12.43-31.95-25.25-5.28-3.51-9.95-4.33-15.06-.31l-6.15,4.84c-.99.78-3.26,2-4.41,2.15-.92.12-2.38-1.69-3.32-2.18l-8.66-4.49c-19.73,9.2-16.61,15.92-32.49,24.44-17.82,3.71-16.32-2.61-24.52-2.38-3.73.1-7.29-.51-10.14-1.42-.99.4-5.36,1.21-6.57,2.18-17.76,14.35-14.81,24.19-24.48,28.44-1.17.51-2.28,3.58-1.46,4.32l3,2.71c1.24,1.12,3.57,4.11,3.58,5.75s-2.05,4.13-3.3,5.7l-1.71,2.16c-.25.32-1.19-.28-1.28-.67l-.55-2.36c-.23-1-.1-2.68-.72-2.71l-2.76-.12c-2.24-.1-5.18-1.49-6.99-2.49-5.35-2.96-9.31,2.43-13.22,4.73-2.69,1.58-4.15,2.98-5.8,5.69-4.83,7.94-.81,18.66,7.89,22.35,4.75,2.02,8.9.67,12.13-2.88,2.6-2.85,4.81-8.05,1.64-11.66-.9-1.02-3.77-3.32-4.91-2.76-3.89,1.9-5.99,4.29-8.43,2.91-.71-.4-1.22-2.5-.5-2.89l2.75-1.48c5.73-3.1,12.1-3.51,16.14,2.17,4.35,6.14,3.61,12.04-1.48,17.4-5.84,6.15-14.48,9.68-22.19,3.76-2.06-1.58-5.86-3.89-7.79-5.02-.36-3.8-1.28-7.06-2.88-10.26-2.16-4.31.87-11.95-1.73-15.71l-5.66-8.19-9.01-13.06c-1.3-1.89-5.32-4.98-7.36-4.03l-8.08,3.78.18,29.31c5.85,2.11-.32.07,5.52,11.76.95,1.91.52,7.04,1.87,8.96,2.35,3.35,4.88,8.01,5.69,12.31l4.71,6.66,3.54,7.21-4.77,1.2c-7.28-9.1-9.4-13.7-14.03-23.96-.39-.87.45-4.5-.46-4.54l-4.14-.18c-.93-.04-.88,2.82-1.26,3.68-4.96,11.12-12.77,19.73-20.36,28.88-2.07,2.5-3.72,5.02-6.27,7.63-5.83,5.95-14.69,14.07-16.63,21.64l-2.22,8.68c3.14,4.98.79,13.46,2.43,13.83l4.51,1.01c.61.14.92,1.63.37,1.83l-2.63,1.01c.95,2.47,4.6,4.51,4.16,7.42l7.31,2.28c1.23.8,3.54,2.61,4.6,2.12l4.62-2.12c2.46-1.13,4.99-2.26,7.32-3.64l19.77-11.73c3.28-1.95,6.21-2.65,8.76-5.79.59-.72,2.37-1.9,3.26-2.15s2.67,1.61,2.77,2.35c-3.67,3-7.21,6.87-10.65,9.3l-9.42,6.66c-2.8,1.98-9.36,2.89-11.07,6.58-1.6,3.45-3.45,3.37-7.13,3.57l-17.48,16.67.26,4.44,7.14-3.02,8.37-7.41,7.02-3.37c3.91-1.88,6.67-4.4,10.29-7.65,1.03,2.22,1.33,6.31-.22,7.07l-6.17,3c-4.3,2.09-7.62,7.82-10.48,12.5-5.42,8.85,3.2,18.15,1.79,20.87-.46.9-8.39,1.29-8.84-.21l-1.42-4.73c-1.33,2.05-3.68,5.42-4.43,7.66-2.56,7.66,2.45,14.2,8.75,18.01l-4.5,5.07-7.22-4.81c-2.22-1.48-5.1-4.13-7.2-5.87,1.72-1.18,3.81-3.43,3.54-5.05-.25-1.47-2.05-3.08-4.29-5.13,5.26-.27,2.98-5.03,4.38-7.87,1.59-3.23,4.02-8.08,2.51-11.32-.86-.63-4.16-1.07-4.64-.1l-1.76,3.59c-2.52,5.11-2.72,10.2-2.58,15.8l.35,13.75c1.27,1.47,2.53,4.07,2.72,6.18l.47,5.31c.1,1.1,3.64,1.35,4.52,2.29,8.56,9.2,19.97,5.66,20.9,4.07,1.22-2.06,1.87-4.06,2.88-7.23l5.6-1.13-.23-10.74c-1.55-1.7-5.26-4.9-6.53-6.72-.51-.73.78-4.14,1.59-3.74l2.77,1.38c4.4,2.19,5.07,4.22,6.47,8.68s4.07,10.08.46,14.23c-4.1,4.71-7.93,9.72-13.31,13.03h-10.59c-1.24,0-3.13,1.97-4.31,3.44l-1.69-6.5c-4.1.56-5.73-.38-7.22-3.76l-4.88,2.33c3.44,1.3,5,1.68,6.07,2.56s-.44,5.79-1.56,4.99l-3.76-2.65c1.08,9.15-8.08,22.36-12.81,28.23-4.59,5.71-11.27,8.17-15.44,20.05l-3.26,9.28c-2.11,6.01-.08,11.03,1.69,15.97,3.3,9.21,5.9,5.03,15.18,11.87,4.7,3.46,8.98.48,12.46-.51,5.38-1.52,9.64-2.11,11.91-9.05,1.66-5.07,4.5-12.21-.48-21.31-.98-.86,2.1-1.8,3.62-1.79,3.37.02-.36,4.47,4.39,14.31,1.14,2.36,2.17,4.32,3.38,6.47l-8.36,7.98c-3.74,3.57-7.51,8.7-13.53,8.8l-17.17.29c-1.19,3.11-2.21,5.31-3.66,7.96-.4,3.64-.47,11.27-.4,14.92.01.63,1.85,2.49,2.17,3.34,4.7,12.63,22.85,7.63,23.84,6.16s1.72-5.72,3.03-6.65l9.48-3.31c4.45-1.55,12.32-1.84,17.24-.28,6.85,2.16,10.84,9.67,15.56,13.7l-2.5,2.48c-.45.44,1.97,1.9,2.71,2.5l.2,14.24c-4.94.97-6.68,2.83-10.21,5.22-3.02,2.05-7.96,4.2-9.27,7.06,2.62,1.86,4.82,3.34,6.33,4.92,1.05,1.1.57,3.9-.98,6.4-3.47-3.78-6.24-8.63-8.38-12.72-2.2-.85-5.35-2.36-7.11-3.9l-7.32-6.37-3.63-.4c-.63-.07.71-2.03,1.23-2.38l1.42-.96.79-8.49c4.65-.26,7.88-.02,11.94.99l-5.64,3.15,6.98,7.78c1.18,1.31,4.64-1.11,6.35-2.22.78-.51,3.17-.81,3.88-1.35-1.07.81,6.57-7.8,4.02-15.52-1.76-5.33-9.29-12.11-15.41-10.96-8.91,1.68-13.52,7.44-18.86,13.28l.26,19.27c2.32,1.85,3.37,4.33,3.17,8.23l7.04,8.07,4.79.91c6.63,10.6,10.75,2.51,21.33,7.96,5.42-3.27,15.56-1.57,20.21-2.93l10.33-3.02c.31-.09,12.71-5.23,13.92-6.71-4.7-5.07-3.43-11.29.09-15.93l.88-7.01c3.78-.94,4.9-2.29,6.93-5.39,1.81-2.76,9.62-2.16,12.75-1.14,1.18.38,2.57,4.62,1.42,5.08-5.4,2.21-9.4-1.72-13.57,3.33-1.51,1.83-1.86,5.33-2.79,8.12-1.12,3.36-1.9,5.88-.33,9.17,2.47,5.2,8.93,11.81,11.58,11.43,1.45-.21,4.05-1.82,5.73-2.66l6.93-1.45,6.53-3.28c2.04-1.02,5.57-4.44,7.03-6.13,1.52-3.65,3.28-7.38,6.72-10.32l.23-11.11c.02-1.18,1.79-3.45,2.8-4.28-6.71-13.62,4.07-17.01-.26-37.69-.8-3.81-5.84-8.03-.36-11.45l3.9,8.61c5.51,12.15,3.93,16.56,3.62,30.52ZM166.96,1040.56l3.25-5.05-.14-25.02c0-1.52,2.3-4.52,2.39-5.99l1.81-27.97,3.05-9.37c1.13-3.49,2.11-9.46,2.78-12.87.3-1.53,2.68-4.48,2.52-6.09-.43-4.39,1.21-7.84,2.33-11.54l3.1-10.18c1.05-3.47,1.97-6.72,3.17-9.9l3.43-9.14c1.9-5.08,5.53-11.8,6.02-13.18,1.02-2.86,1.5-5.81,2.72-8.07,3.15-5.85,4.62-12.7,8.11-18.38,3.99-6.5,7.11-12.74,10.49-19.83,1.74-3.63,19.93-31.63,22.16-34.02,2.01-2.15,3.35-3.55,5.08-5.81,4.75-6.2-.77-10.99,2.12-11.62.69-.15,2.3.21,2.69.79l1.69,2.5c5.16-4.67,10.32-9.79,16.19-14.44,3.71-2.93,10.56-6.34,10.66-12.01.03-1.45-3.45-2.46-4.31-1.78l-2.74,2.14c-10.55,4.44-28.69,26.6-36.05,36.58l-5.61,7.61c-3.37,4.57-7.02,8.72-9.73,13.57l-14.15,25.34c-7.06,12.64-6.6,8.56-12.41,25.21-.64,1.84-2.43,4.74-3.53,7.08-1.2,2.55-1.78,5.66-2.7,8.42l-3.2,9.67c-1.81,5.48-5.68,8.79-5.38,15.13.12,2.62-1.91,5.25-2.39,7.03l-3.25,12.08-2.95,11.26-3.29,12.46c-.79,2.99-.7,7.29-.87,10.84l-2.99,3.4c1.67,19.61-4.72,17.26-3.11,29.18.55,4.1-1.41,8.07-1.9,11.65-1.8,13.07-1.05,25.76-1.4,39.44-.06,2.25,3.1,4.89,6.07,5.81l.26-24.94ZM670.58,805.52c.13-5.49-1.06-11.16-5.99-11.38-2.07,1.71.32,6.05,1.65,8.47l2.11,3.84c.34.63,3.54-.37,2.24-.93ZM324.18,831.34l24.97-1.02c-4.73-4.27-8.13-8.09-12.7-11.16l-7.55-5.06c-10.75-7.21-28.59-17.15-40.83-5.78l12.31,1.48,6.32,3.45c.9.49,15.88,14.44,17.48,18.09ZM677.33,808.07l-1.4-4.59c-.2-.65-2.87.13-3.4.5l1.54,9.41,1.53-3.28c.26-.55,1.91-1.45,1.73-2.04ZM346.95,821.6l8.62-9.14,1.72-1.79c.41-.43-1.06-1.76-1.49-1.36l-1.54,1.39c-4.41,3.98-5.83-.91-13.13,6l5.82,4.9ZM361.62,1309.89l-15.97-1.14c-.8-1.01-2.41-3-2.73-2.24-.25.6-1.24,3.51-.84,4.39,1.68,3.78,10.36,4.5,15.3,5,4.89.5,9.41,3.58,14.59,2.47,3.68-.79,7.08,2.26,10.07,2.61,5.93.69,12.73.79,18.04.98l3.61-4.72c1.12,3.73,1.46,5.9,2.67,7.67,1.55,2.26,7.05.63,6.67,1.77l1.08-3.31c.27-.82,2.99-.79,2.65.14l.78,3.94c.12.59,2.28.03,2.43-.58l1.13-4.56,11.22,8.67c4.62-.6,8.96,1.88,12.63,2.18,21.48,1.77,42.28.78,63.83,1.21,4.28.09,7.32-2.29,11.32-2.53l20.75-1.27c2.17-1.47,5-3.13,8.15-2.66,5,.76,8.5-1.56,12.48-2.46,4.3-.98,8.19-1.82,12.18-3.03l10.46-3.19c2.16-.66,6.73-.69,8.65-1.51l7.31-3.13c9.81-4.2,8.21-1.79,22.2-9.28l12.59-6.74c4.16-2.23,8.86-4.21,12.69-6.76l16.87-11.25c6.59-4.39,12.67-10.42,18.37-16.22,12.63-12.87,24.13-23.24,33.29-37.98l4.41-7.09c6.92-11.13,12.31-22.85,18.26-34.7,1.39-2.76-1.86-6.67,3.14-8.43,3.11-1.1,2.96-6.14,3.99-9.02l2.92-8.19,3.4-10.23c5.54-16.64-1.35-10.15,4.96-16l.8-15.91c5.26-2.56,1.74-12.49,3.45-25.02.3-2.16,2.55-6.02,2.56-8.5l.11-70.29c0-3.35-1.74-6.18-2.51-9.36-1.34-5.54-.59-13.43-1.18-18.78-5.33-2.2-1.33-13.71-3.59-23-2.95-12.1-2.93-16.9-6.2-27.77l-3.16-10.51-2.89-9.02c-1.85-5.79-5.84-11.45-7.97-17.05l-3.16-8.32c-1-2.63-2.52-4.82-4.03-7.28l-5.08-8.29-5.36-9.04c-4.14-7-8.22-13.4-13.39-20.06-5.81-7.47-9.76-19.43-22.78-30.28-1.04-.87,1.12-6-3.18-4.93l-.02,11.47c9.87,8.21,3.03,6.04,14.4,16.28,1.66,12.28,16.88,12.74,13.62,17.28l-2.39,3.34,7.11,10.19c1.91,2.74,3.58,5.56,5.16,8.47l7.67,14.08c2.95,5.41,5.13,11.46,7.6,17.49l5.53,13.52c1.7,4.16,5.34,15.18,6.12,18.54l2.96,12.75c1.12,4.83,1.04,11.4,1.64,16.49.19,1.57,2.33,5.03,2.31,6.66-.09,7.52.59,14.99,1.95,21.81,2.96,14.75.23,30.59,1.44,46.65l2.96,3.63c-.75,10.85,1.23,22.57-.88,33.38l-3.05,15.6c-.65,3.31-1.87,6.84-2.19,10.53-.31,3.56-1.68,6.89-2.46,10.04l-3.08,12.35c-.91,3.65-2.02,6.51-3.3,9.96-.7,1.89-.87,6.09-1.69,7.73-.55,1.11-2.73,3.03-2.14,3.78l2.16,2.76c-.84,1.45-1.87,3.55-2.62,5.55l-3.43,9.19-3.08,10.7-3.17,8.12-3.12,8.03c-.79,2.03-2.98,5.49-4.51,7.34-3.74,4.51-5.81,9.44-8.68,14.22-3.25,5.39-9.03,10.29-12.96,15.5l-6.19,8.18c-2.25,2.98-3.43,4.34-6.18,6.62-13.21,10.99-18.39,19.43-30.91,28.49l-13.68,9.89c-11.5,8.31-15.04,7.32-16.95,8.23l-15.67,7.5-17.3,6.97-8.07,3.13-11.36,1.43c-3.19.4-5.39,1.98-8.47,2.33-15.19,1.74,3.62,2.57-26.29,3.01-2.35.04-6.16,2.4-8.47,2.67-6.62.74-15.52.52-21.72.67-1.38.03-4.21,2.32-5.41,2.58-13.95,2.95-18.83-5.63-25.58-1.08-3.36,2.26-5.11-.02-8.31-.34-10.51-1.07-21.87-1.22-32.59-1.35-.16,3.1-3.28,7.58-5.69,6.27-.99-2.85-1.57-6.18-3.15-7.62-5.17-4.71-6.77,1.39-16.39-4.32l-4.83,2.17c-.92.41-3.05-2.39-4.18-2.36-23.8.45-7.01-4.73-31.32-3.14-3.07.2-6.48-2.55-9.12-2.74ZM588.97,836.52c6.77-8.7,18.8-14.63,27.12-19.1,1.32-.71,3.06-2.43,5.46-4.43l-7.15-.18c-3.72,2.68-7.05,2.52-11.7,3.05-11.16,1.26-33,25.36-25.95,23.96.52-.1,1.5-.21,1.84-.58.24-.25.65-.75,1.26-1.51l9.11-1.2ZM586.49,820.2c-2.75-3.13-5.92-4.66-9.28-4.43l3.46,9.11,5.81-4.69ZM197.07,1198.48c-3.1-4.38-5.02-8.82-5.78-14.31-.29-2.08-2.51-5.8-3.26-7.84l-3.35-9.18c-2.51-6.88-3.2-6.11-5.92-14.94l-3.1-10.06c-.98-3.18-2.77-6.24-2.44-10.22.58-6.82-.53-13.01-3.05-18.83l-.14-14.61-3.06-2.81-.13-24.81c0-.63-1.51-2.84-1.74-2.4l-1.04,1.99c-.85,1.62-2.11,3.52-3.38,4.99l.62,37.34c5.33,7.96.16,12.29,5.24,15.85l.94,11.36c2.19,2.86,2.97,5.01,2.74,8.79-.2,3.22,1.54,6.21,2.39,8.98l3.06,10.05c.87,2.85,1.8,5.56,2.97,8.12l3.49,7.65,2.13,6.87c1.97,6.35,6.1,11.35,9.72,17.34l3.77,6.25c.63,1.04.85,4.66,2.04,4.54l4.05-.42c5.35-.56-5.01-17.23-6.76-19.7ZM280.47,1282.79c-3.89-3.11-7.6-4.58-12.05-6.18-1.41-1.79-3.9-4.38-6.01-5.95l-15.73-11.64-17.27-15.63-6.89.33,4.21-5.46-6-1.9c-.66-4.08-2.87-5.4-6.76-6.92l2.69-2.31c.5-.43-.77-1.84-1.42-2.19l-7.73-4.12.59,9.27,5.71,2.18c.16,2.25-.09,4.56.88,4.71l4.7.76c.39.16-.81,3.04-2.04,5.57l6.21.79c-.19,2.24.55,4.48,2.46,5.42,6.94,3.41,11.97,9.32,16.77,14.65,1.91.98,4.64,2.8,7.03,4.4l6.01,4.05c8.91,6.01,16.9,11.7,26.31,16.63,4.08,2.14,7.55,7,13.53,3.29-.15-8.01-6.38-2.71-15.18-9.74ZM331.58,1303.2c-2.42-.24-4.15-1.3-6.27-2.39-15.63-8.06-4.59-.67-16.29-6.69-1.09-.56-3.79-.05-3.99,1.07-.16.9-.91,3.75-.05,4.02s3.3.71,4.32,1.13l8.6,3.54c3.26,1.34,6.67,2.22,9.8,3.21l8.44,2.67c.64.2,2.67-.27,2.71-.94.18-2.65-2.66-5.16-7.28-5.61Z"/>
    <g>
      <path class="st2" d="M724.84,751.99c-3.02.14-6.16-5.22-6.43-8.12l1.66-1.87c.3-.33-.59-1.76-1.03-1.76-3.24-.03-2.61,4.56-4,3.12l-1.8-1.87c-15.77-16.43-19.81-18.06-36.53-32.31l-1.16-5.8-8.58-.76c-2.37-3.98-5.37-5.03-8.95-7l-30.27-16.65-13.49-6.76c-9.91-4.97-4.75-1.92-14.77-6l-7.56-3.08-8.04-3.18c-2.24-.88-5.25-2.55-7.25-3.21l-9.12-3c-3.55-1.17-6.82-1.36-9.97-3.44l-9.99-1.44-12.44-3.21c-3.1-.8-6.73-2.66-10.14-2-3.93.76-6.43-1.93-9.34-2.5-8.09-1.59-16.87-.39-25.15-1.1-5.57-.48-10.71-.41-16.31,0-13.66,1-27.34-.66-40.88,1.1-2.66.34-5.7,3.37-9.32,2.56s-6.7,1.74-10.24,2.17l-12.99,1.57c-3.38.41-5.83,2.34-9.22,2.25-3.13-.08-5.06.77-7.16,2.72l-9.36,1.05c-4.66,3.34-10.19,2.41-18.8,6.52l-19.93,9.5-5.13,2.52c-5.78,2.84-10.66,7.2-16.64,9.59l-8.18,3.27-15.82,11.6c-2.08,1.53-4.97,3.15-6.64,4.52l-18.61,15.28c-5.96,4.9-11.23,10.94-16,16.36l-20.28,23.07c-3.38,3.84-6.04,7.61-9.4,11.38-1.61,1.8-2.8,3.99-4.06,6.19l-6.02,10.53-5.23,5.82c-.25,10.72-.84,4.94-6.78,19.2l-5.2,12.5-2.82,7.13-3.25,7.4-7.82,18.55c-1.49,3.53-5.52,13.73-6.26,17.95-.79,1.31-2.34,3.68-2.93,5.51l-3.38,10.42-3.05,9.9c-5.72,18.56,1.49,10.72-4.98,20.93l-.89,14.49-4.63,1.12c-1.28.31-.7,30.52-2.59,40.65-1.43,7.71-2.5,13.23.15,21.19,1.71,5.15,1.56,13.86.51,19.38-.5,2.62-2.09,5.14-2.03,8.12l1.96-2.21,1.52,16.05c.11,1.15,2.11,4.12,2.13,5.45.07,6.75-.04,16.69,1.42,23.85.43,2.12,2.17,4.85,1.91,7.05-.43,3.59.96,5.92,2.56,8.39l1.28,11.56c5.94,9.01-.91,3.78,4.66,16,1.14,2.5,2.35,5.35,3.39,8.01l3.05,7.82c.15.39,6.09,14.51,4.99,12.75l8.97,14.38c1.29,2.07,2.39,5.94,3.68,7.64,10.6,13.99-.09,10.52,9.89,14.29,1.01.38,1.01,3.59,1.78,4.54l11.39,14.02c3.47,4.27,6.34,7.79,11.59,9.96l2.76,4.68c5.93,1.38,9.39,6.28,8.33,12.76l8.4.84c2.79,3.56,5.17,5.1,8.79,7.34,3.12,1.94,6.64,6.39,9.38,8.37,3.4.37,9.55,3.5,11.87,5.76,12.12,11.83,16.61,9.63,18.6,17.45.18.71,1.27,2.22,1.45,2.8.22.73-1.46,1.58-2.54,3.07-.71.98,3.08,2.12,4.39,1.91,4.11-.67-.23-8.79,5.74-6.09,4.08,1.84,7.27,9.53,4.85,14.66-3.79-1.06-6.07-3.93-6.54-7.56-.98.8-5.65,3.03-6.9,1.74l-5.69-5.88c-3.42.19-6.51-.59-9.38-2.33l-9.18-5.54c-5.73-3.46-12.2-7.14-17.66-11.78l2.97-5.18-9.52-.57c-5.46-2.54-9.05-8.49-13.81-11.38-8.18-4.95-13.23-12.44-18.99-18.97-4.07-4.62-7.91-9.09-11.61-14l-7.38-9.77-6.14-9.65-4.18-6.12c-3.08-4.5-6.53-9.24-9.02-14.11-1.19-2.33-1.02-5.4-3.3-7.29l-.48-7.6-5.32-1.6-1.18-10.17c-5.79-11.74,1.08-2.01-6.51-18.69-2.1-4.62-2.55-8.63-2.67-14.25-1.15-2.76-4.73-8.02-5.45-10.86-.67-5.05-.69-8.55-3.09-12.9l-1.2-10.87c-4.59-7.35-.69-2.13-4.22-17.49-1.65-7.19-2.94-40.7,1.11-36.93l-2.27-2.11-1-6.98c-.15-1.08-1.61-3.24-1.98-4.25-.43-1.22,2.11-3.81,2.17-5.34l1.15-29.49c.17-4.27,3.64-7.47,2.43-12.87-.65-2.93,1.06-5.73,2.41-8.09,1.25-2.2.39-7.97,1.33-10.4,1.87-4.84,2.66-8.57,3.67-13.64.65-3.27,1.91-6.57,1.96-10.37.04-2.88,1.96-6.27,2.45-8.81,1.19-6.22,1.88-13.46,6.79-19.34.3-13.44,2.61-10.09,8.66-26.98l3.24-9.03,3.25-9.08,2.73-7.87c1.72-4.95,4.3-9.5,6.49-14.43l2.97-6.69c2.56-5.77,5.91-10.7,9.14-16.15l2.12-3.58,7.12-9.91c2.16-3,4.14-5.98,6.05-9.22l7.03-11.94c2.58-4.38,4.96-8.31,9.08-11.44l2.05-4.61c12.25-9.52,2.82-7.18,13.65-10.51,1.1-.34.67-3.97,1.52-4.84,3.02-3.1,8.04-7.5,11.68-9.88s6.86-5.45,10.42-8.14c4.42-3.34,8.67-6.42,12.91-10.38,1.76-1.64,4.26-3.95,6.1-5.16l10.67-7.02c1.92-1.27,6.97-1.37,8.19-3.15,1.53-2.24,4.84-3.31,6.24-4.69,4.67-4.59,9.93-7.62,16.06-10.18l17.88-7.47,7.24-2.86c2.2-.87,5.74-2.65,7.75-3.13l12.16-2.88,12.45-3.17c5.27-1.34,10.32-1.57,15.56-3.5l10.84-1.15c7.37-5.85,8.53.94,17.63-5.57l82.57-.04c2.67,0,5.43,1.1,6.92,2.61l15.96.77c1.78,1.86,4.28,3.07,6.97,2.84,5.01-.43,8.24,1.13,12.75,1.98l10.36,1.95,8.9,2.98c16.76,5.61,3.35-1.16,19.84,6.49,12.09,5.61,4.11,1.59,13.14,5.09l19.23,9.73,9.24,4.23c2.19,1,6.17,1.76,8,3.02l8.59,5.92c2.39,1.65,5.16,2.28,8.4,3.05l.67,8.34,11.76.27c.59,5.29,3.62,6.13,8.55,6.9,2.73.43,5.85,6.01,8.35,7.37,3.02,1.64,5.55,2.29,7.77,4.86,1.2,1.39,4.97,2.44,6.25,3.72l18.64,18.64c1.75,1.75,2.36,5.86,5.25,8.08,9.63,7.4,13.17,15.33,17.09,16.63-3.99-1.33,2.33,6.93,2.56,7.23l5.42,7.09c2.15,2.81,4.08,6.1,5.93,8.89,2.52,3.79,4.81,6.63,6.09,10.94,2.89,9.79,4.2,6.99,9.03,16.42l3.49,6.81,3.41,8.6c1.87,4.7,4.28,7.53,5.69,12.14.89,2.9,2.18,6.11,3.36,9.05l3.37,8.42c4.66,11.61-.71.52,4.24,14.96l3.4,9.93,3.25,9.35,1.07,12.54c.94,1.63,2.61,4.29,2.6,5.97l-.06,24.77,3.08,2.8c-1.26,16.09,3.21,18.46,3.18,26.02l-.37,75.34c-.02,4.64-4.41,8.93-2.68,15.01,1.14,4.01-.91,8.69-2.5,12.53l-1.44,11.31c-.54,4.24-2.19,7.53-3.12,11.87l-3.32,15.49c-1.99,9.27-5.83,16.15-9.24,25.82l-2.79,7.94c-2.63,7.48-6.56,15.15-10.58,21.54l-11.4,18.11c-5.58,8.86-10.63,13.79-17.67,21.28-1.89,2-3.2,4.35-4.95,6.74-4.85,6.62-11.17,12.27-17.14,18.2-5.36,5.33-10.49,11.54-16.94,15.68l-15.54,9.96-7.54,4.85-20.89,13.02c-15.84,9.87-20.64,14.72-40.6,21.68l-9.85,3.44-3.68,1.64-14.6,5.44c-2.8,1.04-6.69,1.54-10.33,2.26l1.73,1.27c3.41,2.51-5.28-2.03-10.04,3.37l-9.24,1.06c-2.38,1.78-4.79,3.05-7.86,2.76-4.46-.43-7.57,1.63-11.44,2l-21.86,2.08c-1.95.19-5.13,1.89-6.94,1.91l-19.32.28c-6.94.1-13.58.42-20.5,0-10.67-.65-21.48.39-32.34-.92-5.17-.63-10.24-3.44-16.17-2.11l-8.98-4.3c-.9-.43-2.43-2.86-3.31-2.51-1.26.49-3.26,1.35-4.7,2.02l-3.25,1.53c-.86.4-2.26-1.73-3.23-2.8l-11.29-.87c-11.08-6.79-5.34,1.06-19.96-5.14-2.8-1.19-6.94-.77-10.07-3.11l-8.46-1.52c-4.11-1.35-7.9-2.09-12.27-3.11-3.02-.7-6.19-2.95-10.23-2.34-3.57.54-7.07-.65-9.2-2.48-.81-.69-3.9-.66-4.06-1.6s-.7-3.03-.71-4.77c0-1.23-3.01,1.36-3.98,2.15-1.4,1.13-5.06-.06-6.27-1.39-1.43-1.58-2.36-6.53-1.46-8.83,1.88-4.82,7.57-.43,10.21.49l9.41,3.26c3.14,1.09,7.99,2.06,11.56,3l11.47,3c3.31.87,6.22,1.76,8.95,3.08l3.01-1.29c.94-.41,3.01,1.14,4.33,1.5,3.47.94,8.53.59,11.84,1.71,1.77.6,4.62,2.41,6.14,2.41,5.29-.02,10.41-.66,14.11,1.05,4.63,2.14,9.74,1.4,14.67,2.34,5.99,1.15,10.63,4.16,17.77,2.32,2.17-.56,6.01,1.89,7.87,3.01l12.31.98c1.55,1.51,4.39,2.98,5.6,2.11,2.19-1.58,4.19-2.68,5.8-2.97,1.44-.26,3.93,2.4,5.38,3.36l51.3.12,4.53-2.97c19.34,1.29,17.35-3.63,24.52-3.4,3.87.12,7.05-1.28,10.42-2.08l14.26-3.36c4.21-.99,8.05-1.13,11.66-3.04l8.25-1.47c2.22-1.57,4.52-1.88,7.04-2.88l14.49-5.76c5.1-2.03,10.6-4.24,15.65-6.93l20.4-10.9c2.64-1.41,5.67-3.56,8.11-5.16l11.54-7.55,7.45-5.02,9.14-6.34,13.05-9.5c6.46-4.71,11.72-11.47,17.75-16.72,11-9.58,19.57-20.07,27.71-32.24,6.89-10.31,14.06-20.09,19.83-31.36l6.37-12.41c.74-1.43,1.41-4.51,1.88-6.58,6.3-6.22,6.96-20.79,11.26-24.81l1-14.7c5.44-.16.94-9.79,3.46-17.88,1.04-3.34,3.28-6.39,2.37-10.07-1.27-5.1,2.48-9.29,2.56-13.3l.77-37.38,2.22-11.12c3.3-16.5,1.4-33.61-.24-49.66-.37-3.63-4.27-9.04.98-12.86-4.8-.83-2.81-13.86-3.94-23.72.92,8.08-5.66-26.77-4.69-16.45l-1.27-13.52-3.57-7.91-3.01-6.68c-3.14-6.95-2.28-7.77-6.06-15.68l-3.27-6.83c-.92-1.91-2.09-4.72-3.08-6.54l-10.32-19.01-5.23-9.08-6.57-12.57-7.03-11.87-9.31-15.14-5.78-8.97c-.52-.81-1.81-3.18-1.21-3.81l2.46-2.57c.23-.39-.34-1.96-.86-1.7l-3.51,1.75Z"/>
      <path class="st2" d="M380.04,1253.52c2.64.19,6.05,2.94,9.12,2.74,24.31-1.59,7.52,3.59,31.32,3.14,1.13-.02,3.26,2.78,4.18,2.36l4.83-2.17c9.61,5.71,11.21-.39,16.39,4.32,1.58,1.44,2.15,4.77,3.15,7.62,2.41,1.31,5.54-3.17,5.69-6.27,10.71.13,22.08.28,32.59,1.35,3.2.32,4.95,2.61,8.31.34,6.75-4.55,11.63,4.03,25.58,1.08,1.2-.25,4.02-2.54,5.41-2.58,6.2-.15,15.1.08,21.72-.67,2.32-.26,6.12-2.63,8.47-2.67,29.91-.45,11.11-1.27,26.29-3.01,3.08-.35,5.28-1.93,8.47-2.33l11.36-1.43,8.07-3.13,17.3-6.97,15.67-7.5c1.91-.91,5.45.09,16.95-8.23l13.68-9.89c12.53-9.06,17.7-17.5,30.91-28.49,2.74-2.28,3.92-3.64,6.18-6.62l6.19-8.18c3.94-5.2,9.72-10.1,12.96-15.5,2.88-4.77,4.94-9.71,8.68-14.22,1.54-1.85,3.72-5.31,4.51-7.34l3.12-8.03,3.17-8.12,3.08-10.7,3.43-9.19c.74-1.99,1.77-4.1,2.62-5.55l-2.16-2.76c-.59-.75,1.59-2.67,2.14-3.78.82-1.64.99-5.83,1.69-7.73,1.27-3.46,2.39-6.31,3.3-9.96l3.08-12.35c.78-3.15,2.15-6.47,2.46-10.04.32-3.69,1.55-7.22,2.19-10.53l3.05-15.6c2.11-10.8.13-22.53.88-33.38l-2.96-3.63c-1.21-16.06,1.52-31.9-1.44-46.65-1.37-6.82-2.05-14.29-1.95-21.81.02-1.63-2.12-5.09-2.31-6.66-.6-5.09-.52-11.67-1.64-16.49l-2.96-12.75c-.78-3.36-4.42-14.38-6.12-18.54l-5.53-13.52c-2.47-6.03-4.65-12.08-7.6-17.49l-7.67-14.08c-1.58-2.91-3.25-5.73-5.16-8.47l-7.11-10.19,2.39-3.34c3.26-4.55-11.97-5.01-13.62-17.28-11.37-10.24-4.53-8.07-14.4-16.28l.02-11.47c4.3-1.08,2.14,4.06,3.18,4.93,13.02,10.85,16.97,22.8,22.78,30.28,5.18,6.66,9.25,13.07,13.39,20.06l5.36,9.04,5.08,8.29c1.51,2.47,3.03,4.65,4.03,7.28l3.16,8.32c2.13,5.6,6.12,11.26,7.97,17.05l2.89,9.02,3.16,10.51c3.27,10.87,3.25,15.66,6.2,27.77,2.26,9.29-1.74,20.79,3.59,23,.6,5.34-.16,13.23,1.18,18.78.77,3.18,2.51,6.01,2.51,9.36l-.11,70.29c0,2.48-2.26,6.33-2.56,8.5-1.71,12.53,1.82,22.46-3.45,25.02l-.8,15.91c-6.3,5.85.58-.64-4.96,16l-3.4,10.23-2.92,8.19c-1.03,2.88-.88,7.92-3.99,9.02-5,1.76-1.75,5.67-3.14,8.43-5.95,11.85-11.34,23.57-18.26,34.7l-4.41,7.09c-9.16,14.73-20.66,25.11-33.29,37.98-5.7,5.81-11.78,11.83-18.37,16.22l-16.87,11.25c-3.83,2.55-8.53,4.53-12.69,6.76l-12.59,6.74c-13.99,7.49-12.39,5.08-22.2,9.28l-7.31,3.13c-1.92.82-6.49.85-8.65,1.51l-10.46,3.19c-3.99,1.21-7.88,2.06-12.18,3.03-3.99.9-7.48,3.22-12.48,2.46-3.15-.47-5.98,1.19-8.15,2.66l-20.75,1.27c-4,.24-7.04,2.62-11.32,2.53-21.55-.43-42.35.56-63.83-1.21-3.66-.3-8-2.77-12.63-2.18l-11.22-8.67-1.13,4.56c-.15.61-2.32,1.17-2.43.58l-.78-3.94c.34-.93-2.38-.96-2.65-.14l-1.08,3.31c.37-1.14-5.13.48-6.67-1.77-1.21-1.77-1.55-3.94-2.67-7.67l-3.61,4.72c-5.31-.19-12.11-.29-18.04-.98-2.98-.35-6.38-3.4-10.07-2.61-5.17,1.11-9.69-1.98-14.59-2.47-4.94-.5-13.62-1.22-15.3-5-.39-.89.59-3.79.84-4.39.32-.76,1.93,1.23,2.73,2.24l15.97,1.14Z"/>
      <path class="st2" d="M533.74,672.32c-3.73-1.07-11.03-.43-14.47-1.11-1-.2-3.59-2.77-4.65-2.77l-77.91.14c-6.45,5.87-14.44,1.3-21.21,3.96-3.01,1.18-5.21,2.01-8.26,2.83l-11.96,3.21-10.52,3.2-9.96,3.13-9.74,3.24-7.35,2.51c-4.23,1.45-8.97,4.41-13.09,5.59-3.04.87-5.15,1.46-7.22,2.55l-19.08,10c-1.68.88-4.33,2.76-6,4.03l-6.89,5.26-4.16-7.88c11.27-3.7,1.04-1.22,14.53-8.45,11.32-6.07,16.31-10.6,25.16-13.79l8.44-3.04c9.67-3.48,8.41-5.29,22.02-9.39l10.07-3.03c3.3-.99,6.02-1.93,9.33-3.22l8.27-1.31c2.59-2.08,5.53-2.9,9.19-2.61,16.94,1.36-2.55-3.81,27.09-2.87,2.17.07,5.94-2.17,8.25-2.42,15.64-1.66,32.57-1.02,48.73-.67l4.38,2.86,18.86-.03,5.05,2.92c5.96.39,12.77-.46,18.19.96,4.21,1.1,7.34,2.59,11.86,2.38,3.35-.16,5.95,1,9.05,2.53,2.1,1.03,7.5.28,9.74,1.21l8.46,3.51c1.97.82,4.52,1.38,6.97,2.44l20.89,9c.38.17,30.2,11.72,24.09,15.26l3.68-2.13,6.92,4.16,14.42,8.47c4.67,2.75,8.88,7.82,13.93,11.01,4.16,2.62,10.04,6.91,10.58,11.74-.02,1.27-3.57,2.29-4.55,1.6-1.14-.79-2.1-3.76-2.66-5.6-4.98-.43-9.59-2.85-13.97-5.91l-6.42-4.48-18.47-11.72c-2.81-1.78-5.88-2.9-8.36-5.81l-7.23-1.43-5.43-3.54c-2.2-1.43-4.4-1.74-8.01-2.64-5.99-1.48-11.99-6.13-17.94-8.27l-8.09-2.91c-2.92-1.05-5.16-1.98-7.86-3.46l-8.2-1.31c-2.61-1.39-5.04-2.35-7.99-3.3-14.58-4.68-2.49.57-20.54-4.59Z"/>
      <path class="st2" d="M185.39,984.19l-.26,24.94c-2.97-.91-6.13-3.56-6.07-5.81.36-13.68-.39-26.37,1.4-39.44.49-3.58,2.45-7.55,1.9-11.65-1.61-11.92,4.78-9.57,3.11-29.18l2.99-3.4c.17-3.54.08-7.85.87-10.84l3.29-12.46,2.95-11.26,3.25-12.08c.48-1.78,2.51-4.41,2.39-7.03-.3-6.34,3.56-9.65,5.38-15.13l3.2-9.67c.91-2.76,1.5-5.87,2.7-8.42,1.1-2.34,2.89-5.24,3.53-7.08,5.8-16.65,5.34-12.57,12.41-25.21l14.15-25.34c2.71-4.85,6.36-9.01,9.73-13.57l5.61-7.61c7.36-9.98,25.5-32.14,36.05-36.58l2.74-2.14c.87-.68,4.34.33,4.31,1.78-.1,5.67-6.95,9.08-10.66,12.01-5.88,4.65-11.03,9.77-16.19,14.44l-1.69-2.5c-.4-.58-2-.94-2.69-.79-2.89.62,2.63,5.42-2.12,11.62-1.73,2.26-3.07,3.66-5.08,5.81-2.23,2.38-20.42,30.39-22.16,34.02-3.39,7.08-6.5,13.33-10.49,19.83-3.49,5.69-4.96,12.53-8.11,18.38-1.22,2.27-1.71,5.22-2.72,8.07-.49,1.37-4.12,8.1-6.02,13.18l-3.43,9.14c-1.19,3.18-2.11,6.43-3.17,9.9l-3.1,10.18c-1.13,3.7-2.76,7.15-2.33,11.54.16,1.61-2.22,4.56-2.52,6.09-.67,3.42-1.65,9.39-2.78,12.87l-3.05,9.37-1.81,27.97c-.09,1.47-2.4,4.47-2.39,5.99l.14,25.02-3.25,5.05Z"/>
      <path class="st2" d="M215.49,1142.11c1.75,2.47,12.11,19.14,6.76,19.7l-4.05.42c-1.2.13-1.41-3.5-2.04-4.54l-3.77-6.25c-3.62-6-7.75-10.99-9.72-17.34l-2.13-6.87-3.49-7.65c-1.17-2.56-2.11-5.27-2.97-8.12l-3.06-10.05c-.84-2.77-2.59-5.76-2.39-8.98.23-3.78-.54-5.93-2.74-8.79l-.94-11.36c-5.08-3.56.09-7.89-5.24-15.85l-.62-37.34c1.27-1.47,2.53-3.37,3.38-4.99l1.04-1.99c.23-.45,1.74,1.77,1.74,2.4l.13,24.81,3.06,2.81.14,14.61c2.52,5.82,3.63,12.01,3.05,18.83-.34,3.98,1.46,7.04,2.44,10.22l3.1,10.06c2.72,8.83,3.41,8.06,5.92,14.94l3.35,9.18c.74,2.04,2.97,5.75,3.26,7.84.77,5.49,2.68,9.94,5.78,14.31Z"/>
      <path class="st2" d="M298.9,1226.42c8.8,7.03,15.03,1.73,15.18,9.74-5.99,3.71-9.46-1.15-13.53-3.29-9.41-4.93-17.4-10.63-26.31-16.63l-6.01-4.05c-2.38-1.61-5.11-3.42-7.03-4.4-4.8-5.32-9.82-11.24-16.77-14.65-1.91-.94-2.65-3.18-2.46-5.42l-6.21-.79c1.24-2.53,2.43-5.41,2.04-5.57l-4.7-.76c-.97-.16-.71-2.47-.88-4.71l-5.71-2.18-.59-9.27,7.73,4.12c.65.35,1.92,1.76,1.42,2.19l-2.69,2.31c3.9,1.51,6.1,2.84,6.76,6.92l6,1.9-4.21,5.46,6.89-.33,17.27,15.63,15.73,11.64c2.11,1.57,4.61,4.15,6.01,5.95,4.45,1.6,8.16,3.07,12.05,6.18Z"/>
      <path class="st2" d="M350.01,1246.83c4.61.45,7.45,2.97,7.28,5.61-.04.67-2.07,1.14-2.71.94l-8.44-2.67c-3.13-.99-6.54-1.87-9.8-3.21l-8.6-3.54c-1.03-.42-3.46-.86-4.32-1.13s-.12-3.11.05-4.02c.2-1.12,2.9-1.63,3.99-1.07,11.7,6.03.66-1.37,16.29,6.69,2.12,1.09,3.85,2.15,6.27,2.39Z"/>
      <path class="st2" d="M689,749.14c1.31.56-1.89,1.55-2.24.93l-2.11-3.84c-1.33-2.42-3.72-6.76-1.65-8.47,4.93.22,6.13,5.9,5.99,11.38Z"/>
      <path class="st2" d="M695.75,751.7c.18.59-1.47,1.49-1.73,2.04l-1.53,3.28-1.54-9.41c.53-.37,3.2-1.15,3.4-.5l1.4,4.59Z"/>
      <path class="st2" d="M401.23,1122.59c.32-13.96,1.89-18.37-3.62-30.52l-3.9-8.61c-5.48,3.43-.44,7.64.36,11.45,4.33,20.68-6.45,24.07.26,37.69-1.01.82-2.77,3.09-2.8,4.28l-.23,11.11c-3.44,2.94-5.2,6.67-6.72,10.32-1.46,1.69-4.99,5.11-7.03,6.13l-6.53,3.28-6.93,1.45c-1.69.83-4.28,2.45-5.73,2.66-2.65.38-9.11-6.23-11.58-11.43-1.57-3.3-.79-5.81.33-9.17.93-2.79,1.28-6.29,2.79-8.12,4.17-5.05,8.17-1.12,13.57-3.33,1.15-.47-.24-4.7-1.42-5.08-3.13-1.02-10.94-1.62-12.75,1.14-2.03,3.1-3.15,4.44-6.93,5.39l-.88,7.01c-3.52,4.64-4.79,10.87-.09,15.93-1.2,1.48-13.61,6.62-13.92,6.71l-10.33,3.02c-4.65,1.36-14.79-.34-20.21,2.93-10.58-5.45-14.7,2.64-21.33-7.96l-4.79-.91-7.04-8.07c.2-3.91-.85-6.38-3.17-8.23l-.26-19.27c5.35-5.84,9.95-11.6,18.86-13.28,6.12-1.15,13.65,5.63,15.41,10.96,2.55,7.72-5.09,16.33-4.02,15.52-.71.54-3.1.84-3.88,1.35-1.72,1.11-5.18,3.53-6.35,2.22l-6.98-7.78,5.64-3.15c-4.07-1.01-7.29-1.24-11.94-.99l-.79,8.49-1.42.96c-.52.35-1.85,2.31-1.23,2.38l3.63.4,7.32,6.37c1.77,1.54,4.92,3.04,7.11,3.9,2.14,4.1,4.91,8.95,8.38,12.72,1.55-2.5,2.04-5.29.98-6.4-1.51-1.58-3.71-3.07-6.33-4.92,1.3-2.86,6.25-5.01,9.27-7.06,3.53-2.4,5.27-4.25,10.21-5.22l-.2-14.24c-.73-.6-3.15-2.06-2.71-2.5l2.5-2.48c-4.72-4.03-8.71-11.53-15.56-13.7-4.92-1.55-12.79-1.27-17.24.28l-9.48,3.31c-1.31.93-2.02,5.16-3.03,6.65s-19.14,6.46-23.84-6.16c-.32-.85-2.16-2.72-2.17-3.34-.07-3.66,0-11.29.4-14.92,1.44-2.66,2.46-4.85,3.66-7.96l17.17-.29c6.02-.1,9.79-5.23,13.53-8.8l8.36-7.98c-1.21-2.15-2.24-4.11-3.38-6.47-4.75-9.84-1.02-14.29-4.39-14.31-1.51,0-4.59.93-3.62,1.79,4.97,9.1,2.13,16.24.48,21.31-2.27,6.93-6.53,7.52-11.91,9.05-3.48.99-7.76,3.97-12.46.51-9.28-6.85-11.88-2.66-15.18-11.87-1.77-4.94-3.8-9.95-1.69-15.97l3.26-9.28c4.17-11.88,10.85-14.34,15.44-20.05,4.73-5.88,13.89-19.09,12.81-28.23l3.76,2.65c1.13.8,2.63-4.11,1.56-4.99s-2.63-1.26-6.07-2.56l4.88-2.33c1.49,3.38,3.12,4.32,7.22,3.76l1.69,6.5c1.17-1.47,3.07-3.45,4.31-3.45h10.59c5.37-3.3,9.21-8.31,13.31-13.03,3.61-4.15.98-9.62-.46-14.23s-2.07-6.49-6.47-8.68l-2.77-1.38c-.81-.4-2.1,3.01-1.59,3.74,1.27,1.81,4.98,5.02,6.53,6.72l.23,10.74-5.6,1.13c-1,3.17-1.66,5.17-2.88,7.23-.94,1.58-12.34,5.13-20.9-4.07-.88-.94-4.42-1.19-4.52-2.29l-.47-5.31c-.18-2.11-1.45-4.71-2.72-6.18l-.35-13.75c-.14-5.61.06-10.69,2.58-15.8l1.76-3.59c.48-.97,3.78-.54,4.64.1,1.51,3.24-.92,8.09-2.51,11.32-1.4,2.84.88,7.6-4.38,7.87,2.25,2.06,4.05,3.67,4.29,5.13.27,1.62-1.82,3.87-3.54,5.05,2.1,1.74,4.98,4.39,7.2,5.87l7.22,4.81,4.5-5.07c-6.31-3.81-11.32-10.34-8.75-18.01.75-2.23,3.09-5.6,4.43-7.66l1.42,4.73c.45,1.5,8.37,1.1,8.84.21,1.41-2.73-7.21-12.02-1.79-20.87,2.86-4.68,6.19-10.41,10.48-12.5l6.17-3c1.55-.76,1.25-4.85.22-7.07-3.63,3.25-6.38,5.77-10.29,7.65l-7.02,3.37-8.37,7.41-7.14,3.02-.26-4.44,17.48-16.67c3.68-.19,5.53-.12,7.13-3.57,1.71-3.7,8.27-4.6,11.07-6.58l9.42-6.66c3.44-2.43,6.97-6.3,10.65-9.3-.11-.74-1.89-2.6-2.77-2.35s-2.67,1.43-3.26,2.15c-2.56,3.14-5.48,3.85-8.76,5.79l-19.77,11.73c-2.33,1.38-4.86,2.51-7.32,3.64l-4.62,2.12c-1.07.49-3.37-1.32-4.6-2.12l-7.31-2.28c.44-2.91-3.21-4.95-4.16-7.42l2.63-1.01c.54-.21.24-1.7-.37-1.83l-4.51-1.01c-1.64-.37.71-8.85-2.43-13.83l2.22-8.68c1.94-7.57,10.8-15.69,16.63-21.64,2.56-2.61,4.2-5.13,6.27-7.63,7.59-9.16,15.4-17.77,20.36-28.88.38-.86.33-3.72,1.26-3.68l4.14.18c.91.04.07,3.67.46,4.54,4.63,10.26,6.75,14.86,14.03,23.96l4.77-1.2-3.54-7.21-4.71-6.66c-.81-4.3-3.34-8.96-5.69-12.31-1.35-1.92-.92-7.05-1.87-8.96-5.83-11.69.33-9.66-5.52-11.76l-.18-29.31,8.08-3.78c2.04-.95,6.05,2.14,7.36,4.03l9.01,13.06,5.66,8.19c2.6,3.76-.44,11.4,1.73,15.71,1.6,3.2,2.53,6.46,2.88,10.26,1.93,1.13,5.73,3.44,7.79,5.02,7.71,5.93,16.35,2.39,22.19-3.76,5.09-5.36,5.83-11.26,1.48-17.4-4.03-5.69-10.41-5.27-16.14-2.17l-2.75,1.48c-.72.39-.21,2.48.5,2.89,2.44,1.38,4.54-1.01,8.43-2.91,1.14-.56,4.02,1.74,4.91,2.76,3.17,3.62.96,8.81-1.64,11.66-3.23,3.55-7.39,4.89-12.13,2.88-8.7-3.69-12.72-14.41-7.89-22.35,1.65-2.71,3.1-4.11,5.8-5.69,3.9-2.29,7.87-7.68,13.22-4.73,1.81,1,4.75,2.39,6.99,2.49l2.76.12c.62.03.49,1.71.72,2.71l.55,2.36c.09.39,1.03.99,1.28.67l1.71-2.16c1.25-1.57,3.31-4.07,3.3-5.7s-2.34-4.63-3.58-5.75l-3-2.71c-.82-.74.29-3.81,1.46-4.32,9.67-4.25,6.72-14.09,24.48-28.44,1.2-.97,5.58-1.78,6.57-2.18,2.84.91,6.41,1.53,10.14,1.42,8.2-.23,6.69,6.09,24.52,2.38,15.88-8.52,12.76-15.24,32.49-24.44l8.66,4.49c.94.49,2.4,2.3,3.32,2.18,1.15-.15,3.43-1.37,4.41-2.15l6.15-4.84c5.11-4.02,9.78-3.2,15.06.31,19.29,12.82,13.16,23.65,31.95,25.25l12.97,1.1c3.89.33,7.8-1.44,12.3.66,12.1,5.65,17.66,1.41,26.1,21.42l4.05,9.61-12.42,12.16-.31,8.46c17.66-10.56,8.48-4.24,21.07-7.29.51-.12.52-1.71.85-2.11s1.61-.65,1.99-.29,1.37,2.64,1.89,2.69c3.12.32,9.13,1.16,11.6,3.93,3,3.38,4.04,7.32,3.7,12.03l-6.99,1.23,7.31,3.25c-2.91,3.16-5.75,6.37-8.14,7.35l-6.63,2.71c-2.29-3.49-13.75.54-13.85-9.71.87-2.55,5.73-6.3,7.66-7.45l7.04,5.58c.41-2.74.68-5.55.44-7.35-.19-1.47-3.86-1.41-5.65-1.78-6.84-1.39-12.43,2.35-14.29,9.47-1.75,6.7,5.09,11.14,10.43,13.82,7.43,3.73,14.37,1.71,20.53-3.31,10.73-8.74,11.59-20.41,5.87-31.03l3.06-6.93c1.72-3.91,8.03-8.51,12.22-9.64l8.47-2.28c2.35-.63,7.05,2.72,9.44,4.44l.26,19.74-3.19,5.74c2.04,14.56-16.54,4.57-7.09,19.78l-3.19,6.82c-3.47,7.42-7.2,14.29-11.17,21.41-1.09,1.96-7.19,5.72-1.7,8.05,3.53,1.5,6.99-5.1,8.5-7.85l7.73-14.01,5.36-9.33c1.91,3.62,4.41,9.04,6.79,12.15l9.35,12.22c5.3,6.93,11.71,13.48,18.16,19.58,6.27,5.92,12.96,11.43,16.54,19.92,2.32,17.07.83,13.4-3.34,22.11-1.63,3.41-4.56,5.01-8.28,5.27l-.67,5.13c-4.22.72-7.83,1.49-10.97,2.37-7.91-3.69-15.95-7.84-24.03-12.32-2.98-1.65-6.04-4.1-9.41-5.67l-7.59-3.55-5.89-5.18c-2.6,6.3,3.17,7.77,6.64,10.29,12.63,9.2,12.87,6.67,21.49,12.31l10.74,7.03c12.67,8.29,21.95,17.03,26.97,31.7.56,1.65,1.06,4.46,1.61,6.42l1.04,3.69c.18.62.99.47,2.4.98-.07,19.16,2.05,10.38-3.94,22.72-.84,1.72-2.4,5.01-3.46,6.43-1.25,1.69-16.67,11.67-23.7,6.36-3.39-2.55-6.46-5.91-9.55-9.23l.22-10.21,6.3-6.95c.43-.47-.32-4.04-.88-3.73l-3.25,1.79c-2.11,1.16-7.27,3.76-7.87,6.12-1.04,4.07-1.49,9.31-.67,13.44,1.43,7.17,14.65,20.87,30.58,13.82l6.37-2.82c1.45-.64,4.56-.94,6.32-.92l.81,14.06,7.68,10.5c4.65,6.35,10.39,11.93,16.17,17.5,1.95,1.88,3.32,4.56,4.72,6.5,3.78,5.24,5.42,8.8,6.5,15.2.55,3.28,1.56,5.59.41,8.49-4.01,10.21-11.56,14.19-21.24,16.41-4.46,1.02-7.37,3.22-12.32.61-5.18-2.72-9.31-5.93-13.16-11.36-3.63-5.12-1.54-13.28,2.19-20.05-5.64-2.3-6.17,3.69-7.7,6.44-2.73,4.92-3.87,9.59-.91,14.57,10.19,17.14,18.66,15.29,37.64,15.06l3.72,8.61c1.43,3.31.91,9.77.74,14.18-1.43,2.04-4.49,6.45-6.65,7.41l-8.11,3.6c-2.28,1.01-8.32.9-10.32-.61l-8.44-6.36c-3.84-2.89-7.57-4.59-11.81-6.26-5.37-2.12-7.98-2.12-13.2.44-2.61,1.28-7.07,2.08-9.31,4.39l-7.16,7.36c.49,11.02-3.35,19.69,8.27,25.96,9.14,4.93,1.41,4.28,18.05,3.76l7.41-7.16c1.42-1.37,2.89-15.07-4.39-14.63l-1.62,11.43c-9.05,3.9-16.58-1.94-19.37-10.09-.53-1.53-2.75-5.42-1.6-6.88,6.74-8.52,13.33-13.33,24.12-9.03,8.1,3.23,12.56,8.95,14.81,16.65,1.36,4.67,1.22,7.65-.77,12.44-1.47,3.53-2.84,7.39-5.6,10.29l-6.32,6.66c-12.64,13.32-37.27,6.38-36.78,6.42l-14.62-1.04c-3.85-.27-6.81-2.58-11.06-2.7l-4.22-3.08c-3.8.48-7.98-1.63-8.62-4.46,6.37-9.56-1.87-24.21-13.1-28.13-8.95-3.12-1.77.67-12.58,1.75l-2.39,8.02c7.88,3.45,2.88-9.19,15.66-3.24,4.24,1.97,4.5,4.72,5.96,8.85,1.18,3.35,2.17,5.81.32,9.18-2.59,4.7-6.68,10.8-11.63,11.63-2.83.48-5.55-2.45-7.48-2.85-12.5-2.61-22.07-5.43-27.17-20.45-.78-2.29-1.61-4.74-1.89-6.95l-1.07-8.32c-.47-3.65-4.01-21.72-1.66-26.22l2.52-4.82c.49-.95-1.18-2.59-2.34-4,2.56-4.01,3.57-9.16,1.32-14.63-8.82,14.26-6.74,18.12-10.66,26.78-1.07,2.36-.9,7.86.41,9.91,1.87,2.91.03,5.94.34,7.92l2.35,15.41c.5,3.29,4.82,7.38,1.7,11.55-2.46,1.11-8,.71-10.9-.4-.45-1.38-1.1-5.07-2.01-5.92l-9.35-8.79c-2.89,2.73-4.41,3.26-7.55,3.76l-9.75,9.95,2.65,3.04c.6,1.52,5.29,3.21,5.67,1.5.49-2.16.95-6.13,2.08-7.36,1.47-1.59,7.16,1.05,7.64,3.09,2.04,8.62-.71,9.21-3.15,15.08-3.53,8.5-12.77,9.78-19.04,13.02-6.76,3.48-10.78,1.09-16.82-.31-20.81-4.84-15.82-15.05-21.33-16.7-1.03-.31-3.27.31-4.02,1.09-4.19,12.42-19.95,11.49-20.76,11.87-6.18,2.84-9.92,4.03-16.45.41-5.51-3.06-10.03-6.2-12.06-12.83-1.74-5.69-3.28-15.17.66-19.45,2.87-3.13,7.39-3.69,10.84-1.82l-3.87,4.53c-.8.93,1.68,3.84,2.4,4.28l.64,1.26c.23.44,1.83.27,2.32.02,4.38-2.29,5.49-7.69,3.66-12.23-1.69-4.17-6.94-7.05-11.53-4.47-18.79,10.56-15.87,16.47-16.86,17.92-.5.73-3.69-.16-4.22-.95-2.04-3.01-1.08-9.22.57-12.92,2.62-5.87,1.35-12.95,1.5-19.41ZM492.67,763.2l13.1-5.98c4-1.83,6.69-4.28,8.76-8.35,4.27-8.4,2-18.06-4.64-21.87-4.52-2.59-8.41-3.53-12.93,0-3.33,2.59-7.83,7.02-8.47,10.57-.26,1.46,2.98,6.12,5.56,6.32,1.05.08,3.47-1.31,3.62-1.75-1.61-2.07-2.75-3.36-3.07-4.61-.26-1.04,1.03-3.75,1.76-4.55,3.33-3.63,9.3-2.79,12.05.12,6.76,7.15-3.33,16.86-8.67,22.17-3.06,1.83-9.05,2.12-7.08,7.94ZM465.51,731.45c3.29-1.29,8.44,3.16,7.42,6.69-.6,2.07-3.94,4.77-6.25,6.8,4.45,5.38,12.37-4.79,12.73-7.47.18-1.34-1.4-3.96-2.21-5.24l-2.73-4.37c-4.45-.08-10.39-.37-14.74.43-2.92.54-7.68,6.14-8.25,9.1-1.02,5.26-.62,12.83-.28,17.66l7.9,6.44,9.01,1.74c2.93.98,5.3,4.71,8.33.13l-9.58-5.67c-3.07-1.82-7.77-3.57-9.1-7.12-2.75-7.35.45-16.23,7.76-19.11ZM460.1,769.19l-18.03-10.88-.82-12.52c-3.31,2.83-5.3,5.83-6.56,9.45,4.91,7.78,10.7,14.04,18.61,19.2,1.91,1.24,7.39-2.89,6.8-5.25ZM508.71,778.01l2.88-1.61c8.38-4.68,12.67-11.61,16.01-20.35.66-1.71,1.53-4.34,1.21-5.81-.27-1.26-4.99-1.02-5.21.23l-1.22,7.26-3.98,6.38c-16.63,8.98-10.66,14.43-9.7,13.9ZM390.43,841.95c-1.33,2.14-3.45,4.98-4.95,6.55l-9.97,10.41-10.83.28c-1.45.04-2.05,4.88-.8,5.54l4.36,2.31c2.89,1.54,5.6,1.24,8.41-.19,9.49-4.79,15.43-11.87,20.81-20.61,11.46-18.64,7.6-16.1,11.76-25.16,3.87-8.43,8-16.45,13.46-23.92l6.79-9.3-5.26-.37c-4.44,5.1-9.48,10.1-14.57,14.8-2.61,2.41-5.8,5.99-10.73,3.21-2.7-1.52.54-8.37,1.19-11.53,1.25-6.11,4.28-8.91,9.28-11.33,3.76-1.81,8.32-6.42,13.66-4.66,1.51.5,4.96-3.26,4.63-4.74-2.89-13.14-7.3-19.12-22.82-23.9-2.66,1.18-6,2.69-8.51,4.01-5.02,2.63-5.58,10.69-4.01,14.98,1.13.21,4.53.15,4.71-.8l.63-3.41c.54-2.94,2.49-7.58,5.39-8.05,5.83-.95,13.88,3.27,13.89,7.26.02,7.3-15.04,14.85-24.66,29.02-6.24,9.18-16.1,30.02-27.49,32.98l-6.97,5.64-20.87-.03-3.42-3.26c-.79-.76-4.3,1.2-4.16,2.08,7.73,8.75,24.62,9.96,33.6,4.29,3.97-2.5,7.55-4.81,11.39-7.62l6.8-4.96,12.44-.08,5,5.66-6.7,5.57,2.68,2.6-4.18,6.72ZM600.47,873.24c-6.24,4.78-11.9-.11-16.01-3.99-10.19-9.63-17.63-24.54-22.4-37.18-2.21-5.86-3.63-11.71,3.28-16.1,2.59,2.05,5.62,4.73,8.49,7.69l12.85,13.29c7.55.5,14.23.42,22.27-1.34l-13.5-2.15-5.25-3.17c-10.04-6.06-12.58-18.55-19.67-25.39l-1.09-6.02-10.67-14.12c-3.99-5.28-9.9-9.29-13.74-14.82l7.31-7.59c5.77-.97,17.14-.81,17.66,6.68.56,8-3.44,4.01-3.25,11.13.02.69,2.32,1.02,3.48.83,3.15-.53,5.44-5.03,6.03-8.33s-1.11-6.3-3.84-9.55c-2.33-2.76-6.16-3.96-9.51-5.01-.96-.3-2.9-1.58-3.75-1.94s-2.42,2.17-3.49,2.25c-6.66.47-19.34,9.95-24.07,15.48l-2.51,2.94c-.61.71.66,3.9,1.6,3.94l12.71.53,6.88,3.66c1.9,1.01,4.65,4.64,6.13,6.95,1.6,2.5.97,8.66.59,12.15l-4.46,5.23-9.26-9.49c-3.24-3.32-9.86-4.79-13.77-7.95-2.23-1.8-6.49-2.28-6.71.41,4.29,4.01,10.32,6.69,13.34,10.65,6.03,7.88,10.55,14.49,14.2,24l3.07,8,2.99,6.84,3.18,7.23c1.09,2.47,3.53,5.52,5.25,7.44,3.75,8.54,9,15.28,16.62,21.54,6.48,5.33,22.35,6.08,25.44-5.58-1.28-1.63-4.77-.36-6.37.86ZM443.47,839.6c6.31-4.77,9.96-18.53,10.03-19.21l1.45-15.62,2.85-9.1c.69-2.19,3.58-4.82,5.81-7.34-.63-.86-4.56-1.23-5.33-.04-7.87,12.16-9.87,9.83-11.11,19.82-.12.94-2.43,2.82-2.03,3.58l1.61,3.12-2.19,6.09c-2.4,6.68-7.04,12.21-11.89,18.54,2.55,1.01,8.57,1.87,10.82.17ZM531.3,839.26c.96-.77.91-4.73-.14-4.83-9.22-.84-14.34-5.97-18.73-14.85-4.8-9.72,1.45-2.55-4.27-14.76l-3.33-7.11c-1.35-2.89-4.01-5.64-7.42-3.76,6.4,7.55,1.33.6,5.58,16.63l3.43,12.93c.38,1.44,2.16,4.09,2.78,5.33,2.25,4.47,4.48,9.51,11.25,8.33,2.18,2.9,7.66,4.62,10.84,2.08ZM482.24,843.98c.16-10.7.38-24.33-.37-33.58-.16-1.97-3.46-5.54-4.48-7.94l-3.42,10.74c-2.29,7.17-.76,17.64-.39,25.43l3.13,7.2c.58,1.34,5.5.51,5.53-1.85ZM365.33,852.99c6.16-4.26,11.88-8.55,16.91-12.9.35-3.77.76-4.62,2.74-8.8l-7.86-.14c-2.18,8.95-8.87,8.76-17.16,16.68l5.37,5.17ZM415.88,862.73l11.68-2.88c3.66-.9,9.29-.55,12.82-1.14l6.45-3.92c2.36-1.44,7.07-4.46,8.68-6.57l6.78-8.83c.51-.66,1.16-2.54,1.28-3.26s-1.67-1.7-2.01-1.43c-3.45,3.51-8.12,9.63-12.14,10.92l-9.81,3.14c-21.28,6.8-17.87,1.58-30.71,9.35-2.62,1.58-5.43,2.38-7.45,5.25-2.58,3.67-6.54,6.99-2.99,11.74,7.7-6.38,7.02-9.6,17.41-12.38ZM555.23,860.81c-1.51-2.99-3.35-4.75-6.21-5.81l-9.06-3.36c-2.55-.95-5.38-1.85-8.43-1.74-2.8.1-5.59-2.11-7.65-2.45-17.47-2.94-20.73-12.69-25.04-12.91-.6-.03-1.18,1.79-.84,2.28l1.27,1.87c4.92,7.23,11.79,12.41,20.43,15.07,15.33,4.73,12.49-.4,16.39,4.76l7.53,1.21,6.07,3.87c2.44,3.38,6.32,8.47,9.7,12.11,4.12-6.87-1.61-9.85-4.16-14.91ZM594.29,859.07l.3-8.33-5.65-1.73-14.76-15.16c-2.99,4.65-1.34,8.09,1.64,11.31,11.47,12.37,4.41,5.91,18.47,13.9ZM271.82,879.73c-1.09,2.12-2.6,4.48-2.73,6.92-.15,2.86,7.65,13.14,16.24,9.36.42-.66.35-3.13-.09-4.11-1.24-2.78-7.83-.58-8.6-2.4-2.97-6.99,6.98-15.78,9.99-17.08l7.76-3.36,20.31-1.4c5.4-.37,22.78-13.15,27.42-19.69-1.65-1.15-4.63-1.83-5.42-1.05l-2.61,2.55c-3.68.41-6.73,1.18-9.93,2.74l-7.2,1.43c-4.05,2.97-6.74.84-11.28.19l-14.53-2.08c-4.07-.58-6.38-2.95-10.06.04-2.18,1.77-3.58,3.12-5.9,6.62l9.95,1.24c2.79,13.7-3.41.88-13.31,20.07ZM489.53,856.85c-5.16-2.66-5.91-.39-8.16,1.37-6.96,5.47-15.14-10.75-14.98,2.68.01,1.15,3.57,1.09,4.71,1.69,3.52,1.86,7.52,5.73,11.06,2l7.37-7.75ZM684.24,885.11c-3-5.1-10.54-8.2-14.28-11.59-.83-.75.02-4.31,1.08-4.6,6.33-1.71,9.58,2.57,11.44-1.66l-7.56-8.1c-1.07-1.15-4.88,1.49-6.01,2.81l-14.82.55c-7.41,3.9-14.22,2.7-21.69.17-2.7-.92-5.89-.7-7.98-2.96l-6.9-1.02c-.73-1.07-2.36-3.48-3.23-2.95l-3.49,2.11c4.65,7.54,24.79,18.8,30.88,19.26l19.78,1.47,8.71,3.07c4.52,1.59,9.98,7.17,11.75,11.67,1.81,4.58-5.11,6.54-7.88,6.56-.99,0-1.32,2.9-1.41,4.37-.06.98,3.19,1.45,4.34.78l2.02-1.18c3.31-.58,6.26-1.89,8.33-4.11,2-2.16,1.89-6.18.56-8.44l-3.64-6.18ZM473.9,886.8c2.36.41,6.46.34,8.14-.11-.08-7.48,6.08-9.97,11.23-12.66,12.4-6.48,8.67,2.69,17.32-7.37l-6.34-4.56-10.27,4.2c-1.73.71-5.55,2.18-6.92,3.27l-9.5,7.55c-2.38-7.4-22.2-15.1-29.99-11.19,4.22,11.13,15.27-1.64,26.33,20.86ZM322.59,965.67l-3.63-2.51-5.06-2.19c-.08-6.15-1.3-13.68.51-19.5l3.12-8.85c4.25-12.06,10.63-13.9,19.22-23.68l4.23,1.93c-1.92,2.05-4.09,4.31-5.16,6.46l-2.93,5.93-2.66,9.92c.48,2.33,7.6.9,7.7-2.18.27-7.64,5.86-11.66,8.85-17.07,5.46-9.89,11.53-22.15,14.58-31.84.76-2.4,3.45-4.63,1.23-7.58l-4.47,4.18c-.8,8.98-6.48,14.99-13.36,19.89l-11.8,8.42c-6.77,4.83-12.11,7.93-14.35,13.97l-5.05,5.52c-.68,14.47-9.4,11.41-5.54,30.76,1.12,2.46,1.98,4.37,2.99,7.16,1.14,3.13,4.89,4.02,8.32,4.45,5.87.74,12.48-.8,13.09-7.58.33-3.71-.51-7.23-2.69-9.47s-6.02-2.82-9.75-1.59l.16,13c3.33-1.06,2.9-4.55,3.29-6.58.31-1.61,5.39-.91,5.6.71.7,5.54-5.38,9.08-6.45,8.34ZM626.14,964.53c1.02-3.54,5.4-5.59,8.88-6.73-1.69-2.12-6.36-2.89-8.23-.89l-6.32,6.76c-.65.69.57,8.29,6.82,12.02l3.6,2.15c.85.5,3-1.67,4.2-1.9,8.35-1.59,14.41-9.72,13.14-19.37-.49-3.73-1.04-6.99-2.48-10.32l-3.12-7.21c-1.94-4.47-10.4-17.31-15.8-20.14-5.33-2.8-24.99-15.05-27.68-19.31l-9.54-15.1c-4.19-.63,5.08,17.68,4.48,16.5l7.2,14.26c2.01,3.97,5.44,7.89,8.22,11.59l6.64,8.85.99,6.58c.18,1.2,3.74,1.67,4.78,1,4.17-2.67-4.49-17.45-6.53-21.13l-1.61-2.9c-.29-.53,3.34-1.18,3.8-.79l13.17,11.01c3.29,2.75,5.8,9.16,7.22,13.15l2.85,8.03c1.59,4.47.79,11.74.3,16.53l-6.79,3.82c-3.28,1.85-9.46-2.08-8.2-6.45ZM431.56,916.93c1.87.52,4.58-.7,5.97-1.88,1.26-1.06,1.89-6.04,1.5-7.6l-1.15-4.57c-.65-2.57-7.51,5.16-12.98,3-3.89-1.54-7.75-9.99-9.5-16.08-1.05,1.1-3.24,3.84-4.25,5.63l-3.75,6.63c5.18,1.69,16.53,4.95,15.99,12.61l8.16,2.27ZM447.21,899.17c-1.68-3.15-2.17-4.22-2.88-5.16s-4.03-.57-5.02.08-.79,4.21-.46,5.64l8.36-.56ZM377.99,911.54c4.17-4.28,8.39-6.4,14.17-5.42,2.31.39,7.13-3.05,5.45-4.72-6.72-6.7-12.98,5.91-26.26.1l-9.62,1.6c-2.9.48-1.74,8.25.48,10.4,5.43,5.24,10.6.16,15.77-1.95ZM478.59,941.07c1.78-5-.33-13.02.94-17.65,6.82-6.22.28-23.23-6.26-22.77l-.51,27.94-.23,12.62c-.07,4,.38,8.1,1.91,11.51l4.15-11.66ZM536.55,910.33l9.01-5.87c-3.24-4.2-5.97-.93-8.32.47l-6.46,3.85c-2.42,1.44-6.69-.42-9.08-2.15l-7.79,3.69c-1.48,1.39,1.33,5.87,3.04,7.05,8.42,5.82,16.49-5.01,19.6-7.03ZM587.56,905.28c-3.77,5.7-8.4,4.36-13.04,1.81l-6.48-3.56c-2.38-1.31-8.16-1.03-10.39.42-.86.56-.6,4.36.42,4.5,13.57,1.85,21.15,12.22,26.71,11.53,3.84-.48,7.5-4.24,7.48-7.07-.01-2.28-1.85-4.61-4.7-7.62ZM420.91,950.2c2.57-2.04,4.82-4.28,5.17-6.29.52-2.97.77-7.27-2.58-8.14l-.91-9.26-4.72-6.21c-1.07-1.41-4.88-4.06-6.57-4.59l-14.11-1.03c-1.17-1.22-2.1-2.27-2.96-1.96-.75.27-2.88,1.68-3.57,1.8l-8.08,1.43c-.21,2.49-.68,7.87-.03,10.25,2.28,2.88,5.36,6.5,8.29,8.92,3.28,2.71,11.1,3.1,14.71,1.2,2.85-1.51,8.63-3.9,9.94-.61,1.57,5.08,2.86,8.98,5.42,14.5ZM560.09,939.25c4.43-3.07,17.16-15.35,12.01-20.23-2.31-.72-5.33-2.79-7.03-3.15-5.12-1.09-13.4-.93-18.32.08-6.45,1.33-15.37,9.94-16.72,13.84l-3.29,9.51c-1.2,3.47-.72,8.68-.56,13.87,9.25-2.64,9.47-15.27,14.41-15.75.74-.07,13.65,5.88,19.51,1.83ZM431.5,975.58l3.49-8.85c.25-.64.8-2.82.97-3.43.16-.56,1.04-.42,2.21-.53l1.33,6.22,1.98-4.75c-.46-2.39-.27-3.32-.16-6.06l1.01-25.46c.04-.93,2.21-2.75,1.88-3.45l-1.2-2.56c-1.15-2.45-1.58-3.41-3.49-6.7l-1.54,12.82c-.15,1.25-2.36,3.96-1.85,5.1l1.64,3.69-2.82,5.9-11.08,21.35c-5.12,9.87-6.85,19.78-.14,29.78,3.94,1.36,7.39,3.68,10.41,6.95,6.14-12.39-11.39-7.7-2.61-30ZM689.88,988.32c5.29-2.76,8.55-5.41,8.46-11.45l-.19-12.39c-.05-3.46-.86-7.22-2.52-9.96l-5.53-9.14c-2.7-4.47-5.61-6.91-10-9.78-2.89-1.88-5.78-4.13-8.79-5.57l-6.85-3.27c-2.22-1.06-4.98-2.11-7.63-1.49,1.2,4,5.65,4.7,8.41,6.79l6.98,5.29,1.33,5.2c2.86,2.39,5.79,5.32,5.91,7.92.18,3.83-.69,6.69-2.8,9.84-.88,1.31-.45,5.39.95,5.33,8.01-.31,2.95-6.01,13.18-2.23,1.01,3.58,1.68,9.58.23,12.88-5.03,11.41-4.77,4.95-8.34,10.22-.89,1.31,1.37,4.86,3.02,4l4.2-2.19ZM387.62,952.29c1.18-3.5,1.74-4.4,1.3-4.73s-2.06-1.29-2.51-1.75l-9.67-9.77c-1-1.01-1.03-5.39-2.34-5.18s-4.91,1.61-4.4,2.85l1.83,4.41c1.45,3.5,3.29,4.44,5.97,6.53l9.81,7.64ZM507,1009.46c7.03-.3,8.96-4.26,12.41-7.97l6.33-6.81.65-10.36c.93-.64,2.78-1.74,2.32-2.16-.35-.32-1.56-1.39-1.73-1.83l-3.23-8.35-3.52-8.86-1.19-14c.7,8.2-4.44-21.99-2.82-17.72-.22-.56-2.34.13-2.37.74l-.58,10.25c-1.54,1.51-2.93,2.64-3.03,3.71-.32,3.48,3.96,4.19,3.31,6.63-.8,3-4.23,4.24-2.84,5.32l2.23,1.73,1.12,10.16c1.06,1.23,3.15,3.79,2.92,5.19-.19,1.2-1.71,2.93-2.88,4.06,9.46,13.31-8.49,22.46-7.1,30.28ZM578.81,933.35c-4.73,2.23-7.31,6.13-10.54,9.52l-8.44,8.87c2.98,6.38,24.79-9.8,18.98-18.39ZM346.6,1003.34c5.45-2.93,7.95.66,9.71,2.99l5.83,7.7c2.15,2.84.24,6.44.22,8.85s2.03,6.15.07,8.85l-11.88,16.39c-8.98,12.4-15.73,43.05,1.62,45.52,1.09.16,3.76-.4,4.67-.85s.49-3.58-.13-4.38c-.47-.6-1.87-.68-3.26-.89l-5.51-.83.44-23.17c2.85-3.35,4.07-7.53,6.59-10.87l14.04-18.66c3.67-4.88.28-13.08.74-18.83.98-12.52-3.3-7.84-10.24-19.67l-6.73-11.47c-2.79-4.76-1.32-11.53-2.55-17-.39-1.75-2.94-4.15-2.43-6.89.74-3.99-1.18-7.34-2.33-10.59l-1.55-12.8c-7.26,5.73-5.87,24.03-4.36,29.61l3.09,11.41c1.16,4.29,3.33,9.4.43,13.06-.17.22-3.58,11.17-5.21,13.41-9.46,13.01-24.32,20.93-26.78,32.25-1.35,6.19-.55,14.45-.55,21.03l8.09,7.47c3.52.55,8.68.58,12.07.39,2.13-2.13,5.39-5.56,7.22-7.75.5-.6,3.38-11.66-1.89-15.78-1.85-1.45-5.06-1.52-7.15-.57,3.65,3.24,4,6.48,2.93,11.1-2.01.36-6.98.34-8.21-.02-.9-3.69-1.58-4.95-2.96-7.63-2.2-7.46-1.06-12.73,3.57-18.85,7.78-10.29,7.22-3.25,12.27-11.7,2.12-3.56,6.79-9.04,10.14-10.84ZM593.99,1013.27c1.48-3.08,2.53-3.96,4.81-4.95l3.99-1.74c1.49-.65,12.36,12.58,19.98,18.19,4.54,3.34,8.43,6.79,12.68,10.67.3,9.44,1.58,19.67-8.84,23.39-.5.18-.41-1.59-.59-1.84-2.45-1.15-4.67-3.5-5.5-5.7,1.19-1.14,2.97-2.76,2.76-3.76l-.76-3.52-8.83,3.99c-.19,3.11-.22,9.02.04,12.54,5.38,6.25,13.42,10.23,22.03,7.45,2.86-.92,7.35-5.16,9.21-7.89-.05-5.75.46-12.89-.63-18.15-2.52-12.18-26.55-25.73-30.06-35.09l-3.04-8.09-2.86-6.89c.91-1.97,2.18-5.02,1.93-6.98-.52-4.07,2.04-6.2,2.57-9.03l2.13-11.44-1.48-10.97c-.6-4.4.18-7.51-5.74-9.66-2.47,15.95,1.79,10.9-2.97,26.52-.7,2.3-.63,6.65-1.69,8.37l-2.69,4.38c-2.61,4.25-4.56,10.09-7.07,13.54l-5.56,7.65c-3.16,4.35-14.7,16.16-14.75,15.9l.72,3.85c3.2-2.45,5.48-2.94,9.08-1.53-4.62,4.76-4.38,7.96-1.71,12.53,1.42,2.43,3.12,7.63,4.95,9.76,6.5,7.58,20.53,21.08,18.75,30.81l1.8-3.62.25,13.47-7.5,7.92c-1.22-1.1-3.19-3.06-3.46-2.21l-.98,3.04c-1.38,4.31,14.61,1.19,15.18-7.26,1.11-16.38.79-23.17-9.9-36.4-12.12-14.99-12.4-10.47-11.54-29.49.1-2.33,4.22-5.54,5.28-7.76ZM410.74,1006.89c-2.32-1.93-5.76-1.03-8.12,1.37l-7.45-6.71c-.46-3.17-1.54-5.34-3.41-6.68,6.67-5.51-5.09-11.45,1.9-18.94.84-.9,1.73-4.86.66-4.65l-4.86.94c-.62-7.27-6.88-10.98-12.41-14.64l-12.32-8.15c-6.28,10.88,8.07,9.43,14.39,32.82.54,2.01-.04,5.91.96,7.23s2.37,3.51,2.47,4.75-2.38,3.06-3.37,3.64c6.84,5.06,12.17,15.44,9.05,22.93-.98.79-3.49,1.62-3.39,2.69.08.86.6,3.39.61,4.31l.32,23.08c.04,2.95,6.89,6.35,8.87,4.23,1.76-26.84-5.55-27.87,16.1-48.22ZM452.25,1152.28c1.21-4.99,4.29-9.48-.95-14.25l-.71-13.12c-7.66-8.42,1.52-14.23,4.69-19.39,1.65,2.23,3.3,3.86,5.14,3.99,2.55.18,3.93-2.59,2.64-4.52-1.39-2.08-2.81-4.5-2.78-6.23.02-1.39,2.15-3.88,1.86-5.22-.46-2.1,1.88-5.52,3.88-5.99,6.9-1.64,13.3,6.06,13.3,9.89,0,6.48-3.65,4.29-3.5,11.18.04,1.95,7.41-1.74,11.03,2.74,1.07,1.32,1.41,4.04,2.15,6.02.61,1.63,3.01,4.94,2.95,6.81-.19,6.32-.17,12.48-1.25,18.05-.66,3.42-2.4,4.85-.56,8.2,2.8,5.07,5.63,9.97,8.77,14.9l7.68-.42c.97-.05,1.21-4.36.25-4.65l-4.63-1.38-4.38-9.22-.04-33.26-4.04-6.5-4.76-2.18c-.71-3.83-1.19-9.93-.2-13.33,1.31-3.64,17.15,3.03,20.94,4.48,3.56,1.36,14.12,2.06,16.32-3.03.54-1.25-.04-4.86-1-5.47-16.99-.79-13.34,2.08-28.29-4.03-4.45-1.82-11.69-5.7-13.51-9.82l-3.27-7.41c-4.09-9.28,5.41-19.37,14.39-24.34,4.09-2.26,15.88-3.16,18.08,1.68l2.08-5.49,10.09-1.03,6.74-11.08c2.64-4.34-.45-25.05,3.54-16.63,3.85,8.14,3.06,2.7,8.89,10.23l6.5,13.27c2.25,4.61-2,23.31,7.23,23.45-.42-10.19.83-20.56-1.07-29.19-1.04-4.71-4.13-6.83-.55-12.28,3.74-5.7,6.84-13.17,10.25-19.93l1.24-6.69c5.49-12.74,4.16-11.88,16.98-20.72,5.58-3.85,5.57-12,2.46-17.7-1.46,6.13-5.3,7.83-9.43,10.82-14.22,10.29-22.71,21.18-27.24,37.82l-3.03,11.14-6.96-2.8c-2.23-.89-7.52-.34-9.79-.82-1.52-1.88-2.7-3.35-3.89-3.3-1.45.06-4.01,2.28-3.45,3.35l2.55,4.9c-1.52,1.88-2.57,4.48-2.54,8.4l-4.33,7.49c-1.36,2.35-7.8.95-9.48-.97-1.17.68-3.04,2.04-3.94,1.58l-4.39-2.25c-1-.51-3.2,2.18-4.31,2.4-1.88.37-6.27.14-7.99.81l-8.09,3.77c-9.25,4.32-10.67,1.4-10.96,2.8l-.44,2.07-7.48-3.55c-11.1-5.27-9.27-8.51-17.24-8.67l-17.87-.36-6.44-4.83c-2.73-15.83,6.99-12.12,1.35-20.54l-8.15,10c-.72,5.97-.65,12.08.77,17.09,1.38,4.85,6.33,4.64,9.48,5.95,16.54,6.86,11.91-5.17,30.84,13.37,12.02,11.77,2.02,11.18,9.03,24.25-2.67,3.78-8.52,6.88-13.18,9.25-11.35,5.78-7.03-1.1-16.17,4.51-.93-.58-3.62-2.76-4.86-2.22l-4.5,1.95c-3.23,1.4-6.69,3.67-7.79,6.2,15.82,8.83,6.36.95,17.32,6.14,9.28-2.71,7.54-6.34,15.52-5.06l4.14.66c.7.11.56,3.88.08,4.4l-8.76,9.64c-2.31,2.54-3.54,7.1-4.47,9.96-.32.98-2.7,2.92-2.22,3.8s2.17,2.71,2.44,3.73l2.55,9.83c1.72,6.61,2.37,20.3-3.44,23.66-.9.52-4.87.06-4.82,1.04l.26,4.43c.06.97,3.08,1.01,4.17.91,7.64-.72,11.1-7.1,12.56-13.14ZM480.33,983.26l7.4,7.69.88-6.21c.15-1.09,3.9-.53,4.98-1.37,1.76-1.36,1.31-6.22.3-9.14l-3.84,3.93c-.92-1.51-3.32-4.3-4.8-3.93-1.27.32-2.92,1.95-4.72,3.44-1.04.42-1.95-4.69-.83-5.64l7.21-6.12,11.81-.97c-2.36-3.53-5.33-6.27-7.88-6.21-4.08.09-6.78,1.05-10.06,2.64l-4.45,2.15c-10.47,5.05-1.46-1.2-15.43-5.58-1.4-.44-5.01-2.85-6.28-2.12l-4.36,2.48c-.72.41-3.24,1.6-2.72,2.25l1.87,2.35c2.1,2.63,5.27,1.85,8.25,2.9l9.99,3.53,7.6,2.79.76,8.46c-3.32.32-8.52,1.2-10.87-.15l-5.88-3.37c-3.39-1.94-7.39-3.68-10.91-1.41l-6.42,4.14c14.02,2.72,7.68-1.93,20.45,5.12,9.22,5.09,12.19.32,13.71,3.14l1.28,2.37,2.95-7.16ZM483.25,998.75c-4.58-3.79-9.5-1.39-13.6-2.71s-7.67-3.94-12.31-1.6l5.34,5.91,20.57-1.6ZM254.54,1047.91c-1.5,1.63-2.66,3.43-3.42,5.03l-2.43,5.11,4.46,1.45c.94.31.95-4.11,1.57-4.9,2.87-3.64,8.09-9.66,12.32-12.77,3.35-2.47,7.53-3.84,10.53-7.28l6.66-.98c1.01-1.81,3.21-3.81,4.36-2.86,1.06.87,2.47,2.59,3.27,3.78.68,1.01-3.15,3.13-3.17,4.42l-.34,23.2,6.49,12.21-2.5.61c-.52.12-.79,2.32-.27,2.42.35.07,1.57.29,2.11.32l6.41.33c-.11,5.59,3.57,5.1,7.56,6.51,3.82,1.36,11.66,5.79,14.77.89,2.51-3.94-4.46-3.94-6.59-4.67-4.53-1.55-9.53-4.47-13.89-7.24-2.08-3.43-4.54-7.77-6.37-11.95-2.16-4.95-2.09-14.63-.11-20.21l2.92-8.24c.82-2.32,2.31-6.21,3.24-8.06l6.47-8.9c6.13-8.43,12.45-10.54,14.81-17.59.21-.62-1.8-1.6-2.32-1.19-1.95,1.56-6.18,4.34-8.57,6.01-6.07,4.23-11.38,10.47-16.51,15.51-2.31-2.55-5.64-4.76-7.07-3.85-.77,3.42-1.16,6.04-2.97,8.15s-4.76,2.35-8.16.56l14.93-13.61c2.17-1.98,3.22-5.16.83-7.75-3.24,3.06-6.54,7.19-9.99,9.32l-9.37,5.79-6.35,3.66-7.4.74c.55,12.15-18.81,7.17-27.74,32.41-1.13,3.19-.73,9.93-.02,12.98,2.16,3.18,11.15,15.4,16.16,8.67l-9.97-6.29c-3.15-24.14,5.66-22.86,10.23-27.8,2.94-3.18,12.15-13.41,18.2-10.36-.61,2.04-1.76,4.45-2.76,5.54l-10.03,10.87ZM346.75,1023.84l6.33-3.57c2.16-1.22,4.68-3.41,4.44-5.76-.19-1.81-3.28-4.6-5.07-5.11l-11.84,11.98c-1.96,1.98-4.89,3.23-7.65,4.32l-3.57,7.6c8.22,2.9,2.06-.84,17.36-9.46ZM649.41,1087.11c2.47-.49,4.25-1.54,6-3.06,9.17-7.94,8.57-10.54,12.08-20.31,1.26-3.51,3.1-5.99,1.86-11.04.12-2.08-.09-2.19-1.7.28-1.68-18.83.46-9.07-6.48-24.04-1.43-3.1-3.85-5.79-5.67-8.65-5.71-8.95-16.12-13.69-16.84-9.91-1.18,6.19,14.01,13.54,17.8,22.63,1.3,3.13,1.43,6.54,3.43,9.13l1.05,10.17,2.02,3.22c.34.53-1.94.49-2.38.71l-.24,10.08c0-.1-3.49,8.97-10.97,12.56l-6.36,3.05c-9.67,4.64-14.27.49-13.89,3.2l.67,4.89c20.31,1.26,9.64-.94,19.63-2.91ZM707.69,1042.13c2.44,1.29,5.48,5.35,7.84,7.46,5.86,5.21,9.43,11.93,6.88,20.71-.89,3.06-6.16,6.27-9.75,8.81,1.7,3.1,6.07,2.22,8.31-.16l4.23-2.25,3.28-7.17c1.17-2.55,1.43-9.12.12-11.56l-3.11-5.8c-5.34-9.97-15.11-15.29-24.6-20.1-8.6-4.36-24.48-13.91-32.37-19.53-2.76-1.97-4.6-5.43-8.09-2.41,4.85,5.55,8.94,10.77,14.59,14.11,1.72,1.02,4.02,1.24,4.32,2.46.26,1.05-.82,4.6-1.89,4.45-3.51-.51-6.7-3.41-9.42-6.1-1.69,2.21-.87,5.83,1.36,7.9,12.71,11.77,19.03,10,20.88,11.2,5.8,3.76,14.97,13.3,18.54,21.77,3.15-3.33,1.66-8.66-1.51-11.66l-15.94-15.07,1.27-5.01,15.04,7.96ZM618.07,1036.94c1.23.75,4.96.26,4.9-1.01-.36-7.14-7.49-4.66-8.92-9.82-.55-1.98-1.7-4.65-3.16-5.68-1.17-.81-3.18-.27-5.22.6l-6.3-6.23c-4.69-.13-5.55,5.72-4.46,9.2,8.5,1.38,13.61,7.1,16.22,8.69l6.94,4.23ZM363.44,1121.47c10.78.05,3.71-15.36,7-23.22,5.28-12.63,10.84-16.59,11.95-29.46.79-9.15-4.56,2.72-2.87-24.26.05-.74,2.12-2.43,1.65-2.99l-1.85-2.22c-.41-.49-1.51-1.99-1.77-1.54s-1.04,1.87-1.37,2.3l-9.74,12.9c-10.18,13.49-14.69,10.47-11.34,28.78,4.15-2.21,5.13-5.38,5.61-9.51l5.27-5.12,1.29,13.45c.73.52,2.49,1.54,2.14,2.02s-1.61,2.06-1.75,2.64c-3.33,14.01-5.38,4.89-4.24,36.23ZM423.52,1048.58l-12.75-4.43c-4.19-1.76-7.23-3.41-12.2-6.4-.65,1.77-.2,5.3,1.37,6.54,1.79,1.41,5.12,2.26,7.23,2.53,5.1.65,1.49,5.47,16.36,1.77ZM518.3,1066.57c14.19-3.69,7.83,1.72,18.63-3.35,2.63-1.23,6.83-3,8.24-5.48-3.41-4.23-7.92-.64-11.25.92l-10.83.99.43-3.14,13.23-6.04c4.16-1.9,9.99-3.4,8.02-10.14l-14.64,7.31c-10.99,5.49-6.23-1.87-12.25,5.17l-1.84-2.93c-.75-.92-2.72,2.59-2.51,3.94.17,1.12,3.24,1.57,4.54,2.01l5.16,5.48c-3.19,1.05-6.09.49-8.73-.95l-9.39,6.84c.97.39,3.2,1.21,4.55,1.5,1.16.25,3.71-2,4.83-2.64.77-.45,2.95.73,3.8.51ZM584.67,1092.27c-1.09-3.53-4-7.74-1.82-12.43l4.23-9.09c1.75,2.03,4.23,6.34,5.03,9.24.34,1.23,4.74,1.58,5.28.4,1.68-3.7.4-9.59-2.77-12.97l-15.06-16.04c-1.16-1.23-1.38-5.28-2.68-6.39-1.41-1.21-5.07-1.65-7.12-.79l.2,38.69c3.06,4.46,10.12,17.58,11.81,21.94,2.3,5.92-2.91,19.19,4.15,17.03,4.87-1.49,2.61-17.08,1.92-19.33l-3.17-10.24ZM420.41,1056.59l-9.14-.94-1.58-2.56c-.35-.57-2.47.06-2.54.73s-.26,3.77.37,4.02c1.89.73,5.83,3.3,7.93,3.62,9.15,1.38,20.66.81,30.25.28-1.96-6.4-15.77.53-25.3-5.15ZM451.61,1073.38l-11-2.18c-5.92.4-13.13.78-18.76-.25-1.91-.35-5.66-3.82-7.39-2.85-1.09.61-1.65,4.18-.6,4.84l4.01,2.52c6.98,4.39,9.83,2.58,15.15.81,5.77-1.93,11.76-1.42,18.61-2.89ZM501.37,1077.41c25.58.75,21.49,3,40.95-7.32-3.37-4.35-6.5.31-9.52,1.02l-20.88,1.06c-.72.04-2.37,1.92-3,1.59-.47-.25-1.95-1.14-2.46-1.26-1.72-.39-5.55,2.82-5.08,4.9ZM271.84,1106.36c1.02-.57,3.26-.78,3.79-1.52s1.01-3.09,1.69-3.67c1.42-1.19,4.48-3.18,4.97-4.83l2.43-8.24c-6.76-4.05-12.67,13.69-19.25,16.82l-8.32,3.95c-.57.27-2.68.84-3.26,1.01-.63.18-.69,7.02,17.96-3.53ZM698.8,1110.54c-10.18-8.02-9.35-2.74-14.57-12.9-.92-1.04-9.72-9.91-10.76-7.31-.33.81-.83,3.93-.3,4.63l7.26,9.57c.21.27,13.23,12.29,18.37,6.01ZM335.19,1130.33c2.65-2.06,4.18-4.25,4.25-6.48.08-2.61-3.32-5.24-3.44-7.15l-.95-14.86-8.44,5.83,1.95,3c.29.45-1.98,1.84-2.01,2.37l-.5,8.46-9.24-.41.09-11.01c6.41-3.76-.75-4.64,6.45-8.78l-9.65-9.02.03,9.68c-2.39,1.22-5.6,3.62-6.13,5.57l-1.77,6.42c-.25.93,1.96,3.4,1.18,3.98l-2.59,1.94c2.65,1.85,6.62,12.53,7.14,17.46,9.83-7.08,6.18-14.61,14.34-12.54,2.34,11.94-3.92,24.07-12.7,33.89,5.52,2.36,8.69-3.09,11.7-6.3,14.47-15.41,2.24-15.77,10.3-22.04ZM654.08,1116.45l-5.07-2.1c-1.58-.65-.14-6.98-2.02-8.2-.76-.49-3.44-.34-4.05-1.01l-4.19-4.61c-1.04-1.15-5.83-.81-6.36.61-1.25,3.24,2.45,7.05,5.52,8.92l.58,26.46c4.89,1.65,5.68-3.79,7.23-6.88l3.66-7.25c.87-1.72,3.7-4.61,4.7-5.95ZM631.23,1142.78c-4.68-12.87.61-7.39-4.81-13.1l-.61-19.06-7.26-8.38c-5.26,3.84.63,6.01.73,8.32l1.11,24.28c.13,2.8,2.21,5.86,2.22,9.02,0,4.43,3.26,7.66,6.52,10.39,3.81,3.19,7.68,7.04,12.32,7.43-6.89-9.41-6.92-9.8-10.22-18.88ZM383.1,1142.23c3.58-6.21,2.56-11.52.03-17.82-1.17-2.92-.9-7.47-3.37-9.99l-1.77-8.72c-4.36,2.68-1.59,25.63,1.01,23.82-.45.31-2.18,1.75-1.99,2.27l1.37,3.67c.31.84-1.64,2.82-1.72,3.79-.56,7.13-4.25,14.05-10.55,18.88,9.5,3.42,14.39-11.41,16.98-15.89ZM430.96,1133.64l4.48-4.25-3.19-2.69c-.04-2.57.12-7.77.44-9.9,1.99-2.07,2.99-3.94,2.92-6.19-.05-1.68-4.63-2.69-5.81-1.38-2.47,2.73-3.74,6.55-4.62,9.76l-8.19.07c-1.47.2-.35,6.28.95,5.57l3.54-3.36c.78-.74,4.31.18,4.24,1.35-.21,3.43.92,9.7,5.22,11.01ZM582.3,1158.12c-3.16-3.86-5.32-6.8-7.52-10.4-2.74-3.37-1.91-20.06-1.06-23.89,1.05-4.73,3.89-9.46,1.64-14.71l-5.54.4c.18,5.51-.34,8.16-2.65,12.03l-1.01,7.55c-4,2.85-.86,6.47-.49,9.32.91,7,1.71,11.93,7.84,16.41,2.39,1.75,5.49,6.02,8.78,3.3ZM510.47,1132.35c.07-1.5,1.99-4.12,2.67-5.58,2.54-5.39-2.42-11.35-7.65-14.29-4.96,7.29,6.17,12.48-.03,19.33-.84.93-1.31,4.58-.29,4.74l3.88.59c1.02.16,1.36-3.32,1.43-4.79ZM286.1,1129.65l-1.86-2.65c-.29-.42-1.36.24-1.52.73s-.54,2.25-.51,2.94l.55,11.82c3.02-.71,6.02-2.76,6.05-4.73.04-2.77-1.24-6.01-2.7-8.1ZM676.47,1129.79c-.07-1.16-2.96-2.29-4.12-2.05-3.41.7-7.73,7.8-4.57,12.51,2.02,3.02,6.03,4.63,8.74,1.59l-3.48-3.27c-2.83-2.66,3.72-3.98,3.43-8.78ZM469.96,1152.78l.16-18.68c0-.95-1.26-2.63-1.91-2.95-2.95-1.44.02,6.9-3.84,10.94l-.31,9.98,5.91.71Z"/>
      <path class="st2" d="M342.61,774.96c-1.61-3.65-16.58-17.6-17.48-18.09l-6.32-3.45-12.31-1.48c12.25-11.37,30.08-1.43,40.83,5.78l7.55,5.06c4.58,3.07,7.98,6.89,12.7,11.16l-24.97,1.02Z"/>
      <path class="st2" d="M607.4,780.15l-9.11,1.2c-.61.75-1.02,1.26-1.26,1.51-.35.36-1.33.47-1.84.58-7.05,1.41,14.79-22.69,25.95-23.96,4.65-.53,7.98-.37,11.7-3.05l7.15.18c-2.41,2-4.14,3.72-5.46,4.43-8.32,4.48-20.35,10.41-27.12,19.1Z"/>
      <path class="st3" d="M365.38,765.22l-5.82-4.9c7.3-6.91,8.72-2.02,13.13-6l1.54-1.39c.44-.4,1.9.94,1.49,1.36l-1.72,1.79-8.62,9.14Z"/>
      <path class="st3" d="M604.91,763.83l-5.81,4.69-3.46-9.11c3.36-.23,6.53,1.3,9.28,4.43Z"/>
      <path class="st3" d="M452.25,1152.28c-1.46,6.04-4.92,12.42-12.56,13.14-1.08.1-4.11.06-4.17-.91l-.26-4.43c-.06-.98,3.92-.52,4.82-1.04,5.81-3.36,5.16-17.05,3.44-23.66l-2.55-9.83c-.27-1.02-1.96-2.85-2.44-3.73s1.91-2.82,2.22-3.8c.92-2.86,2.16-7.42,4.47-9.96l8.76-9.64c.48-.53.62-4.29-.08-4.4l-4.14-.66c-7.98-1.28-6.24,2.34-15.52,5.06-10.96-5.18-1.5,2.7-17.32-6.14,1.1-2.53,4.56-4.8,7.79-6.2l4.5-1.95c1.24-.54,3.92,1.65,4.86,2.22,9.14-5.61,4.82,1.27,16.17-4.51,4.67-2.38,10.51-5.47,13.18-9.25-7.02-13.07,2.99-12.48-9.03-24.25-18.93-18.54-14.3-6.51-30.84-13.37-3.15-1.31-8.1-1.09-9.48-5.95-1.43-5.01-1.49-11.12-.77-17.09l8.15-10c5.63,8.42-4.08,4.71-1.35,20.54l6.44,4.83,17.87.36c7.97.16,6.14,3.41,17.24,8.67l7.48,3.55.44-2.07c.3-1.4,1.71,1.52,10.96-2.8l8.09-3.77c1.72-.67,6.11-.44,7.99-.81,1.11-.22,3.31-2.91,4.31-2.4l4.39,2.25c.9.46,2.76-.9,3.94-1.58,1.68,1.93,8.12,3.32,9.48.97l4.33-7.49c-.03-3.92,1.02-6.52,2.54-8.4l-2.55-4.9c-.56-1.07,2-3.29,3.45-3.35,1.19-.05,2.37,1.42,3.89,3.3,2.26.48,7.56-.08,9.79.82l6.96,2.8,3.03-11.14c4.53-16.63,13.02-27.52,27.24-37.82,4.13-2.99,7.97-4.69,9.43-10.82,3.11,5.7,3.12,13.85-2.46,17.7-12.82,8.84-11.49,7.97-16.98,20.72l-1.24,6.69c-3.41,6.76-6.51,14.23-10.25,19.93-3.58,5.45-.49,7.57.55,12.28,1.9,8.62.65,19,1.07,29.19-9.23-.14-4.97-18.85-7.23-23.45l-6.5-13.27c-5.83-7.54-5.04-2.09-8.89-10.23-3.99-8.42-.9,12.28-3.54,16.63l-6.74,11.08-10.09,1.03-2.08,5.49c-2.21-4.84-13.99-3.95-18.08-1.68-8.98,4.97-18.48,15.06-14.39,24.34l3.27,7.41c1.82,4.13,9.06,8.01,13.51,9.82,14.94,6.11,11.3,3.24,28.29,4.03.96.62,1.55,4.22,1,5.47-2.21,5.09-12.77,4.39-16.32,3.03-3.79-1.45-19.63-8.12-20.94-4.48-.99,3.4-.51,9.49.2,13.33l4.76,2.18,4.04,6.5.04,33.26,4.38,9.22,4.63,1.38c.97.29.73,4.6-.25,4.65l-7.68.42c-3.14-4.93-5.97-9.84-8.77-14.9-1.85-3.35-.1-4.77.56-8.2,1.07-5.56,1.06-11.72,1.25-18.05.06-1.86-2.34-5.17-2.95-6.81-.74-1.98-1.08-4.69-2.15-6.02-3.61-4.48-10.98-.79-11.03-2.74-.15-6.89,3.49-4.71,3.5-11.18,0-3.84-6.39-11.53-13.3-9.89-2,.47-4.34,3.89-3.88,5.99.3,1.35-1.84,3.83-1.86,5.22-.03,1.73,1.4,4.14,2.78,6.23,1.28,1.93-.09,4.7-2.64,4.52-1.84-.13-3.49-1.75-5.14-3.99-3.18,5.16-12.36,10.98-4.69,19.39l.71,13.12c5.24,4.76,2.16,9.25.95,14.25Z"/>
      <path class="st3" d="M593.99,1013.27c-1.07,2.23-5.18,5.43-5.28,7.76-.85,19.02-.58,14.51,11.54,29.49,10.7,13.23,11.02,20.02,9.9,36.4-.57,8.45-16.57,11.57-15.18,7.26l.98-3.04c.27-.85,2.24,1.1,3.46,2.21l7.5-7.92-.25-13.47-1.8,3.62c1.79-9.74-12.25-23.24-18.75-30.81-1.83-2.13-3.53-7.34-4.95-9.76-2.67-4.57-2.9-7.77,1.71-12.53-3.6-1.41-5.88-.93-9.08,1.53l-.72-3.85c.05.26,11.59-11.55,14.75-15.9l5.56-7.65c2.51-3.45,4.47-9.3,7.07-13.54l2.69-4.38c1.06-1.72.99-6.07,1.69-8.37,4.76-15.61.5-10.56,2.97-26.52,5.93,2.15,5.14,5.26,5.74,9.66l1.48,10.97-2.13,11.44c-.53,2.83-3.09,4.96-2.57,9.03.25,1.96-1.02,5.02-1.93,6.98l2.86,6.89,3.04,8.09c3.52,9.36,27.54,22.91,30.06,35.09,1.09,5.27.58,12.4.63,18.15-1.85,2.73-6.34,6.97-9.21,7.89-8.61,2.78-16.65-1.21-22.03-7.45-.26-3.52-.24-9.44-.04-12.54l8.83-3.99.76,3.52c.22,1-1.56,2.63-2.76,3.76.83,2.2,3.05,4.55,5.5,5.7.18.25.09,2.02.59,1.84,10.42-3.72,9.14-13.95,8.84-23.39-4.26-3.89-8.15-7.33-12.68-10.67-7.62-5.61-18.49-18.84-19.98-18.19l-3.99,1.74c-2.28.99-3.33,1.87-4.81,4.95Z"/>
      <path class="st3" d="M390.43,841.95l4.18-6.72-2.68-2.6,6.7-5.57-5-5.66-12.44.08-6.8,4.96c-3.85,2.81-7.43,5.11-11.39,7.62-8.98,5.67-25.87,4.46-33.6-4.29-.14-.87,3.37-2.84,4.16-2.08l3.42,3.26,20.87.03,6.97-5.64c11.39-2.96,21.25-23.79,27.49-32.98,9.62-14.17,24.67-21.72,24.66-29.02,0-3.99-8.06-8.21-13.89-7.26-2.9.47-4.85,5.11-5.39,8.05l-.63,3.41c-.18.95-3.57,1.01-4.71.8-1.57-4.3-1-12.35,4.01-14.98,2.51-1.32,5.85-2.83,8.51-4.01,15.51,4.78,19.92,10.76,22.82,23.9.33,1.49-3.12,5.24-4.63,4.74-5.35-1.76-9.91,2.85-13.66,4.66-5,2.41-8.02,5.21-9.28,11.33-.65,3.16-3.89,10.01-1.19,11.53,4.93,2.78,8.12-.8,10.73-3.21,5.09-4.7,10.13-9.7,14.57-14.8l5.26.37-6.79,9.3c-5.45,7.47-9.58,15.48-13.46,23.92-4.16,9.06-.3,6.52-11.76,25.16-5.37,8.74-11.32,15.81-20.81,20.61-2.82,1.42-5.52,1.72-8.41.19l-4.36-2.31c-1.25-.66-.65-5.51.8-5.54l10.83-.28,9.97-10.41c1.5-1.56,3.62-4.41,4.95-6.55Z"/>
      <path class="st3" d="M600.47,873.24c1.6-1.23,5.09-2.5,6.37-.86-3.09,11.66-18.95,10.9-25.44,5.58-7.62-6.26-12.88-13-16.62-21.54-1.72-1.93-4.16-4.97-5.25-7.44l-3.18-7.23-2.99-6.84-3.07-8c-3.65-9.51-8.17-16.12-14.2-24-3.03-3.95-9.06-6.63-13.34-10.65.23-2.69,4.49-2.21,6.71-.41,3.91,3.16,10.53,4.62,13.77,7.95l9.26,9.49,4.46-5.23c.38-3.49,1.02-9.65-.59-12.15-1.48-2.31-4.23-5.94-6.13-6.95l-6.88-3.66-12.71-.53c-.94-.04-2.21-3.23-1.6-3.94l2.51-2.94c4.73-5.53,17.41-15.01,24.07-15.48,1.07-.08,2.63-2.61,3.49-2.25s2.8,1.64,3.75,1.94c3.35,1.05,7.18,2.25,9.51,5.01,2.73,3.25,4.44,6.16,3.84,9.55s-2.88,7.8-6.03,8.33c-1.16.2-3.46-.14-3.48-.83-.19-7.12,3.81-3.13,3.25-11.13-.52-7.49-11.89-7.65-17.66-6.68l-7.31,7.59c3.84,5.52,9.74,9.53,13.74,14.82l10.67,14.12,1.09,6.02c7.09,6.84,9.63,19.33,19.67,25.39l5.25,3.17,13.5,2.15c-8.04,1.76-14.72,1.84-22.27,1.34l-12.85-13.29c-2.86-2.96-5.9-5.64-8.49-7.69-6.91,4.39-5.49,10.24-3.28,16.1,4.78,12.64,12.22,27.55,22.4,37.18,4.11,3.89,9.77,8.77,16.01,3.99Z"/>
      <path class="st3" d="M346.6,1003.34c-3.34,1.79-8.01,7.28-10.14,10.84-5.04,8.45-4.49,1.41-12.27,11.7-4.62,6.12-5.77,11.39-3.57,18.85,1.38,2.68,2.06,3.94,2.96,7.63,1.23.36,6.2.38,8.21.02,1.07-4.62.72-7.85-2.93-11.1,2.09-.95,5.3-.88,7.15.57,5.27,4.13,2.39,15.19,1.89,15.78-1.83,2.18-5.1,5.62-7.22,7.75-3.39.19-8.55.17-12.07-.39l-8.09-7.47c0-6.57-.8-14.84.55-21.03,2.47-11.33,17.32-19.24,26.78-32.25,1.63-2.24,5.03-13.19,5.21-13.41,2.9-3.66.73-8.78-.43-13.06l-3.09-11.41c-1.51-5.58-2.9-23.88,4.36-29.61l1.55,12.8c1.15,3.25,3.07,6.59,2.33,10.59-.51,2.74,2.03,5.14,2.43,6.89,1.23,5.47-.24,12.24,2.55,17l6.73,11.47c6.94,11.83,11.23,7.15,10.24,19.67-.45,5.76,2.94,13.95-.74,18.83l-14.04,18.66c-2.51,3.34-3.73,7.52-6.59,10.87l-.44,23.17,5.51.83c1.39.21,2.79.29,3.26.89.63.8,1.05,3.92.13,4.38s-3.57,1.01-4.67.85c-17.35-2.47-10.6-33.12-1.62-45.52l11.88-16.39c1.96-2.7-.08-6.53-.07-8.85s1.93-6.01-.22-8.85l-5.83-7.7c-1.77-2.33-4.26-5.92-9.71-2.99Z"/>
      <path class="st3" d="M254.54,1047.91l10.03-10.87c1-1.09,2.15-3.49,2.76-5.54-6.06-3.06-15.26,7.18-18.2,10.36-4.57,4.95-13.38,3.66-10.23,27.8l9.97,6.29c-5,6.72-14-5.49-16.16-8.67-.72-3.05-1.11-9.79.02-12.98,8.93-25.24,28.29-20.26,27.74-32.41l7.4-.74,6.35-3.66,9.37-5.79c3.45-2.13,6.76-6.26,9.99-9.32,2.39,2.59,1.34,5.77-.83,7.75l-14.93,13.61c3.4,1.8,6.36,1.56,8.16-.56s2.2-4.74,2.97-8.15c1.43-.91,4.77,1.3,7.07,3.85,5.13-5.04,10.44-11.27,16.51-15.51,2.39-1.67,6.62-4.45,8.57-6.01.51-.41,2.53.57,2.32,1.19-2.36,7.05-8.69,9.15-14.81,17.59l-6.47,8.9c-.93,1.85-2.42,5.74-3.24,8.06l-2.92,8.24c-1.98,5.58-2.05,15.26.11,20.21,1.82,4.18,4.29,8.52,6.37,11.95,4.36,2.77,9.36,5.69,13.89,7.24,2.13.73,9.1.72,6.59,4.67-3.12,4.9-10.96.47-14.77-.89-3.99-1.42-7.66-.93-7.56-6.51l-6.41-.33c-.54-.03-1.77-.25-2.11-.32-.52-.1-.25-2.3.27-2.42l2.5-.61-6.49-12.21.34-23.2c.02-1.28,3.85-3.41,3.17-4.42-.8-1.19-2.21-2.91-3.27-3.78-1.15-.95-3.35,1.05-4.36,2.86l-6.66.98c-3,3.44-7.17,4.81-10.53,7.28-4.23,3.11-9.45,9.13-12.32,12.77-.62.79-.63,5.21-1.57,4.9l-4.46-1.45,2.43-5.11c.76-1.6,1.92-3.4,3.42-5.03Z"/>
      <path class="st3" d="M410.74,1006.89c-21.65,20.36-14.34,21.38-16.1,48.22-1.97,2.12-8.83-1.28-8.87-4.23l-.32-23.08c-.01-.92-.53-3.44-.61-4.31-.1-1.07,2.41-1.9,3.39-2.69,3.13-7.5-2.21-17.88-9.05-22.93.99-.58,3.48-2.4,3.37-3.64s-1.48-3.44-2.47-4.75-.42-5.22-.96-7.23c-6.31-23.39-20.66-21.94-14.39-32.82l12.32,8.15c5.53,3.66,11.79,7.37,12.41,14.64l4.86-.94c1.07-.21.18,3.75-.66,4.65-6.99,7.49,4.77,13.43-1.9,18.94,1.87,1.33,2.95,3.51,3.41,6.68l7.45,6.71c2.36-2.41,5.8-3.31,8.12-1.37Z"/>
      <path class="st3" d="M684.24,885.11l3.64,6.18c1.33,2.26,1.45,6.28-.56,8.44-2.06,2.22-5.02,3.53-8.33,4.11l-2.02,1.18c-1.15.67-4.39.2-4.34-.78.08-1.47.42-4.36,1.41-4.37,2.77-.02,9.68-1.98,7.88-6.56-1.77-4.5-7.23-10.07-11.75-11.67l-8.71-3.07-19.78-1.47c-6.09-.45-26.23-11.72-30.88-19.26l3.49-2.11c.87-.53,2.5,1.88,3.23,2.95l6.9,1.02c2.09,2.26,5.28,2.05,7.98,2.96,7.47,2.53,14.28,3.73,21.69-.17l14.82-.55c1.13-1.32,4.94-3.96,6.01-2.81l7.56,8.1c-1.86,4.23-5.11-.05-11.44,1.66-1.06.29-1.91,3.85-1.08,4.6,3.74,3.4,11.28,6.5,14.28,11.59Z"/>
      <path class="st3" d="M626.14,964.53c-1.26,4.37,4.92,8.29,8.2,6.45l6.79-3.82c.48-4.79,1.28-12.05-.3-16.53l-2.85-8.03c-1.41-3.98-3.93-10.4-7.22-13.15l-13.17-11.01c-.46-.39-4.1.26-3.8.79l1.61,2.9c2.04,3.68,10.7,18.46,6.53,21.13-1.04.67-4.6.2-4.78-1l-.99-6.58-6.64-8.85c-2.78-3.7-6.21-7.62-8.22-11.59l-7.2-14.26c.6,1.18-8.67-17.13-4.48-16.5l9.54,15.1c2.69,4.26,22.35,16.51,27.68,19.31,5.4,2.84,13.86,15.67,15.8,20.14l3.12,7.21c1.44,3.33,1.99,6.6,2.48,10.32,1.28,9.64-4.79,17.77-13.14,19.37-1.2.23-3.36,2.41-4.2,1.9l-3.6-2.15c-6.25-3.73-7.47-11.33-6.82-12.02l6.32-6.76c1.87-2,6.54-1.23,8.23.89-3.48,1.14-7.87,3.19-8.88,6.73Z"/>
      <path class="st3" d="M271.82,879.73c9.9-19.18,16.1-6.37,13.31-20.07l-9.95-1.24c2.31-3.5,3.72-4.85,5.9-6.62,3.68-2.99,5.99-.62,10.06-.04l14.53,2.08c4.54.65,7.23,2.77,11.28-.19l7.2-1.43c3.2-1.56,6.25-2.33,9.93-2.74l2.61-2.55c.8-.78,3.77-.1,5.42,1.05-4.63,6.53-22.02,19.31-27.42,19.69l-20.31,1.4-7.76,3.36c-3.01,1.3-12.96,10.09-9.99,17.08.77,1.81,7.36-.39,8.6,2.4.44.98.51,3.45.09,4.11-8.59,3.78-16.39-6.51-16.24-9.36.13-2.44,1.64-4.8,2.73-6.92Z"/>
      <path class="st3" d="M584.67,1092.27l3.17,10.24c.7,2.25,2.95,17.84-1.92,19.33-7.06,2.16-1.85-11.11-4.15-17.03-1.69-4.35-8.75-17.48-11.81-21.94l-.2-38.69c2.05-.85,5.71-.42,7.12.79,1.3,1.11,1.52,5.16,2.68,6.39l15.06,16.04c3.18,3.38,4.46,9.27,2.77,12.97-.54,1.18-4.94.83-5.28-.4-.8-2.9-3.28-7.21-5.03-9.24l-4.23,9.09c-2.19,4.69.72,8.89,1.82,12.43Z"/>
      <path class="st3" d="M363.44,1121.47c-1.14-31.34.91-22.22,4.24-36.23.14-.58,1.4-2.16,1.75-2.64s-1.41-1.5-2.14-2.02l-1.29-13.45-5.27,5.12c-.49,4.13-1.46,7.29-5.61,9.51-3.35-18.31,1.16-15.29,11.34-28.78l9.74-12.9c.33-.43,1.11-1.86,1.37-2.3s1.36,1.05,1.77,1.54l1.85,2.22c.47.56-1.6,2.25-1.65,2.99-1.7,26.98,3.66,15.12,2.87,24.26-1.11,12.86-6.67,16.83-11.95,29.46-3.29,7.86,3.78,23.27-7,23.22Z"/>
      <path class="st3" d="M322.59,965.67c1.07.74,7.15-2.8,6.45-8.34-.2-1.62-5.29-2.32-5.6-.71-.39,2.04.04,5.52-3.29,6.58l-.16-13c3.73-1.24,7.5-.72,9.75,1.59s3.02,5.76,2.69,9.47c-.6,6.78-7.22,8.33-13.09,7.58-3.43-.43-7.18-1.32-8.32-4.45-1.01-2.79-1.87-4.7-2.99-7.16-3.86-19.35,4.86-16.29,5.54-30.76l5.05-5.52c2.24-6.04,7.58-9.14,14.35-13.97l11.8-8.42c6.87-4.9,12.56-10.91,13.36-19.89l4.47-4.18c2.22,2.95-.47,5.19-1.23,7.58-3.06,9.69-9.12,21.96-14.58,31.84-2.99,5.41-8.58,9.44-8.85,17.07-.11,3.08-7.23,4.51-7.7,2.18l2.66-9.92,2.93-5.93c1.06-2.15,3.23-4.42,5.16-6.46l-4.23-1.93c-8.59,9.78-14.97,11.62-19.22,23.68l-3.12,8.85c-1.82,5.82-.6,13.35-.51,19.5l5.06,2.19,3.63,2.51Z"/>
      <path class="st3" d="M707.69,1042.13l-15.04-7.96-1.27,5.01,15.94,15.07c3.17,3,4.66,8.34,1.51,11.66-3.57-8.47-12.74-18.01-18.54-21.77-1.84-1.2-8.17.57-20.88-11.2-2.23-2.07-3.05-5.69-1.36-7.9,2.72,2.7,5.91,5.6,9.42,6.1,1.07.15,2.15-3.4,1.89-4.45-.3-1.21-2.6-1.44-4.32-2.46-5.66-3.34-9.74-8.56-14.59-14.11,3.49-3.02,5.33.44,8.09,2.41,7.89,5.62,23.77,15.17,32.37,19.53,9.49,4.81,19.26,10.14,24.6,20.1l3.11,5.8c1.31,2.44,1.04,9.01-.12,11.56l-3.28,7.17-4.23,2.25c-2.24,2.38-6.61,3.26-8.31.16,3.59-2.55,8.86-5.75,9.75-8.81,2.55-8.78-1.02-15.5-6.88-20.71-2.37-2.11-5.4-6.16-7.84-7.46Z"/>
      <path class="st3" d="M335.19,1130.33c-8.05,6.27,4.17,6.63-10.3,22.04-3.01,3.21-6.18,8.67-11.7,6.3,8.78-9.81,15.04-21.94,12.7-33.89-8.16-2.07-4.51,5.46-14.34,12.54-.52-4.94-4.49-15.61-7.14-17.46l2.59-1.94c.78-.58-1.43-3.05-1.18-3.98l1.77-6.42c.53-1.94,3.74-4.34,6.13-5.57l-.03-9.68,9.65,9.02c-7.19,4.14-.03,5.01-6.45,8.78l-.09,11.01,9.24.41.5-8.46c.03-.53,2.3-1.92,2.01-2.37l-1.95-3,8.44-5.83.95,14.86c.12,1.9,3.52,4.53,3.44,7.15-.07,2.22-1.6,4.41-4.25,6.48Z"/>
      <path class="st3" d="M560.09,939.25c-5.86,4.06-18.77-1.9-19.51-1.83-4.94.47-5.16,13.11-14.41,15.75-.16-5.18-.64-10.39.56-13.87l3.29-9.51c1.35-3.9,10.26-12.51,16.72-13.84,4.93-1.01,13.2-1.17,18.32-.08,1.7.36,4.72,2.44,7.03,3.15,5.16,4.88-7.57,17.16-12.01,20.23ZM566.41,923.47c-.2-1.05-3.36-2.49-3.98-1.83l-2.72,2.92c-1.58,1.69-4.9,3.91-7.21,3.53-1.72-.28-4.66-2.17-6.19-3.06-.86-.5-4.58-.02-4.24.87.6,1.56,3.07,7.04,4.13,7.88,3.34,2.64,21.71-2.3,20.21-10.32Z"/>
      <path class="st3" d="M480.33,983.26l-2.95,7.16-1.28-2.37c-1.52-2.83-4.49,1.95-13.71-3.14-12.77-7.05-6.43-2.4-20.45-5.12l6.42-4.14c3.52-2.27,7.52-.53,10.91,1.41l5.88,3.37c2.35,1.34,7.55.47,10.87.15l-.76-8.46-7.6-2.79-9.99-3.53c-2.98-1.05-6.15-.27-8.25-2.9l-1.87-2.35c-.52-.65,2-1.83,2.72-2.25l4.36-2.48c1.27-.72,4.88,1.68,6.28,2.12,13.97,4.39,4.96,10.63,15.43,5.58l4.45-2.15c3.28-1.58,5.97-2.54,10.06-2.64,2.55-.06,5.52,2.68,7.88,6.21l-11.81.97-7.21,6.12c-1.11.95-.21,6.06.83,5.64,1.8-1.49,3.45-3.13,4.72-3.44,1.48-.37,3.88,2.42,4.8,3.93l3.84-3.93c1.01,2.92,1.46,7.78-.3,9.14-1.08.83-4.82.28-4.98,1.37l-.88,6.21-7.4-7.69Z"/>
      <path class="st3" d="M420.91,950.2c-2.55-5.51-3.85-9.42-5.42-14.5-1.31-3.29-7.09-.9-9.94.61-3.61,1.91-11.43,1.51-14.71-1.2-2.93-2.42-6.01-6.04-8.29-8.92-.65-2.37-.18-7.76.03-10.25l8.08-1.43c.69-.12,2.82-1.54,3.57-1.8.86-.31,1.79.74,2.96,1.96l14.11,1.03c1.7.53,5.5,3.18,6.57,4.59l4.72,6.21.91,9.26c3.35.88,3.1,5.17,2.58,8.14-.35,2.01-2.6,4.25-5.17,6.29ZM406.36,921.82l-7.57,5.84-10.15-6.28c-3.17,1.18-3.79,2.27-1.04,3.03,3.79,7.31,11.61,8.94,17.79,4.35.89-.66,2.43-2.61,2.53-3.57s-.98-3.4-1.57-3.38Z"/>
      <path class="st3" d="M649.41,1087.11c-9.99,1.97.68,4.17-19.63,2.91l-.67-4.89c-.37-2.71,4.22,1.44,13.89-3.2l6.36-3.05c7.48-3.59,10.97-12.66,10.97-12.56l.24-10.08c.44-.21,2.72-.17,2.38-.71l-2.02-3.22-1.05-10.17c-2-2.6-2.13-6-3.43-9.13-3.79-9.1-18.98-16.45-17.8-22.63.72-3.78,11.14.96,16.84,9.91,1.82,2.86,4.24,5.55,5.67,8.65,6.94,14.98,4.81,5.21,6.48,24.04,1.61-2.46,1.82-2.36,1.7-.28,1.24,5.05-.6,7.53-1.86,11.04-3.51,9.76-2.91,12.36-12.08,20.31-1.75,1.51-3.54,2.57-6,3.06Z"/>
      <path class="st3" d="M689.88,988.32l-4.2,2.19c-1.65.86-3.91-2.69-3.02-4,3.57-5.27,3.31,1.2,8.34-10.22,1.45-3.29.78-9.3-.23-12.88-10.23-3.78-5.17,1.92-13.18,2.23-1.39.05-1.82-4.02-.95-5.33,2.11-3.15,2.97-6.01,2.8-9.84-.12-2.6-3.05-5.53-5.91-7.92l-1.33-5.2-6.98-5.29c-2.76-2.09-7.21-2.79-8.41-6.79,2.65-.62,5.4.43,7.63,1.49l6.85,3.27c3.01,1.43,5.9,3.68,8.79,5.57,4.39,2.87,7.3,5.31,10,9.78l5.53,9.14c1.66,2.74,2.47,6.5,2.52,9.96l.19,12.39c.09,6.04-3.17,8.69-8.46,11.45Z"/>
      <path class="st3" d="M431.5,975.58c-8.78,22.3,8.74,17.61,2.61,30-3.01-3.27-6.47-5.59-10.41-6.95-6.7-10-4.98-19.91.14-29.78l11.08-21.35,2.82-5.9-1.64-3.69c-.5-1.13,1.7-3.85,1.85-5.1l1.54-12.82c1.91,3.29,2.34,4.25,3.49,6.7l1.2,2.56c.33.7-1.84,2.52-1.88,3.45l-1.01,25.46c-.11,2.75-.3,3.68.16,6.06l-1.98,4.75-1.33-6.22c-1.17.11-2.06-.02-2.21.53-.17.61-.71,2.79-.97,3.43l-3.49,8.85Z"/>
      <path class="st3" d="M507,1009.46c-1.39-7.82,16.57-16.98,7.1-30.28,1.17-1.13,2.68-2.86,2.88-4.06.23-1.4-1.86-3.96-2.92-5.19l-1.12-10.16-2.23-1.73c-1.39-1.08,2.04-2.32,2.84-5.32.65-2.44-3.63-3.15-3.31-6.63.1-1.07,1.49-2.2,3.03-3.71l.58-10.25c.03-.6,2.16-1.3,2.37-.74-1.62-4.26,3.51,25.92,2.82,17.72l1.19,14,3.52,8.86,3.23,8.35c.17.44,1.39,1.51,1.73,1.83.46.42-1.39,1.52-2.32,2.16l-.65,10.36-6.33,6.81c-3.45,3.71-5.38,7.67-12.41,7.97Z"/>
      <path class="st3" d="M415.88,862.73c-10.4,2.78-9.72,6-17.41,12.38-3.55-4.75.41-8.07,2.99-11.74,2.02-2.87,4.83-3.66,7.45-5.25,12.84-7.77,9.44-2.54,30.71-9.35l9.81-3.14c4.03-1.29,8.69-7.41,12.14-10.92.33-.27,2.13.71,2.01,1.43s-.77,2.6-1.28,3.26l-6.78,8.83c-1.62,2.1-6.32,5.13-8.68,6.57l-6.45,3.92c-3.53.59-9.16.24-12.82,1.14l-11.68,2.88Z"/>
      <path class="st3" d="M473.9,886.8c-11.06-22.5-22.1-9.73-26.33-20.86,7.79-3.9,27.61,3.79,29.99,11.19l9.5-7.55c1.37-1.09,5.19-2.56,6.92-3.27l10.27-4.2,6.34,4.56c-8.65,10.05-4.92.89-17.32,7.37-5.16,2.69-11.32,5.18-11.23,12.66-1.68.45-5.79.52-8.14.11Z"/>
      <path class="st3" d="M555.23,860.81c2.55,5.06,8.28,8.03,4.16,14.91-3.37-3.64-7.26-8.73-9.7-12.11l-6.07-3.87-7.53-1.21c-3.9-5.16-1.06-.04-16.39-4.76-8.63-2.66-15.51-7.84-20.43-15.07l-1.27-1.87c-.34-.5.24-2.31.84-2.28,4.31.22,7.58,9.97,25.04,12.91,2.06.35,4.85,2.55,7.65,2.45,3.06-.11,5.88.79,8.43,1.74l9.06,3.36c2.85,1.06,4.7,2.82,6.21,5.81Z"/>
      <path class="st3" d="M465.51,731.45c-7.31,2.88-10.5,11.76-7.76,19.11,1.33,3.55,6.03,5.3,9.1,7.12l9.58,5.67c-3.03,4.57-5.4.84-8.33-.13l-9.01-1.74-7.9-6.44c-.34-4.83-.73-12.4.28-17.66.57-2.96,5.33-8.56,8.25-9.1,4.35-.81,10.29-.51,14.74-.43l2.73,4.37c.81,1.29,2.39,3.91,2.21,5.24-.36,2.69-8.29,12.85-12.73,7.47,2.31-2.03,5.65-4.72,6.25-6.8,1.02-3.53-4.13-7.98-7.42-6.69Z"/>
      <path class="st3" d="M443.47,839.6c-2.25,1.7-8.27.84-10.82-.17,4.85-6.32,9.49-11.86,11.89-18.54l2.19-6.09-1.61-3.12c-.39-.76,1.92-2.64,2.03-3.58,1.24-9.99,3.23-7.65,11.11-19.82.77-1.19,4.71-.82,5.33.04-2.23,2.53-5.12,5.16-5.81,7.34l-2.85,9.1-1.45,15.62c-.06.67-3.72,14.43-10.03,19.21Z"/>
      <path class="st3" d="M631.23,1142.78c3.3,9.08,3.33,9.47,10.22,18.88-4.64-.39-8.51-4.24-12.32-7.43-3.26-2.73-6.51-5.95-6.52-10.39,0-3.16-2.09-6.22-2.22-9.02l-1.11-24.28c-.11-2.31-5.99-4.48-.73-8.32l7.26,8.38.61,19.06c5.42,5.71.13.23,4.81,13.1Z"/>
      <path class="st3" d="M492.67,763.2c-1.96-5.82,4.02-6.11,7.08-7.94,5.34-5.31,15.43-15.02,8.67-22.17-2.75-2.91-8.72-3.75-12.05-.12-.73.8-2.03,3.51-1.76,4.55.31,1.24,1.46,2.53,3.07,4.61-.15.44-2.57,1.83-3.62,1.75-2.58-.2-5.82-4.86-5.56-6.32.64-3.55,5.14-7.97,8.47-10.57,4.52-3.52,8.41-2.59,12.93,0,6.64,3.81,8.9,13.47,4.64,21.87-2.07,4.07-4.76,6.52-8.76,8.35l-13.1,5.98Z"/>
      <path class="st3" d="M531.3,839.26c-3.18,2.54-8.66.82-10.84-2.08-6.76,1.17-8.99-3.86-11.25-8.33-.62-1.24-2.4-3.89-2.78-5.33l-3.43-12.93c-4.26-16.04.82-9.08-5.58-16.63,3.4-1.87,6.06.87,7.42,3.76l3.33,7.11c5.72,12.21-.53,5.03,4.27,14.76,4.38,8.88,9.5,14.01,18.73,14.85,1.05.1,1.1,4.06.14,4.83Z"/>
      <path class="st3" d="M654.08,1116.45c-1,1.34-3.83,4.23-4.7,5.95l-3.66,7.25c-1.55,3.08-2.34,8.52-7.23,6.88l-.58-26.46c-3.07-1.88-6.77-5.68-5.52-8.92.54-1.42,5.32-1.75,6.36-.61l4.19,4.61c.61.67,3.28.51,4.05,1.01,1.88,1.22.44,7.54,2.02,8.2l5.07,2.1Z"/>
      <path class="st3" d="M582.3,1158.12c-3.29,2.72-6.39-1.55-8.78-3.3-6.13-4.48-6.93-9.42-7.84-16.41-.37-2.85-3.51-6.47.49-9.32l1.01-7.55c2.31-3.87,2.83-6.52,2.65-12.03l5.54-.4c2.25,5.25-.59,9.98-1.64,14.71-.85,3.83-1.69,20.53,1.06,23.89,2.2,3.6,4.36,6.54,7.52,10.4Z"/>
      <path class="st3" d="M482.24,843.98c-.03,2.36-4.95,3.19-5.53,1.85l-3.13-7.2c-.37-7.78-1.89-18.25.39-25.43l3.42-10.74c1.02,2.4,4.32,5.96,4.48,7.94.74,9.24.52,22.88.37,33.58Z"/>
      <path class="st3" d="M478.59,941.07l-4.15,11.66c-1.53-3.42-1.98-7.51-1.91-11.51l.23-12.62.51-27.94c6.54-.46,13.08,16.55,6.26,22.77-1.27,4.62.84,12.65-.94,17.65Z"/>
      <path class="st3" d="M377.99,911.54c-5.17,2.12-10.35,7.19-15.77,1.95-2.23-2.15-3.39-9.92-.48-10.4l9.62-1.6c13.27,5.82,19.53-6.8,26.26-.1,1.68,1.67-3.14,5.11-5.45,4.72-5.78-.97-10,1.15-14.17,5.42Z"/>
      <path class="st3" d="M431.56,916.93l-8.16-2.27c.54-7.66-10.81-10.91-15.99-12.61l3.75-6.63c1.01-1.78,3.2-4.52,4.25-5.63,1.75,6.1,5.61,14.55,9.5,16.08,5.46,2.16,12.33-5.58,12.98-3l1.15,4.57c.39,1.56-.24,6.54-1.5,7.6-1.4,1.18-4.11,2.4-5.97,1.88Z"/>
      <path class="st3" d="M383.1,1142.23c-2.59,4.49-7.48,19.32-16.98,15.89,6.3-4.83,9.99-11.76,10.55-18.88.08-.97,2.03-2.95,1.72-3.79l-1.37-3.67c-.19-.52,1.53-1.95,1.99-2.27-2.6,1.8-5.37-21.14-1.01-23.82l1.77,8.72c2.47,2.52,2.2,7.08,3.37,9.99,2.53,6.3,3.55,11.62-.03,17.82Z"/>
      <path class="st3" d="M587.56,905.28c2.85,3.01,4.69,5.34,4.7,7.62.02,2.83-3.65,6.59-7.48,7.07-5.56.7-13.14-9.67-26.71-11.53-1.01-.14-1.27-3.94-.42-4.5,2.23-1.46,8.01-1.73,10.39-.42l6.48,3.56c4.65,2.56,9.27,3.9,13.04-1.81Z"/>
      <path class="st3" d="M618.07,1036.94l-6.94-4.23c-2.61-1.59-7.72-7.31-16.22-8.69-1.1-3.49-.23-9.34,4.46-9.2l6.3,6.23c2.04-.87,4.05-1.41,5.22-.6,1.47,1.02,2.62,3.7,3.16,5.68,1.43,5.16,8.55,2.68,8.92,9.82.06,1.27-3.67,1.76-4.9,1.01Z"/>
      <path class="st3" d="M536.55,910.33c-3.11,2.02-11.17,12.85-19.6,7.03-1.71-1.18-4.52-5.66-3.04-7.05l7.79-3.69c2.39,1.73,6.66,3.6,9.08,2.15l6.46-3.85c2.35-1.4,5.08-4.67,8.32-.47l-9.01,5.87Z"/>
      <path class="st3" d="M460.1,769.19c.59,2.36-4.89,6.49-6.8,5.25-7.9-5.16-13.7-11.42-18.61-19.2,1.26-3.62,3.25-6.62,6.56-9.45l.82,12.52,18.03,10.88Z"/>
      <path class="st3" d="M346.75,1023.84c-15.29,8.62-9.14,12.36-17.36,9.46l3.57-7.6c2.76-1.09,5.69-2.34,7.65-4.32l11.84-11.98c1.8.51,4.89,3.3,5.07,5.11.24,2.35-2.28,4.54-4.44,5.76l-6.33,3.57Z"/>
      <path class="st3" d="M365.33,852.99l-5.37-5.17c8.29-7.92,14.98-7.73,17.16-16.68l7.86.14c-1.98,4.18-2.39,5.03-2.74,8.8-5.02,4.35-10.75,8.65-16.91,12.9Z"/>
      <path class="st3" d="M518.3,1066.57c-.85.22-3.03-.96-3.8-.51-1.11.65-3.67,2.89-4.83,2.64-1.35-.29-3.58-1.11-4.55-1.5l9.39-6.84c2.64,1.43,5.53,2,8.73.95l-5.16-5.48c-1.3-.44-4.37-.89-4.54-2.01-.2-1.35,1.76-4.85,2.51-3.94l1.84,2.93c6.02-7.03,1.26.32,12.25-5.17l14.64-7.31c1.97,6.74-3.86,8.25-8.02,10.14l-13.23,6.04-.43,3.14,10.83-.99c3.34-1.56,7.85-5.15,11.25-.92-1.41,2.48-5.61,4.24-8.24,5.48-10.81,5.07-4.44-.34-18.63,3.35Z"/>
      <path class="st3" d="M271.84,1106.36c-18.65,10.55-18.59,3.71-17.96,3.53.58-.17,2.7-.74,3.26-1.01l8.32-3.95c6.58-3.13,12.49-20.87,19.25-16.82l-2.43,8.24c-.49,1.66-3.55,3.64-4.97,4.83-.68.57-1.16,2.92-1.69,3.67s-2.77.94-3.79,1.52Z"/>
      <path class="st3" d="M501.37,1077.41c-.47-2.09,3.36-5.3,5.08-4.9.52.12,1.99,1.01,2.46,1.26.63.33,2.28-1.56,3-1.59l20.88-1.06c3.02-.71,6.15-5.36,9.52-1.02-19.45,10.32-15.36,8.07-40.95,7.32Z"/>
      <path class="st3" d="M430.96,1133.64c-4.3-1.31-5.43-7.58-5.22-11.01.07-1.17-3.46-2.09-4.24-1.35l-3.54,3.36c-1.31.71-2.42-5.37-.95-5.57l8.19-.07c.88-3.21,2.15-7.04,4.62-9.76,1.18-1.31,5.76-.3,5.81,1.38.07,2.25-.94,4.12-2.92,6.19-.32,2.14-.49,7.33-.44,9.9l3.19,2.69-4.48,4.25Z"/>
      <path class="st3" d="M594.29,859.07c-14.07-8-7.01-1.54-18.47-13.9-2.99-3.22-4.64-6.66-1.64-11.31l14.76,15.16,5.65,1.73-.3,8.33Z"/>
      <path class="st3" d="M698.8,1110.54c-5.14,6.27-18.17-5.74-18.37-6.01l-7.26-9.57c-.53-.7-.02-3.82.3-4.63,1.05-2.6,9.85,6.28,10.76,7.31,5.22,10.16,4.39,4.88,14.57,12.9Z"/>
      <path class="st3" d="M508.71,778.01c-.96.54-6.93-4.92,9.7-13.9l3.98-6.38,1.22-7.26c.21-1.25,4.93-1.49,5.21-.23.32,1.47-.56,4.1-1.21,5.81-3.35,8.74-7.63,15.68-16.01,20.35l-2.88,1.61Z"/>
      <path class="st3" d="M451.61,1073.38c-6.85,1.47-12.84.96-18.61,2.89-5.32,1.77-8.17,3.58-15.15-.81l-4.01-2.52c-1.05-.66-.49-4.23.6-4.84,1.73-.97,5.48,2.51,7.39,2.85,5.63,1.03,12.84.65,18.76.25l11,2.18Z"/>
      <path class="st3" d="M578.81,933.35c5.81,8.6-16,24.77-18.98,18.39l8.44-8.87c3.23-3.39,5.8-7.29,10.54-9.52Z"/>
      <path class="st3" d="M420.41,1056.59c9.52,5.68,23.34-1.25,25.3,5.15-9.6.53-21.11,1.1-30.25-.28-2.1-.32-6.04-2.88-7.93-3.62-.63-.24-.44-3.35-.37-4.02s2.18-1.3,2.54-.73l1.58,2.56,9.14.94Z"/>
      <path class="st3" d="M510.47,1132.35c-.07,1.47-.4,4.94-1.43,4.79l-3.88-.59c-1.02-.15-.55-3.81.29-4.74,6.2-6.85-4.92-12.04.03-19.33,5.23,2.94,10.19,8.9,7.65,14.29-.68,1.45-2.6,4.07-2.67,5.58Z"/>
      <path class="st3" d="M489.53,856.85l-7.37,7.75c-3.54,3.73-7.54-.14-11.06-2-1.14-.6-4.69-.54-4.71-1.69-.16-13.43,8.02,2.78,14.98-2.68,2.25-1.77,3-4.04,8.16-1.37Z"/>
      <path class="st3" d="M387.62,952.29l-9.81-7.64c-2.68-2.09-4.52-3.03-5.97-6.53l-1.83-4.41c-.51-1.23,3.08-2.64,4.4-2.85s1.34,4.17,2.34,5.18l9.67,9.77c.45.45,2.07,1.42,2.51,1.75s-.12,1.23-1.3,4.73Z"/>
      <path class="st3" d="M469.96,1152.78l-5.91-.71.31-9.98c3.86-4.04.89-12.38,3.84-10.94.66.32,1.92,2.01,1.91,2.95l-.16,18.68Z"/>
      <path class="st3" d="M423.52,1048.58c-14.87,3.7-11.26-1.12-16.36-1.77-2.1-.27-5.44-1.12-7.23-2.53-1.57-1.23-2.02-4.77-1.37-6.54,4.97,2.99,8.01,4.65,12.2,6.4l12.75,4.43Z"/>
      <path class="st3" d="M676.47,1129.79c.29,4.8-6.26,6.12-3.43,8.78l3.48,3.27c-2.71,3.04-6.71,1.43-8.74-1.59-3.16-4.71,1.16-11.81,4.57-12.51,1.16-.24,4.05.9,4.12,2.05Z"/>
      <path class="st3" d="M483.25,998.75l-20.57,1.6-5.34-5.91c4.64-2.33,8.11.25,12.31,1.6s9.02-1.07,13.6,2.71Z"/>
      <path class="st3" d="M286.1,1129.65c1.46,2.09,2.74,5.33,2.7,8.1-.03,1.97-3.03,4.03-6.05,4.73l-.55-11.82c-.03-.69.35-2.45.51-2.94s1.23-1.14,1.52-.73l1.86,2.65Z"/>
      <path class="st3" d="M447.21,899.17l-8.36.56c-.34-1.43-.53-4.98.46-5.64s4.3-1.03,5.02-.08,1.21,2.01,2.88,5.16Z"/>
      <path class="st3" d="M566.41,923.47c1.5,8.02-16.87,12.96-20.21,10.32-1.06-.84-3.52-6.32-4.13-7.88-.34-.89,3.38-1.37,4.24-.87,1.53.89,4.47,2.77,6.19,3.06,2.31.38,5.64-1.84,7.21-3.53l2.72-2.92c.62-.66,3.78.78,3.98,1.83Z"/>
      <path class="st3" d="M406.36,921.82c.59-.02,1.68,2.42,1.57,3.38s-1.64,2.91-2.53,3.57c-6.18,4.59-14,2.96-17.79-4.35-2.75-.76-2.13-1.85,1.04-3.03l10.15,6.28,7.57-5.84Z"/>
    </g>
  </g>
  <text class="st1" transform="translate(911.15 1033.82)"><tspan x="0" y="0">Legado &amp; Co</tspan></text>
</svg>